<?xml version="1.0" encoding="UTF-8" standalone="no"?>
<svg xmlns:xlink="http://www.w3.org/1999/xlink" height="7.55px" width="63.45px" xmlns="http://www.w3.org/2000/svg">
  <g transform="matrix(1.0, 0.0, 0.0, 1.0, -0.7, -1.95)">
    <g transform="matrix(1.0, 0.0, 0.0, 1.0, 0.0, 0.0)">
      <use fill="#ffffff" height="7.55" transform="matrix(0.1953, 0.0, 0.0, 0.1953, 0.0, 9.3)" width="63.45" xlink:href="#font_Helvetica-Narrow_E0"/>
      <use fill="#ffffff" height="7.55" transform="matrix(0.1953, 0.0, 0.0, 0.1953, 5.45, 9.3)" width="63.45" xlink:href="#font_Helvetica-Narrow_L0"/>
      <use fill="#ffffff" height="7.55" transform="matrix(0.1953, 0.0, 0.0, 0.1953, 10.0, 9.3)" width="63.45" xlink:href="#font_Helvetica-Narrow_A0"/>
      <use fill="#ffffff" height="7.55" transform="matrix(0.1953, 0.0, 0.0, 0.1953, 15.45, 9.3)" width="63.45" xlink:href="#font_Helvetica-Narrow_P0"/>
      <use fill="#ffffff" height="7.55" transform="matrix(0.1953, 0.0, 0.0, 0.1953, 20.9, 9.3)" width="63.45" xlink:href="#font_Helvetica-Narrow_S0"/>
      <use fill="#ffffff" height="7.55" transform="matrix(0.1953, 0.0, 0.0, 0.1953, 26.35, 9.3)" width="63.45" xlink:href="#font_Helvetica-Narrow_E0"/>
      <use fill="#ffffff" height="7.55" transform="matrix(0.1953, 0.0, 0.0, 0.1953, 31.8, 9.3)" width="63.45" xlink:href="#font_Helvetica-Narrow_D0"/>
      <use fill="#ffffff" height="7.55" transform="matrix(0.1953, 0.0, 0.0, 0.1953, 39.5, 9.3)" width="63.45" xlink:href="#font_Helvetica-Narrow_T0"/>
      <use fill="#ffffff" height="7.55" transform="matrix(0.1953, 0.0, 0.0, 0.1953, 44.5, 9.3)" width="63.45" xlink:href="#font_Helvetica-Narrow_I0"/>
      <use fill="#ffffff" height="7.55" transform="matrix(0.1953, 0.0, 0.0, 0.1953, 46.8, 9.3)" width="63.45" xlink:href="#font_Helvetica-Narrow_M0"/>
      <use fill="#ffffff" height="7.55" transform="matrix(0.1953, 0.0, 0.0, 0.1953, 53.65, 9.3)" width="63.45" xlink:href="#font_Helvetica-Narrow_E0"/>
      <use fill="#ffffff" height="7.55" transform="matrix(0.1953, 0.0, 0.0, 0.1953, 59.1, 9.3)" width="63.45" xlink:href="#font_Helvetica-Narrow_:0"/>
    </g>
  </g>
  <defs>
    <g id="font_Helvetica-Narrow_E0">
      <path d="M25.55 -36.75 L25.55 -32.35 7.7 -32.35 7.7 -21.1 24.2 -21.1 24.2 -16.7 7.7 -16.7 7.7 -4.4 25.85 -4.4 25.85 0.0 3.6 0.0 3.6 -36.75 25.55 -36.75" fill-rule="evenodd" stroke="none"/>
    </g>
    <g id="font_Helvetica-Narrow_L0">
      <path d="M7.3 -36.75 L7.3 -4.4 22.55 -4.4 22.55 0.0 3.2 0.0 3.2 -36.75 7.3 -36.75" fill-rule="evenodd" stroke="none"/>
    </g>
    <g id="font_Helvetica-Narrow_A0">
      <path d="M20.05 -10.7 L7.95 -10.7 4.8 0.0 0.6 0.0 11.95 -36.75 16.55 -36.75 27.45 0.0 23.0 0.0 20.05 -10.7 M9.2 -15.1 L18.55 -15.1 14.1 -31.25 14.0 -31.25 9.2 -15.1" fill-rule="evenodd" stroke="none"/>
    </g>
    <g id="font_Helvetica-Narrow_P0">
      <path d="M15.95 -32.5 L7.7 -32.5 7.7 -19.75 15.8 -19.75 Q18.6 -19.7 20.25 -21.2 21.9 -22.7 21.95 -26.35 21.9 -29.8 20.2 -31.15 18.55 -32.55 15.95 -32.5 M22.0 -35.4 Q24.0 -34.05 25.05 -31.7 26.15 -29.4 26.15 -26.4 26.15 -23.8 25.25 -21.3 24.4 -18.85 22.4 -17.2 20.45 -15.55 17.2 -15.5 L7.7 -15.5 7.7 0.0 3.6 0.0 3.6 -36.75 17.2 -36.75 Q20.0 -36.7 22.0 -35.4" fill-rule="evenodd" stroke="none"/>
    </g>
    <g id="font_Helvetica-Narrow_S0">
      <path d="M25.2 -26.0 L21.4 -26.0 Q21.25 -28.8 20.1 -30.45 18.95 -32.1 17.3 -32.8 15.65 -33.5 13.9 -33.45 L11.0 -33.05 Q9.4 -32.55 8.25 -31.15 7.1 -29.75 7.05 -27.0 7.1 -24.7 8.15 -23.7 9.2 -22.7 10.6 -22.35 L19.2 -19.95 Q22.2 -19.15 24.1 -16.8 25.95 -14.45 26.05 -10.1 26.0 -6.85 24.9 -4.7 23.85 -2.55 22.05 -1.3 20.3 -0.05 18.25 0.45 L14.25 1.0 9.7 0.4 Q7.9 -0.15 6.85 -0.95 L5.15 -2.55 Q3.25 -4.65 2.65 -6.95 2.0 -9.3 2.05 -11.85 L5.9 -11.85 Q5.95 -8.55 7.2 -6.65 8.45 -4.8 10.35 -4.0 12.2 -3.25 14.2 -3.25 L16.7 -3.5 Q18.0 -3.75 19.25 -4.4 20.5 -5.05 21.25 -6.25 22.05 -7.5 22.1 -9.45 22.1 -11.35 21.55 -12.55 20.95 -13.7 19.55 -14.5 18.15 -15.25 15.65 -15.95 L9.5 -17.7 Q8.75 -17.9 7.7 -18.4 6.6 -18.9 5.55 -19.85 4.5 -20.8 3.8 -22.4 3.1 -23.95 3.1 -26.35 3.1 -29.25 4.15 -31.85 5.25 -34.4 7.5 -36.05 9.8 -37.65 13.45 -37.7 17.35 -37.65 19.7 -36.45 22.05 -35.25 23.2 -33.35 24.35 -31.5 24.75 -29.55 L25.2 -26.0" fill-rule="evenodd" stroke="none"/>
    </g>
    <g id="font_Helvetica-Narrow_D0">
      <path d="M15.1 -32.5 L7.5 -32.5 7.5 -4.25 15.4 -4.25 Q19.4 -4.25 21.75 -7.95 24.05 -11.6 24.1 -18.55 24.05 -25.5 21.7 -29.0 19.3 -32.5 15.1 -32.5 M22.4 -34.45 Q25.25 -32.2 26.75 -28.2 28.3 -24.2 28.3 -18.85 28.35 -15.75 27.7 -12.45 27.05 -9.15 25.6 -6.35 24.15 -3.5 21.65 -1.8 19.15 -0.05 15.45 0.0 L3.4 0.0 3.4 -36.75 15.65 -36.75 Q19.55 -36.7 22.4 -34.45" fill-rule="evenodd" stroke="none"/>
    </g>
    <g id="font_Helvetica-Narrow_T0">
      <path d="M0.6 -32.35 L0.6 -36.75 25.1 -36.75 25.1 -32.35 14.9 -32.35 14.9 0.0 10.8 0.0 10.8 -32.35 0.6 -32.35" fill-rule="evenodd" stroke="none"/>
    </g>
    <g id="font_Helvetica-Narrow_I0">
      <path d="M3.85 -36.75 L7.9 -36.75 7.9 0.0 3.85 0.0 3.85 -36.75" fill-rule="evenodd" stroke="none"/>
    </g>
    <g id="font_Helvetica-Narrow_M0">
      <path d="M28.1 -27.2 L28.1 -30.85 28.0 -30.85 19.55 0.0 15.5 0.0 7.05 -30.8 6.95 -30.8 6.95 -27.15 7.0 -23.75 7.05 -21.7 7.05 0.0 3.1 0.0 3.1 -36.75 8.9 -36.75 17.5 -5.65 17.6 -5.65 26.15 -36.75 31.95 -36.75 31.95 0.0 28.0 0.0 28.0 -21.7 28.05 -23.75 28.1 -27.2" fill-rule="evenodd" stroke="none"/>
    </g>
    <g id="font_Helvetica-Narrow_:0">
      <path d="M3.65 -5.4 L8.05 -5.4 8.05 0.0 3.65 0.0 3.65 -5.4 M8.05 -26.4 L8.05 -21.0 3.65 -21.0 3.65 -26.4 8.05 -26.4" fill-rule="evenodd" stroke="none"/>
    </g>
  </defs>
</svg>
