<?xml version="1.0" encoding="UTF-8" standalone="no"?>
<svg xmlns:xlink="http://www.w3.org/1999/xlink" height="270.105px" width="9.24px" xmlns="http://www.w3.org/2000/svg">
  <g transform="matrix(1.1, 0.0, 0.0, 1.1, 2.53, 220.165)">
    <path d="M1.9 -196.7 Q2.85 -196.7 3.5 -196.05 4.2 -195.35 4.2 -194.4 L4.2 42.6 Q4.2 43.5 3.5 44.2 2.85 44.85 1.9 44.9 L1.85 44.9 Q0.9 44.85 0.2 44.2 -0.45 43.5 -0.45 42.6 L-0.45 -194.4 Q-0.45 -195.35 0.2 -196.05 0.9 -196.7 1.85 -196.7 L1.9 -196.7" fill="#f0c02f" fill-rule="evenodd" stroke="none"/>
    <path d="M1.9 -196.7 L1.85 -196.7 Q0.9 -196.7 0.2 -196.05 -0.45 -195.35 -0.45 -194.4 L-0.45 42.6 Q-0.45 43.5 0.2 44.2 0.9 44.85 1.85 44.9 L1.9 44.9 Q2.85 44.85 3.5 44.2 4.2 43.5 4.2 42.6 L4.2 -194.4 Q4.2 -195.35 3.5 -196.05 2.85 -196.7 1.9 -196.7 Z" fill="none" stroke="#000000" stroke-linecap="round" stroke-linejoin="round" stroke-width="1.0"/>
    <path d="M5.6 -192.9 L-1.8 -192.9 1.8 -199.65 5.6 -192.9" fill="#f0c02f" fill-rule="evenodd" stroke="none"/>
    <path d="M5.6 -192.9 L-1.8 -192.9 1.8 -199.65 5.6 -192.9 Z" fill="none" stroke="#000000" stroke-linecap="round" stroke-linejoin="round" stroke-width="1.0"/>
  </g>
</svg>
