<?xml version="1.0" encoding="UTF-8" standalone="no"?>
<svg xmlns:xlink="http://www.w3.org/1999/xlink" height="53.9375px" width="200.8125px" xmlns="http://www.w3.org/2000/svg">
  <g transform="matrix(1.25, 0.0, 0.0, 1.25, 100.375, 26.9375)">
    <path d="M78.95 -20.2 Q79.85 -19.3 79.85 -18.05 L79.85 18.1 Q79.85 19.4 78.95 20.2 78.15 21.1 76.85 21.1 L-76.8 21.1 Q-78.05 21.1 -78.95 20.2 -79.8 19.35 -79.8 18.1 L-79.8 -18.05 Q-79.8 -19.3 -78.95 -20.2 -78.05 -21.05 -76.8 -21.05 L76.85 -21.05 Q78.1 -21.05 78.95 -20.2" fill="#ffffff" fill-rule="evenodd" stroke="none"/>
    <path d="M78.95 -20.2 Q78.1 -21.05 76.85 -21.05 L-76.8 -21.05 Q-78.05 -21.05 -78.95 -20.2 -79.8 -19.3 -79.8 -18.05 L-79.8 18.1 Q-79.8 19.35 -78.95 20.2 -78.05 21.1 -76.8 21.1 L76.85 21.1 Q78.15 21.1 78.95 20.2 79.85 19.4 79.85 18.1 L79.85 -18.05 Q79.85 -19.3 78.95 -20.2 Z" fill="none" stroke="#000000" stroke-linecap="round" stroke-linejoin="round" stroke-width="1.0"/>
  </g>
<g transform="matrix(0.88, 0.0, 0.0, 0.88, 14.1, 7)">
    <g transform="matrix(1.0, 0.0, 0.0, 1.0, 0.0, 0.0)">
      <use fill="#000000" height="40.9" transform="matrix(0.2344, 0.0, 0.0, 0.2344, 0.0, 11.4)" width="208.55" xlink:href="#font_HelveticaNeue_MediumCond_D0"/>
      <use fill="#000000" height="40.9" transform="matrix(0.2344, 0.0, 0.0, 0.2344, 6.65, 11.4)" width="208.55" xlink:href="#font_HelveticaNeue_MediumCond_O0"/>
      <use fill="#000000" height="40.9" transform="matrix(0.2344, 0.0, 0.0, 0.2344, 13.3, 11.4)" width="208.55" xlink:href="#font_HelveticaNeue_MediumCond_U0"/>
      <use fill="#000000" height="40.9" transform="matrix(0.2344, 0.0, 0.0, 0.2344, 19.75, 11.4)" width="208.55" xlink:href="#font_HelveticaNeue_MediumCond_B0"/>
      <use fill="#000000" height="40.9" transform="matrix(0.2344, 0.0, 0.0, 0.2344, 26.2, 11.4)" width="208.55" xlink:href="#font_HelveticaNeue_MediumCond_L0"/>
      <use fill="#000000" height="40.9" transform="matrix(0.2344, 0.0, 0.0, 0.2344, 31.55, 11.4)" width="208.55" xlink:href="#font_HelveticaNeue_MediumCond_E0"/>
      <use fill="#000000" height="40.9" transform="matrix(0.2344, 0.0, 0.0, 0.2344, 43.1, 11.4)" width="208.55" xlink:href="#font_HelveticaNeue_MediumCond_C0"/>
      <use fill="#000000" height="40.9" transform="matrix(0.2344, 0.0, 0.0, 0.2344, 49.35, 11.4)" width="208.55" xlink:href="#font_HelveticaNeue_MediumCond_L0"/>
      <use fill="#000000" height="40.9" transform="matrix(0.2344, 0.0, 0.0, 0.2344, 54.7, 11.4)" width="208.55" xlink:href="#font_HelveticaNeue_MediumCond_I0"/>
      <use fill="#000000" height="40.9" transform="matrix(0.2344, 0.0, 0.0, 0.2344, 57.35, 11.4)" width="208.55" xlink:href="#font_HelveticaNeue_MediumCond_C0"/>
      <use fill="#000000" height="40.9" transform="matrix(0.2344, 0.0, 0.0, 0.2344, 63.6, 11.4)" width="208.55" xlink:href="#font_HelveticaNeue_MediumCond_K0"/>
      <use fill="#000000" height="40.9" transform="matrix(0.2344, 0.0, 0.0, 0.2344, 75.65, 11.4)" width="208.55" xlink:href="#font_HelveticaNeue_MediumCond_S0"/>
      <use fill="#000000" height="40.9" transform="matrix(0.2344, 0.0, 0.0, 0.2344, 81.9, 11.4)" width="208.55" xlink:href="#font_HelveticaNeue_MediumCond_A0"/>
      <use fill="#000000" height="40.9" transform="matrix(0.2344, 0.0, 0.0, 0.2344, 88.15, 11.4)" width="208.55" xlink:href="#font_HelveticaNeue_MediumCond_M0"/>
      <use fill="#000000" height="40.9" transform="matrix(0.2344, 0.0, 0.0, 0.2344, 96.8, 11.4)" width="208.55" xlink:href="#font_HelveticaNeue_MediumCond_P0"/>
      <use fill="#000000" height="40.9" transform="matrix(0.2344, 0.0, 0.0, 0.2344, 102.8, 11.4)" width="208.55" xlink:href="#font_HelveticaNeue_MediumCond_L0"/>
      <use fill="#000000" height="40.9" transform="matrix(0.2344, 0.0, 0.0, 0.2344, 108.15, 11.4)" width="208.55" xlink:href="#font_HelveticaNeue_MediumCond_E0"/>
      <use fill="#000000" height="40.9" transform="matrix(0.2344, 0.0, 0.0, 0.2344, 119.7, 11.4)" width="208.55" xlink:href="#font_HelveticaNeue_MediumCond_I0"/>
      <use fill="#000000" height="40.9" transform="matrix(0.2344, 0.0, 0.0, 0.2344, 122.35, 11.4)" width="208.55" xlink:href="#font_HelveticaNeue_MediumCond_C0"/>
      <use fill="#000000" height="40.9" transform="matrix(0.2344, 0.0, 0.0, 0.2344, 128.6, 11.4)" width="208.55" xlink:href="#font_HelveticaNeue_MediumCond_O0"/>
      <use fill="#000000" height="40.9" transform="matrix(0.2344, 0.0, 0.0, 0.2344, 135.25, 11.4)" width="208.55" xlink:href="#font_HelveticaNeue_MediumCond_N0"/>
      <use fill="#000000" height="40.9" transform="matrix(0.2344, 0.0, 0.0, 0.2344, 147.5, 11.4)" width="208.55" xlink:href="#font_HelveticaNeue_MediumCond_T0"/>
      <use fill="#000000" height="40.9" transform="matrix(0.2344, 0.0, 0.0, 0.2344, 152.7, 11.4)" width="208.55" xlink:href="#font_HelveticaNeue_MediumCond_O0"/>
      <use fill="#000000" height="40.9" transform="matrix(0.2344, 0.0, 0.0, 0.2344, 162.25, 11.4)" width="208.55" xlink:href="#font_HelveticaNeue_MediumCond_P0"/>
      <use fill="#000000" height="40.9" transform="matrix(0.2344, 0.0, 0.0, 0.2344, 168.25, 11.4)" width="208.55" xlink:href="#font_HelveticaNeue_MediumCond_R0"/>
      <use fill="#000000" height="40.9" transform="matrix(0.2344, 0.0, 0.0, 0.2344, 174.7, 11.4)" width="208.55" xlink:href="#font_HelveticaNeue_MediumCond_E0"/>
      <use fill="#000000" height="40.9" transform="matrix(0.2344, 0.0, 0.0, 0.2344, 180.45, 11.4)" width="208.55" xlink:href="#font_HelveticaNeue_MediumCond_V0"/>
      <use fill="#000000" height="40.9" transform="matrix(0.2344, 0.0, 0.0, 0.2344, 186.2, 11.4)" width="208.55" xlink:href="#font_HelveticaNeue_MediumCond_I0"/>
      <use fill="#000000" height="40.9" transform="matrix(0.2344, 0.0, 0.0, 0.2344, 188.85, 11.4)" width="208.55" xlink:href="#font_HelveticaNeue_MediumCond_E0"/>
      <use fill="#000000" height="40.9" transform="matrix(0.2344, 0.0, 0.0, 0.2344, 194.6, 11.4)" width="208.55" xlink:href="#font_HelveticaNeue_MediumCond_W0"/>
    </g>
    <g transform="matrix(1.0, 0.0, 0.0, 1.0, 0.0, 0.0)">
      <use fill="#000000" height="40.9" transform="matrix(0.2344, 0.0, 0.0, 0.2344, 0.0, 27.4)" width="208.55" xlink:href="#font_HelveticaNeue_MediumCond_D0"/>
      <use fill="#000000" height="40.9" transform="matrix(0.2344, 0.0, 0.0, 0.2344, 6.65, 27.4)" width="208.55" xlink:href="#font_HelveticaNeue_MediumCond_R0"/>
      <use fill="#000000" height="40.9" transform="matrix(0.2344, 0.0, 0.0, 0.2344, 13.1, 27.4)" width="208.55" xlink:href="#font_HelveticaNeue_MediumCond_A0"/>
      <use fill="#000000" height="40.9" transform="matrix(0.2344, 0.0, 0.0, 0.2344, 19.35, 27.4)" width="208.55" xlink:href="#font_HelveticaNeue_MediumCond_G0"/>
      <use fill="#000000" height="40.9" transform="matrix(0.2344, 0.0, 0.0, 0.2344, 28.7, 27.4)" width="208.55" xlink:href="#font_HelveticaNeue_MediumCond_I0"/>
      <use fill="#000000" height="40.9" transform="matrix(0.2344, 0.0, 0.0, 0.2344, 31.35, 27.4)" width="208.55" xlink:href="#font_HelveticaNeue_MediumCond_C0"/>
      <use fill="#000000" height="40.9" transform="matrix(0.2344, 0.0, 0.0, 0.2344, 37.6, 27.4)" width="208.55" xlink:href="#font_HelveticaNeue_MediumCond_O0"/>
      <use fill="#000000" height="40.9" transform="matrix(0.2344, 0.0, 0.0, 0.2344, 44.25, 27.4)" width="208.55" xlink:href="#font_HelveticaNeue_MediumCond_N0"/>
      <use fill="#000000" height="40.9" transform="matrix(0.2344, 0.0, 0.0, 0.2344, 56.95, 27.4)" width="208.55" xlink:href="#font_HelveticaNeue_MediumCond_F0"/>
      <use fill="#000000" height="40.9" transform="matrix(0.2344, 0.0, 0.0, 0.2344, 62.5, 27.4)" width="208.55" xlink:href="#font_HelveticaNeue_MediumCond_R0"/>
      <use fill="#000000" height="40.9" transform="matrix(0.2344, 0.0, 0.0, 0.2344, 68.95, 27.4)" width="208.55" xlink:href="#font_HelveticaNeue_MediumCond_O0"/>
      <use fill="#000000" height="40.9" transform="matrix(0.2344, 0.0, 0.0, 0.2344, 75.6, 27.4)" width="208.55" xlink:href="#font_HelveticaNeue_MediumCond_M0"/>
      <use fill="#000000" height="40.9" transform="matrix(0.2344, 0.0, 0.0, 0.2344, 90.05, 27.4)" width="208.55" xlink:href="#font_HelveticaNeue_MediumCond_S0"/>
      <use fill="#000000" height="40.9" transform="matrix(0.2344, 0.0, 0.0, 0.2344, 96.3, 27.4)" width="208.55" xlink:href="#font_HelveticaNeue_MediumCond_A0"/>
      <use fill="#000000" height="40.9" transform="matrix(0.2344, 0.0, 0.0, 0.2344, 102.55, 27.4)" width="208.55" xlink:href="#font_HelveticaNeue_MediumCond_M0"/>
      <use fill="#000000" height="40.9" transform="matrix(0.2344, 0.0, 0.0, 0.2344, 111.2, 27.4)" width="208.55" xlink:href="#font_HelveticaNeue_MediumCond_P0"/>
      <use fill="#000000" height="40.9" transform="matrix(0.2344, 0.0, 0.0, 0.2344, 117.2, 27.4)" width="208.55" xlink:href="#font_HelveticaNeue_MediumCond_L0"/>
      <use fill="#000000" height="40.9" transform="matrix(0.2344, 0.0, 0.0, 0.2344, 122.55, 27.4)" width="208.55" xlink:href="#font_HelveticaNeue_MediumCond_E0"/>
      <use fill="#000000" height="40.9" transform="matrix(0.2344, 0.0, 0.0, 0.2344, 134.1, 27.4)" width="208.55" xlink:href="#font_HelveticaNeue_MediumCond_L0"/>
      <use fill="#000000" height="40.9" transform="matrix(0.2344, 0.0, 0.0, 0.2344, 139.45, 27.4)" width="208.55" xlink:href="#font_HelveticaNeue_MediumCond_I0"/>
      <use fill="#000000" height="40.9" transform="matrix(0.2344, 0.0, 0.0, 0.2344, 142.1, 27.4)" width="208.55" xlink:href="#font_HelveticaNeue_MediumCond_B0"/>
      <use fill="#000000" height="40.9" transform="matrix(0.2344, 0.0, 0.0, 0.2344, 148.55, 27.4)" width="208.55" xlink:href="#font_HelveticaNeue_MediumCond_R0"/>
      <use fill="#000000" height="40.9" transform="matrix(0.2344, 0.0, 0.0, 0.2344, 155.0, 27.4)" width="208.55" xlink:href="#font_HelveticaNeue_MediumCond_A0"/>
      <use fill="#000000" height="40.9" transform="matrix(0.2344, 0.0, 0.0, 0.2344, 161.25, 27.4)" width="208.55" xlink:href="#font_HelveticaNeue_MediumCond_R0"/>
      <use fill="#000000" height="40.9" transform="matrix(0.2344, 0.0, 0.0, 0.2344, 167.5, 27.4)" width="208.55" xlink:href="#font_HelveticaNeue_MediumCond_Y0"/>
      <use fill="#000000" height="40.9" transform="matrix(0.2344, 0.0, 0.0, 0.2344, 176.15, 27.4)" width="208.55" xlink:href="#font_HelveticaNeue_MediumCond_O0"/>
      <use fill="#000000" height="40.9" transform="matrix(0.2344, 0.0, 0.0, 0.2344, 182.8, 27.4)" width="208.55" xlink:href="#font_HelveticaNeue_MediumCond_N0"/>
    </g>
    <g transform="matrix(1.0, 0.0, 0.0, 1.0, 0.0, 0.0)">
      <use fill="#000000" height="40.9" transform="matrix(0.2344, 0.0, 0.0, 0.2344, 0.0, 43.4)" width="208.55" xlink:href="#font_HelveticaNeue_MediumCond_T0"/>
      <use fill="#000000" height="40.9" transform="matrix(0.2344, 0.0, 0.0, 0.2344, 5.2, 43.4)" width="208.55" xlink:href="#font_HelveticaNeue_MediumCond_O0"/>
      <use fill="#000000" height="40.9" transform="matrix(0.2344, 0.0, 0.0, 0.2344, 17.2, 43.4)" width="208.55" xlink:href="#font_HelveticaNeue_MediumCond_T0"/>
      <use fill="#000000" height="40.9" transform="matrix(0.2344, 0.0, 0.0, 0.2344, 22.75, 43.4)" width="208.55" xlink:href="#font_HelveticaNeue_MediumCond_R0"/>
      <use fill="#000000" height="40.9" transform="matrix(0.2344, 0.0, 0.0, 0.2344, 29.2, 43.4)" width="208.55" xlink:href="#font_HelveticaNeue_MediumCond_A0"/>
      <use fill="#000000" height="40.9" transform="matrix(0.2344, 0.0, 0.0, 0.2344, 35.45, 43.4)" width="208.55" xlink:href="#font_HelveticaNeue_MediumCond_C0"/>
      <use fill="#000000" height="40.9" transform="matrix(0.2344, 0.0, 0.0, 0.2344, 41.7, 43.4)" width="208.55" xlink:href="#font_HelveticaNeue_MediumCond_K0"/>
      <use fill="#000000" height="40.9" transform="matrix(0.2344, 0.0, 0.0, 0.2344, 53.3, 43.4)" width="208.55" xlink:href="#font_HelveticaNeue_MediumCond_T0"/>
      <use fill="#000000" height="40.9" transform="matrix(0.2344, 0.0, 0.0, 0.2344, 58.5, 43.4)" width="208.55" xlink:href="#font_HelveticaNeue_MediumCond_O0"/>
      <use fill="#000000" height="40.9" transform="matrix(0.2344, 0.0, 0.0, 0.2344, 70.95, 43.4)" width="208.55" xlink:href="#font_HelveticaNeue_MediumCond_S0"/>
      <use fill="#000000" height="40.9" transform="matrix(0.2344, 0.0, 0.0, 0.2344, 77.2, 43.4)" width="208.55" xlink:href="#font_HelveticaNeue_MediumCond_E0"/>
      <use fill="#000000" height="40.9" transform="matrix(0.2344, 0.0, 0.0, 0.2344, 82.95, 43.4)" width="208.55" xlink:href="#font_HelveticaNeue_MediumCond_L0"/>
      <use fill="#000000" height="40.9" transform="matrix(0.2344, 0.0, 0.0, 0.2344, 88.3, 43.4)" width="208.55" xlink:href="#font_HelveticaNeue_MediumCond_E0"/>
      <use fill="#000000" height="40.9" transform="matrix(0.2344, 0.0, 0.0, 0.2344, 94.05, 43.4)" width="208.55" xlink:href="#font_HelveticaNeue_MediumCond_C0"/>
      <use fill="#000000" height="40.9" transform="matrix(0.2344, 0.0, 0.0, 0.2344, 100.3, 43.4)" width="208.55" xlink:href="#font_HelveticaNeue_MediumCond_T0"/>
    </g>
  </g>
  <defs>
    <g id="font_HelveticaNeue_MediumCond_D0">
      <path d="M13.7 -32.15 L8.85 -32.15 8.85 -4.4 13.7 -4.4 Q16.1 -4.35 17.6 -5.6 19.1 -6.85 19.8 -9.9 20.5 -12.95 20.5 -18.25 20.5 -23.4 19.85 -26.45 19.2 -29.5 17.7 -30.85 16.2 -32.15 13.7 -32.15 M20.25 -35.2 Q22.85 -33.9 24.15 -31.45 25.45 -29.0 25.9 -25.7 26.35 -22.35 26.3 -18.25 26.35 -14.2 25.9 -10.85 25.45 -7.5 24.15 -5.05 22.85 -2.65 20.25 -1.3 17.7 0.0 13.4 0.0 L3.05 0.0 3.05 -36.55 13.4 -36.55 Q17.7 -36.5 20.25 -35.2" fill-rule="evenodd" stroke="none"/>
    </g>
    <g id="font_HelveticaNeue_MediumCond_O0">
      <path d="M5.05 -32.65 Q7.95 -37.3 14.25 -37.25 20.5 -37.3 23.4 -32.65 26.35 -28.0 26.3 -18.25 26.35 -8.5 23.4 -3.85 20.5 0.75 14.25 0.75 7.95 0.75 5.05 -3.85 2.15 -8.5 2.15 -18.25 2.15 -28.0 5.05 -32.65 M20.0 -25.85 Q19.5 -28.75 18.65 -30.25 17.8 -31.8 16.7 -32.35 15.55 -32.9 14.25 -32.85 12.9 -32.9 11.8 -32.35 10.65 -31.8 9.8 -30.25 8.95 -28.75 8.45 -25.85 8.0 -23.0 8.0 -18.4 8.0 -13.7 8.45 -10.8 8.95 -7.85 9.8 -6.3 10.65 -4.75 11.8 -4.2 12.9 -3.65 14.25 -3.65 15.55 -3.65 16.7 -4.2 17.8 -4.75 18.65 -6.3 19.5 -7.85 20.0 -10.8 20.5 -13.7 20.5 -18.4 20.5 -23.0 20.0 -25.85" fill-rule="evenodd" stroke="none"/>
    </g>
    <g id="font_HelveticaNeue_MediumCond_U0">
      <path d="M2.6 -36.55 L8.4 -36.55 8.4 -10.3 Q8.4 -6.9 9.75 -5.25 11.15 -3.65 13.8 -3.65 16.4 -3.65 17.75 -5.25 19.1 -6.9 19.1 -10.3 L19.1 -36.55 24.95 -36.55 24.95 -10.8 Q24.9 -6.6 23.6 -4.05 22.25 -1.5 19.75 -0.35 17.3 0.75 13.8 0.75 10.25 0.75 7.75 -0.35 5.25 -1.5 3.95 -4.05 2.6 -6.6 2.6 -10.8 L2.6 -36.55" fill-rule="evenodd" stroke="none"/>
    </g>
    <g id="font_HelveticaNeue_MediumCond_B0">
      <path d="M18.45 -15.4 Q16.9 -17.0 14.3 -17.05 L8.85 -17.05 8.85 -4.4 14.65 -4.4 Q17.3 -4.4 18.65 -6.05 20.05 -7.7 20.05 -10.85 20.0 -13.8 18.45 -15.4 M12.95 -32.15 L8.85 -32.15 8.85 -21.15 13.5 -21.15 Q16.15 -21.2 17.5 -22.75 18.85 -24.3 18.85 -26.9 18.85 -29.05 18.05 -30.2 17.3 -31.35 15.95 -31.75 L12.95 -32.15 M23.35 -32.85 Q24.65 -30.9 24.7 -27.7 24.7 -24.35 23.35 -22.3 22.05 -20.25 19.3 -19.4 L19.3 -19.3 Q21.3 -18.95 22.8 -17.95 24.25 -16.9 25.05 -15.0 25.85 -13.05 25.85 -9.95 25.8 -5.35 22.8 -2.7 19.8 -0.05 14.6 0.0 L3.05 0.0 3.05 -36.55 14.85 -36.55 Q17.6 -36.55 19.8 -35.65 22.05 -34.8 23.35 -32.85" fill-rule="evenodd" stroke="none"/>
    </g>
    <g id="font_HelveticaNeue_MediumCond_L0">
      <path d="M2.35 -36.55 L8.2 -36.55 8.2 -4.9 22.3 -4.9 22.3 0.0 2.35 0.0 2.35 -36.55" fill-rule="evenodd" stroke="none"/>
    </g>
    <g id="font_HelveticaNeue_MediumCond_E0">
      <path d="M22.8 -36.55 L22.8 -31.6 8.85 -31.6 8.85 -21.5 21.95 -21.5 21.95 -16.55 8.85 -16.55 8.85 -4.9 23.2 -4.9 23.2 0.0 3.05 0.0 3.05 -36.55 22.8 -36.55" fill-rule="evenodd" stroke="none"/>
    </g>
    <g id="font_HelveticaNeue_MediumCond_C0">
      <path d="M20.4 -36.0 Q22.65 -34.8 23.7 -32.95 24.75 -31.1 25.05 -29.2 L25.3 -25.8 25.3 -25.15 19.45 -25.15 19.45 -25.75 Q19.5 -27.5 19.05 -29.15 18.6 -30.8 17.45 -31.85 16.3 -32.9 14.25 -32.85 12.1 -32.9 10.7 -31.75 9.3 -30.55 8.65 -27.4 8.0 -24.25 8.0 -18.4 8.0 -12.6 8.65 -9.35 9.3 -6.15 10.7 -4.85 12.1 -3.6 14.25 -3.65 16.05 -3.7 17.15 -4.55 18.25 -5.45 18.8 -6.8 19.35 -8.15 19.5 -9.65 L19.7 -12.45 19.7 -13.1 25.5 -13.1 25.5 -12.3 Q25.55 -8.95 24.5 -6.0 23.45 -3.05 21.0 -1.2 18.5 0.7 14.25 0.75 9.65 0.75 7.0 -1.3 4.35 -3.3 3.25 -7.55 2.15 -11.75 2.15 -18.25 2.15 -24.8 3.25 -29.0 4.35 -33.2 7.05 -35.25 9.7 -37.25 14.3 -37.25 18.15 -37.2 20.4 -36.0" fill-rule="evenodd" stroke="none"/>
    </g>
    <g id="font_HelveticaNeue_MediumCond_I0">
      <path d="M2.8 -36.55 L8.6 -36.55 8.6 0.0 2.8 0.0 2.8 -36.55" fill-rule="evenodd" stroke="none"/>
    </g>
    <g id="font_HelveticaNeue_MediumCond_K0">
      <path d="M3.05 -36.55 L8.85 -36.55 8.85 -20.6 8.95 -20.6 20.0 -36.55 26.4 -36.55 15.9 -21.15 27.55 0.0 20.95 0.0 12.1 -16.4 8.85 -11.8 8.85 0.0 3.05 0.0 3.05 -36.55" fill-rule="evenodd" stroke="none"/>
    </g>
    <g id="font_HelveticaNeue_MediumCond_S0">
      <path d="M22.25 -33.85 Q23.3 -32.4 23.6 -30.75 23.95 -29.1 23.9 -27.65 L23.9 -26.8 18.1 -26.8 18.1 -27.6 Q18.1 -30.1 16.9 -31.45 15.65 -32.85 12.95 -32.85 L10.55 -32.35 Q9.45 -31.85 8.75 -30.7 8.05 -29.5 8.05 -27.6 8.0 -25.3 9.3 -23.85 10.6 -22.45 13.55 -21.4 L17.5 -19.95 Q21.35 -18.6 23.1 -16.3 24.9 -14.0 24.9 -10.25 24.85 -6.4 23.4 -3.95 21.9 -1.5 19.2 -0.4 16.5 0.75 12.8 0.75 9.45 0.7 7.25 -0.3 5.1 -1.3 3.85 -2.9 2.65 -4.55 2.15 -6.5 1.7 -8.5 1.7 -10.4 L1.7 -11.3 7.55 -11.3 7.55 -10.35 Q7.55 -7.05 9.0 -5.35 10.5 -3.65 13.55 -3.65 15.4 -3.7 16.6 -4.45 17.85 -5.2 18.45 -6.4 19.05 -7.6 19.05 -9.0 19.05 -11.85 17.7 -13.3 16.3 -14.8 13.85 -15.5 L9.85 -16.9 Q5.85 -18.35 4.05 -20.7 2.2 -23.05 2.2 -26.9 2.25 -30.25 3.65 -32.55 5.05 -34.85 7.6 -36.05 10.1 -37.25 13.6 -37.25 17.05 -37.25 19.15 -36.3 21.2 -35.35 22.25 -33.85" fill-rule="evenodd" stroke="none"/>
    </g>
    <g id="font_HelveticaNeue_MediumCond_A0">
      <path d="M9.05 -13.6 L17.7 -13.6 13.5 -31.6 13.4 -31.6 9.05 -13.6 M9.95 -36.55 L17.4 -36.55 27.05 0.0 20.95 0.0 18.7 -8.95 8.0 -8.95 5.65 0.0 -0.45 0.0 9.95 -36.55" fill-rule="evenodd" stroke="none"/>
    </g>
    <g id="font_HelveticaNeue_MediumCond_M0">
      <path d="M3.05 -36.55 L12.15 -36.55 18.6 -9.45 18.7 -9.45 25.05 -36.55 33.95 -36.55 33.95 0.0 28.45 0.0 28.45 -30.4 28.35 -30.4 20.95 0.0 16.05 0.0 8.65 -30.4 8.55 -30.4 8.55 0.0 3.05 0.0 3.05 -36.55" fill-rule="evenodd" stroke="none"/>
    </g>
    <g id="font_HelveticaNeue_MediumCond_P0">
      <path d="M12.6 -32.15 L8.85 -32.15 8.85 -19.5 13.0 -19.5 Q14.6 -19.45 15.9 -20.1 17.25 -20.7 18.05 -22.1 18.85 -23.5 18.85 -25.8 18.9 -28.75 17.5 -30.45 16.05 -32.1 12.6 -32.15 M20.35 -35.15 Q22.55 -33.8 23.65 -31.45 24.7 -29.05 24.7 -25.9 24.65 -20.9 21.9 -18.05 19.15 -15.15 14.0 -15.1 L8.85 -15.1 8.85 0.0 3.05 0.0 3.05 -36.55 14.6 -36.55 Q18.1 -36.5 20.35 -35.15" fill-rule="evenodd" stroke="none"/>
    </g>
    <g id="font_HelveticaNeue_MediumCond_N0">
      <path d="M3.05 -36.55 L10.15 -36.55 20.75 -9.3 20.85 -9.3 20.85 -36.55 26.4 -36.55 26.4 0.0 19.3 0.0 8.65 -27.95 8.55 -27.95 8.55 0.0 3.05 0.0 3.05 -36.55" fill-rule="evenodd" stroke="none"/>
    </g>
    <g id="font_HelveticaNeue_MediumCond_T0">
      <path d="M9.05 -31.6 L0.35 -31.6 0.35 -36.55 23.4 -36.55 23.4 -31.6 14.85 -31.6 14.85 0.0 9.05 0.0 9.05 -31.6" fill-rule="evenodd" stroke="none"/>
    </g>
    <g id="font_HelveticaNeue_MediumCond_R0">
      <path d="M19.35 -26.2 Q19.4 -29.1 18.05 -30.65 16.7 -32.15 13.85 -32.15 L8.85 -32.15 8.85 -20.25 13.5 -20.25 Q16.35 -20.3 17.85 -21.85 19.35 -23.4 19.35 -26.2 M20.6 -35.6 Q22.7 -34.7 23.9 -32.6 25.15 -30.55 25.2 -27.1 25.2 -23.55 23.65 -21.1 22.1 -18.7 19.1 -18.15 L19.1 -18.05 Q21.85 -17.85 23.25 -16.1 24.7 -14.4 24.85 -10.6 L24.9 -6.8 25.05 -3.15 Q25.15 -1.85 25.65 -1.1 26.15 -0.35 26.75 0.0 L20.2 0.0 Q19.75 -0.5 19.55 -1.3 19.3 -2.15 19.2 -3.2 L19.05 -6.5 18.95 -10.15 Q18.95 -13.1 17.75 -14.5 16.55 -15.9 13.65 -15.85 L8.85 -15.85 8.85 0.0 3.05 0.0 3.05 -36.55 15.95 -36.55 Q18.5 -36.55 20.6 -35.6" fill-rule="evenodd" stroke="none"/>
    </g>
    <g id="font_HelveticaNeue_MediumCond_V0">
      <path d="M5.9 -36.55 L12.1 -7.35 12.2 -7.35 18.75 -36.55 24.95 -36.55 15.75 0.0 8.3 0.0 -0.3 -36.55 5.9 -36.55" fill-rule="evenodd" stroke="none"/>
    </g>
    <g id="font_HelveticaNeue_MediumCond_W0">
      <path d="M31.85 -36.55 L37.65 -36.55 30.35 0.0 23.6 0.0 18.9 -27.55 18.8 -27.55 14.15 0.0 7.4 0.0 0.3 -36.55 6.2 -36.55 11.0 -8.15 11.1 -8.15 15.95 -36.55 22.05 -36.55 27.0 -7.95 27.1 -7.95 31.85 -36.55" fill-rule="evenodd" stroke="none"/>
    </g>
    <g id="font_HelveticaNeue_MediumCond_G0">
      <path d="M23.05 -33.25 Q24.2 -31.55 24.6 -29.75 25.0 -28.0 25.0 -26.7 L25.0 -26.05 19.45 -26.05 19.45 -26.9 Q19.5 -28.3 19.0 -29.65 18.55 -31.0 17.45 -31.95 16.3 -32.85 14.35 -32.85 12.25 -32.9 10.85 -31.7 9.45 -30.5 8.7 -27.35 8.0 -24.2 8.0 -18.4 8.0 -12.6 8.65 -9.35 9.3 -6.15 10.6 -4.85 11.9 -3.6 13.9 -3.65 17.2 -3.6 18.6 -6.25 20.0 -8.9 20.0 -14.85 L13.85 -14.85 13.85 -19.25 25.5 -19.25 25.5 0.0 21.1 0.0 21.1 -4.2 21.0 -4.2 Q19.85 -1.7 18.05 -0.5 16.2 0.75 13.0 0.75 9.05 0.75 6.65 -1.3 4.25 -3.3 3.2 -7.55 2.15 -11.75 2.15 -18.25 2.15 -28.0 5.05 -32.65 8.0 -37.3 14.3 -37.25 17.7 -37.2 19.85 -36.1 21.95 -34.95 23.05 -33.25" fill-rule="evenodd" stroke="none"/>
    </g>
    <g id="font_HelveticaNeue_MediumCond_F0">
      <path d="M3.05 -36.55 L22.55 -36.55 22.55 -31.6 8.85 -31.6 8.85 -21.5 21.7 -21.5 21.7 -16.55 8.85 -16.55 8.85 0.0 3.05 0.0 3.05 -36.55" fill-rule="evenodd" stroke="none"/>
    </g>
    <g id="font_HelveticaNeue_MediumCond_Y0">
      <path d="M6.3 -36.55 L12.45 -20.75 18.75 -36.55 24.85 -36.55 15.05 -14.25 15.05 0.0 9.25 0.0 9.25 -14.25 -0.2 -36.55 6.3 -36.55" fill-rule="evenodd" stroke="none"/>
    </g>
  </defs>
</svg>
