<?xml version="1.0" encoding="UTF-8" standalone="no"?>
<svg xmlns:xlink="http://www.w3.org/1999/xlink" height="26.5px" width="43.25px" xmlns="http://www.w3.org/2000/svg">
  <g transform="matrix(1.0, 0.0, 0.0, 1.0, -613.7, -9.55)">
    <path d="M648.35 10.8 L649.2 10.8 649.35 10.8 649.65 10.65 649.7 10.5 650.05 10.5 650.2 10.5 Q650.3 11.0 650.85 10.65 L650.85 10.5 651.05 10.5 651.2 10.5 Q651.15 10.95 651.5 10.65 L651.5 10.5 651.85 10.5 652.0 10.5 Q652.3 11.0 653.05 10.95 L656.35 10.65 656.55 10.5 Q657.05 10.7 656.95 12.25 L656.85 16.55 656.85 27.15 656.55 27.7 656.55 28.0 656.55 28.55 656.7 28.6 656.7 28.9 656.55 28.9 656.55 29.45 656.55 29.75 656.35 29.75 656.4 30.55 656.55 30.6 Q657.0 31.6 656.85 33.75 L656.85 34.05 656.7 34.05 651.7 34.05 Q652.05 34.55 652.85 34.5 L656.85 34.65 656.85 34.9 656.85 35.2 656.7 35.2 655.2 35.2 Q655.45 35.95 656.05 35.7 656.3 35.55 656.35 36.05 L656.2 36.05 651.2 36.05 651.15 35.8 651.1 35.65 Q651.35 35.15 650.7 35.2 L650.7 35.75 650.7 36.05 650.5 36.05 650.35 36.05 650.3 35.9 650.05 35.75 650.05 36.05 649.85 36.05 640.05 36.05 640.05 35.75 Q640.15 35.15 639.85 35.2 639.95 34.55 639.7 34.6 L633.05 34.65 632.9 34.65 632.7 34.65 632.9 34.85 633.05 34.9 633.25 35.15 633.4 35.2 633.4 35.75 633.4 36.05 633.2 36.05 632.55 35.65 631.55 35.3 631.3 35.35 630.75 35.75 630.75 36.05 626.75 36.05 616.9 36.05 616.9 35.75 616.9 35.5 617.2 35.35 617.25 35.2 617.4 35.2 Q617.6 35.7 618.25 35.35 L618.25 35.2 618.5 35.05 Q618.8 34.7 618.55 34.7 L617.25 34.65 617.25 34.45 616.4 34.35 616.4 34.65 616.25 34.65 616.25 34.5 Q615.3 34.5 614.75 34.05 L614.7 33.8 614.6 33.45 614.6 33.2 Q614.85 33.1 614.75 32.3 L614.75 32.05 614.75 31.75 Q614.95 30.0 614.6 28.3 614.85 28.35 614.8 27.7 L614.75 27.45 614.7 27.2 614.6 26.9 614.65 26.65 614.6 25.45 614.7 25.35 Q614.85 24.8 614.6 24.85 L614.6 24.6 614.6 24.3 614.7 24.3 614.6 23.15 614.6 22.85 Q614.7 22.2 614.4 22.25 L614.4 22.85 614.4 23.15 614.4 24.0 614.4 24.3 614.45 24.6 Q614.55 25.95 614.25 26.6 L614.45 30.05 614.4 31.75 614.4 32.3 614.4 32.6 614.4 32.9 614.4 33.2 614.4 33.45 614.4 33.75 614.4 34.05 614.25 34.1 614.1 34.35 613.85 33.45 613.85 33.2 613.85 32.6 613.85 32.4 Q613.65 31.7 613.75 30.6 614.05 30.2 613.95 29.15 L613.9 28.9 613.9 28.6 613.9 28.3 613.9 28.0 613.9 27.75 613.9 27.45 613.9 26.3 613.9 26.0 613.9 25.7 613.9 25.45 613.9 25.15 613.95 24.9 Q614.05 24.25 613.75 24.3 L613.8 24.05 613.85 23.8 Q613.65 23.1 613.75 22.0 614.05 21.9 613.95 21.15 L613.9 20.85 613.9 20.55 613.9 20.3 614.05 19.95 614.1 19.7 614.05 19.45 613.9 19.15 613.95 18.85 Q614.1 17.85 613.9 17.4 L613.95 17.1 Q614.05 16.2 613.75 15.95 L613.75 15.7 613.75 15.4 614.3 15.45 614.4 15.4 614.4 15.7 614.4 15.95 614.4 16.55 614.4 16.85 614.4 18.55 614.4 18.85 Q614.7 18.3 614.6 17.1 L614.6 16.85 614.6 16.55 614.6 15.95 614.7 14.25 614.7 14.05 Q614.95 13.3 614.4 13.4 L614.4 13.95 614.4 14.25 614.25 14.25 613.75 14.25 613.75 13.95 613.75 13.4 614.0 12.4 614.1 12.45 614.25 12.5 Q614.65 13.55 614.7 12.2 L614.6 10.8 Q614.85 10.85 614.8 10.25 L614.75 9.95 617.75 9.55 619.9 9.8 620.1 9.85 620.75 10.25 Q621.3 10.2 620.95 9.85 L620.9 9.65 623.55 9.8 623.75 9.8 623.9 9.65 Q623.95 10.1 624.35 9.8 L624.4 9.65 624.75 9.65 624.9 9.65 Q625.0 10.15 625.55 9.95 L625.75 9.95 626.45 10.0 626.55 9.95 626.75 9.95 Q626.8 10.2 627.4 9.95 L627.55 9.95 627.75 9.95 627.9 9.95 628.05 9.95 628.25 9.95 629.55 10.1 629.55 10.25 629.55 10.4 629.2 10.5 Q629.35 11.0 629.8 10.65 L629.75 10.5 629.75 10.25 630.25 10.25 630.4 10.25 630.55 10.25 630.75 10.25 631.55 10.35 631.55 10.25 631.75 10.0 631.9 9.95 Q632.1 10.4 632.75 10.25 L632.9 10.25 633.05 10.25 633.2 10.25 Q633.2 10.7 633.5 10.4 L633.55 10.25 633.7 10.25 Q633.9 10.7 634.55 10.4 L634.55 10.25 634.7 10.25 Q634.7 10.7 635.0 10.4 L635.05 10.25 635.4 10.25 635.55 10.25 Q635.85 11.15 636.6 10.6 L636.85 10.45 637.05 10.25 637.2 10.25 637.4 10.25 Q637.4 11.25 637.7 10.5 L637.7 10.25 637.85 10.25 638.05 10.25 638.25 10.45 638.4 10.5 Q638.35 10.95 638.65 10.65 L638.7 10.5 639.2 10.5 639.4 10.5 639.55 10.5 Q639.65 11.0 640.2 10.65 L640.2 10.5 640.7 10.5 640.85 10.5 Q641.15 11.0 641.85 11.0 642.55 11.0 642.85 10.5 L643.35 10.5 643.55 10.5 Q643.65 11.0 644.2 10.85 L644.4 10.8 645.05 10.8 645.2 10.8 645.55 10.8 645.7 10.8 647.85 10.8 648.05 10.8 648.2 10.8 648.35 10.8 M624.55 10.1 Q625.2 10.05 624.55 9.95 L624.55 10.1 M653.35 35.7 Q654.05 35.65 654.35 35.2 L654.15 35.2 652.2 35.2 Q652.55 35.65 653.35 35.7 M614.6 20.55 Q614.7 19.5 614.4 19.15 L614.4 20.55 614.4 20.85 614.4 21.15 614.4 21.4 Q614.4 22.35 614.55 21.7 L614.6 21.4 614.6 21.15 614.6 20.85 614.6 20.55 M630.75 34.05 L630.75 34.2 Q632.15 34.2 630.75 34.05 M629.75 34.2 Q630.35 34.2 629.75 34.05 L629.75 34.2 M628.55 34.2 Q629.45 34.2 628.55 34.05 L628.55 34.2 M614.1 28.6 L614.1 28.8 Q614.4 29.25 614.1 28.6 M626.05 34.9 L626.25 34.85 Q626.6 34.65 626.05 34.65 L625.9 34.65 625.55 34.65 Q625.55 35.1 625.9 34.95 L626.05 34.9 M627.05 34.65 L627.05 34.75 Q627.7 34.75 627.05 34.65 M626.55 34.75 Q627.2 34.75 626.55 34.65 L626.55 34.75 M624.4 34.75 Q625.85 34.75 624.4 34.65 L624.4 34.75" fill="#f0c02f" fill-opacity="0.972549" fill-rule="evenodd" stroke="none"/>
  </g>
  <g transform="matrix(1.0, 0.0, 0.0, 1.0, 21.45, 12.7)">
    <path d="M7.85 -2.7 L7.6 -3.55 Q7.35 -3.9 6.7 -3.9 L6.0 -3.9 6.0 -1.55 6.8 -1.55 7.3 -1.7 7.7 -2.05 7.85 -2.7 M0.65 -4.7 L1.7 -4.7 1.7 1.1 4.3 1.1 4.3 2.0 0.65 2.0 0.65 -4.7 M7.05 -4.7 L8.1 -4.45 8.7 -3.75 8.9 -2.75 Q8.9 -1.85 8.4 -1.3 7.9 -0.75 6.95 -0.75 L6.0 -0.75 6.0 2.0 4.95 2.0 4.95 -4.7 7.05 -4.7 M-8.95 -4.7 L-7.9 -4.7 -7.9 -2.0 -5.9 -2.0 -5.9 -4.7 -4.85 -4.7 -4.85 2.0 -5.9 2.0 -5.9 -1.1 -7.9 -1.1 -7.9 2.0 -8.95 2.0 -8.95 -4.7 M-3.75 -4.7 L-0.15 -4.7 -0.15 -3.8 -2.7 -3.8 -2.7 -1.95 -0.3 -1.95 -0.3 -1.05 -2.7 -1.05 -2.7 1.1 -0.05 1.1 -0.05 2.0 -3.75 2.0 -3.75 -4.7" fill="#000000" fill-rule="evenodd" stroke="none"/>
    <path d="M8.95 4.7 L-8.95 4.7" fill="none" stroke="#000000" stroke-linecap="round" stroke-linejoin="round" stroke-width="1.0"/></g>
</svg>
