<?xml version="1.0" encoding="UTF-8" standalone="no"?>
<svg xmlns:xlink="http://www.w3.org/1999/xlink" height="32.205px" width="144.0675px" xmlns="http://www.w3.org/2000/svg">
  <g transform="matrix(0.95, 0.0, 0.0, 0.95, 72.01, 16.1025)">
    <use height="33.9" transform="matrix(1.0, 0.0, 0.0, 1.0, -75.8, -16.95)" width="151.65" xlink:href="#shape0"/>
  </g>
  <defs>
    <g id="shape0" transform="matrix(1.0, 0.0, 0.0, 1.0, 75.8, 16.95)">
      <path d="M-21.8 10.5 L-24.65 10.25 Q-24.45 10.6 -23.5 10.6 L-21.8 10.5 M-28.5 10.4 Q-28.1 10.1 -27.55 9.95 L-30.55 10.05 Q-29.85 10.65 -29.4 10.65 L-28.5 10.4 M-16.35 14.35 L-16.1 14.35 -16.85 13.75 -16.35 14.35 -20.35 14.0 -16.25 14.45 -16.35 14.35 M-12.8 13.3 L-12.05 13.65 -12.1 13.4 -12.1 13.15 -12.95 12.85 -12.8 13.3 M-6.35 10.6 L-6.7 10.9 Q-6.9 11.0 -6.75 11.05 L-5.5 10.9 -6.35 10.6 Q-6.25 10.5 -6.45 10.4 L-7.35 10.25 -6.35 10.6 M-8.25 11.25 L-9.9 11.25 Q-10.7 11.35 -10.9 11.6 L-10.35 11.6 -8.65 11.55 -7.0 11.45 -8.25 11.25 M-10.6 -8.85 L-10.75 -8.7 -8.9 -8.45 -8.75 -8.55 -10.6 -8.85 M-3.05 -13.65 Q-2.3 -13.4 -2.7 -13.2 L-1.3 -13.6 Q-0.75 -13.7 -1.1 -14.2 L-2.0 -14.25 -3.4 -14.35 Q-4.1 -14.4 -4.15 -14.7 L-4.85 -13.8 -3.05 -13.65 M-9.9 -14.45 L-7.45 -14.65 -8.9 -15.0 -10.6 -14.65 Q-11.4 -14.4 -11.35 -14.15 L-9.9 -14.45 M-28.05 -10.05 L-29.25 -10.15 -27.95 -9.45 -26.1 -9.65 Q-26.65 -10.15 -27.1 -10.15 L-28.05 -10.05 M-23.95 -10.95 L-23.05 -11.05 Q-23.7 -11.0 -23.95 -11.25 L-24.55 -11.65 -25.8 -11.6 -24.6 -11.6 -25.0 -11.35 -24.55 -11.0 -24.2 -10.7 -25.05 -10.45 Q-25.45 -10.4 -25.0 -10.25 L-23.75 -10.05 -22.4 -10.1 Q-22.5 -10.3 -23.0 -10.35 L-23.9 -10.55 Q-24.3 -10.65 -23.95 -10.95 M-66.7 -7.75 L-67.15 -7.35 -66.25 -7.6 Q-66.5 -7.95 -66.7 -7.75 M-66.45 -7.3 L-66.15 -6.95 -66.35 -7.5 -66.6 -7.4 -66.45 -7.3 M-68.15 -6.8 L-68.25 -6.85 -68.25 -6.65 -67.8 -6.7 -67.8 -6.2 Q-67.45 -6.25 -67.0 -5.95 L-66.2 -5.4 -65.5 -5.3 -66.2 -6.5 Q-66.6 -7.1 -66.75 -6.9 L-66.7 -7.35 -67.0 -7.15 -67.15 -6.8 -67.8 -6.85 -68.15 -6.8 M-72.4 -7.6 L-72.3 -7.45 Q-72.2 -8.8 -71.25 -9.7 -72.2 -8.9 -72.4 -7.6 M21.85 11.3 L20.65 10.95 Q21.15 12.0 20.35 12.0 L18.25 11.7 15.95 11.75 17.05 11.95 18.0 12.2 16.85 12.45 15.5 12.4 Q15.75 12.65 15.6 12.9 L17.8 12.5 20.6 12.25 23.15 12.2 Q23.5 11.95 23.05 11.75 L21.85 11.3 M33.9 10.3 L33.65 10.35 34.65 10.35 Q34.85 10.2 34.5 10.15 L33.9 10.1 Q34.2 10.3 33.9 10.3 M33.25 10.3 L32.55 10.3 33.55 10.35 33.25 10.3 M49.25 -15.2 L50.25 -14.15 50.5 -15.1 49.25 -15.2 M47.55 -15.55 L45.6 -15.7 45.7 -15.0 45.05 -14.25 46.3 -14.15 47.2 -14.2 46.25 -14.35 Q45.8 -14.35 45.7 -14.65 L47.25 -14.65 48.45 -14.3 48.25 -15.0 47.55 -15.55 M23.2 -10.95 L24.65 -10.85 25.6 -11.05 24.55 -11.25 23.2 -10.95 M26.45 -10.15 L27.2 -9.7 28.45 -9.75 Q27.85 -9.85 27.55 -10.15 L26.8 -10.6 25.3 -10.55 26.45 -10.15 M39.9 -15.8 L40.4 -15.7 40.55 -15.5 39.0 -15.6 37.65 -16.05 38.5 -15.65 39.45 -15.15 Q39.85 -14.9 39.7 -14.65 L38.3 -14.45 37.3 -14.4 37.5 -14.25 38.3 -14.45 39.15 -14.25 39.7 -14.65 41.35 -14.8 Q42.1 -14.85 42.2 -15.1 L41.45 -15.8 39.9 -15.8 M33.4 -15.6 Q33.65 -15.85 33.3 -16.0 L32.35 -16.25 31.55 -16.3 33.4 -15.6 M19.1 -15.65 L18.35 -15.95 20.35 -15.7 18.85 -15.15 Q19.95 -14.3 21.45 -14.5 L24.75 -15.1 28.25 -15.3 27.4 -15.6 26.4 -15.85 Q26.05 -16.0 26.7 -16.2 27.8 -16.15 28.35 -15.7 L29.5 -14.95 31.4 -15.05 30.6 -15.5 30.2 -16.05 29.45 -16.45 31.7 -16.65 Q32.6 -16.75 33.1 -16.25 33.8 -16.4 33.8 -16.75 L35.85 -16.4 37.95 -16.55 37.7 -16.9 Q38.7 -16.0 39.65 -15.95 L41.7 -16.1 44.25 -16.2 43.8 -16.75 46.05 -16.15 49.0 -16.1 48.0 -16.85 50.05 -16.55 52.45 -16.35 Q53.6 -16.2 54.25 -15.6 54.5 -15.65 54.3 -16.0 54.05 -16.3 54.2 -16.5 L55.65 -16.6 Q56.15 -16.2 57.3 -15.85 L59.15 -15.75 58.95 -16.2 58.15 -16.3 57.9 -16.25 58.1 -16.05 57.2 -16.65 58.75 -16.45 59.65 -16.05 61.2 -15.7 Q61.55 -15.9 61.05 -16.2 L60.25 -16.8 Q64.5 -15.4 68.6 -13.7 68.55 -13.4 68.15 -13.2 67.75 -13.05 68.15 -12.55 L65.2 -13.1 Q64.5 -12.9 64.95 -12.6 L66.2 -11.95 67.7 -11.35 65.7 -11.8 Q65.55 -11.7 65.8 -11.55 L64.35 -12.0 Q65.6 -11.25 65.3 -11.05 L64.05 -10.85 62.95 -10.65 Q62.65 -10.5 64.05 -9.85 63.25 -10.1 62.55 -10.6 L61.45 -11.45 60.15 -11.7 59.65 -11.55 59.1 -11.35 61.8 -10.1 59.95 -10.45 Q59.65 -10.4 59.9 -10.1 L60.05 -9.6 58.8 -9.35 55.55 -9.8 52.9 -9.2 50.8 -8.9 Q49.45 -9.15 49.45 -9.3 L49.9 -9.55 50.6 -9.85 Q50.85 -10.05 50.05 -10.3 L48.8 -10.35 48.4 -10.1 Q48.25 -9.95 47.65 -9.9 L46.8 -11.0 Q45.7 -11.2 45.65 -11.0 L45.75 -10.6 Q45.9 -10.4 45.3 -10.6 44.4 -10.4 44.6 -10.25 44.8 -10.15 45.4 -9.95 L46.25 -9.3 44.75 -9.8 42.85 -9.85 43.45 -9.6 44.25 -9.4 43.75 -9.3 39.0 -9.8 35.35 -9.65 Q33.6 -9.5 31.0 -9.65 L31.45 -9.1 30.6 -9.35 29.8 -9.35 30.1 -9.0 28.05 -9.2 24.35 -9.55 20.4 -9.65 22.25 -9.05 19.05 -9.75 19.4 -8.85 Q18.85 -9.3 17.55 -9.35 L14.7 -9.35 11.6 -9.4 11.6 -8.85 9.8 -9.15 10.4 -8.75 7.5 -9.15 Q5.95 -9.45 4.4 -9.15 5.35 -9.25 5.7 -8.85 L5.95 -8.05 0.45 -8.95 -0.2 -8.6 -0.95 -8.3 -0.65 -8.05 -2.55 -8.55 -2.35 -8.1 Q-6.65 -7.7 -10.65 -8.1 L-18.7 -8.85 -27.15 -8.35 -27.0 -8.15 -32.0 -9.4 -33.15 -8.9 Q-33.65 -8.5 -34.7 -8.25 -34.4 -8.65 -35.15 -8.7 L-36.9 -8.8 Q-37.95 -8.85 -38.45 -9.2 L-39.0 -8.9 -38.65 -8.6 -38.15 -8.3 -42.65 -8.15 -47.0 -8.45 -51.7 -8.3 -48.05 -9.15 -45.8 -9.45 -43.1 -9.7 -46.4 -9.85 -48.95 -9.6 -52.4 -9.5 -50.35 -9.2 Q-51.5 -8.6 -53.1 -8.65 L-56.0 -8.75 Q-57.3 -8.8 -57.6 -8.1 L-60.1 -8.35 -62.6 -8.65 -65.25 -8.25 -63.8 -7.35 -65.95 -6.7 -65.5 -6.2 -64.2 -4.9 -64.75 -4.95 -64.35 -4.35 -63.75 -3.6 Q-63.65 -3.6 -63.7 -3.75 L-63.75 -4.05 Q-62.65 -3.4 -62.2 -2.6 L-61.25 -1.25 Q-60.75 -0.7 -59.65 -0.75 L-59.7 0.15 -58.8 0.35 -57.85 0.55 Q-58.05 1.25 -57.45 1.6 L-56.2 2.35 Q-55.55 2.75 -55.65 3.45 L-54.6 3.65 -54.9 3.1 Q-55.15 2.8 -54.85 3.0 -53.75 3.3 -52.45 4.05 L-50.05 5.35 Q-48.95 5.9 -48.4 5.65 -47.1 6.45 -45.6 6.8 L-42.9 7.6 -42.65 6.95 -41.35 7.55 -40.0 7.9 -40.25 7.6 -35.75 8.7 -31.55 9.3 -31.85 8.7 Q-32.1 8.45 -33.25 8.2 L-30.15 8.5 -26.4 9.35 -22.4 9.8 -22.7 9.45 -20.5 10.1 -20.7 9.75 -20.6 9.4 -16.6 9.5 -12.8 9.9 Q-11.25 10.2 -10.25 10.75 L-10.1 10.55 -9.6 10.1 Q-9.45 9.85 -10.5 9.55 L-4.0 10.25 2.8 10.4 2.75 10.45 4.55 10.75 4.7 10.6 3.4 10.4 8.2 11.0 8.8 10.45 Q9.2 10.1 9.95 9.9 L11.35 10.05 14.4 9.65 17.25 9.85 17.15 9.7 16.8 9.6 17.05 9.4 23.25 9.6 30.25 9.9 37.0 9.6 Q37.35 10.4 38.95 10.65 L42.55 10.9 46.45 11.2 Q46.8 10.7 46.25 10.6 L44.85 10.45 43.5 10.1 44.6 9.9 45.2 9.4 47.3 9.45 47.15 9.25 47.1 9.25 Q47.4 9.25 47.4 9.45 L47.6 9.95 Q47.8 10.15 49.15 9.95 L49.25 9.25 51.15 9.95 59.6 8.6 Q63.6 8.0 67.05 6.35 67.55 6.5 66.8 7.15 L69.1 6.5 71.5 5.65 Q72.65 5.1 73.2 4.0 L72.6 4.25 73.85 2.3 Q74.4 1.6 74.4 0.5 74.35 -0.55 73.3 -2.8 L74.0 -1.55 74.65 -0.1 75.3 0.6 Q75.55 0.3 75.3 -0.5 L74.6 -1.95 73.65 -2.95 74.65 -3.1 75.15 -1.2 Q75.6 -0.05 75.55 1.1 75.65 0.6 75.85 0.45 75.95 1.5 75.55 2.75 75.15 3.95 74.1 4.9 75.0 3.9 75.25 2.65 L74.25 3.9 73.0 5.4 71.7 6.3 Q72.0 6.65 72.35 6.6 L72.9 6.7 72.5 7.5 70.3 8.6 69.1 8.75 67.85 8.5 65.55 8.6 66.15 8.1 64.2 8.2 Q63.15 8.15 61.9 8.8 62.1 9.2 62.85 9.15 L64.3 9.1 63.45 9.25 61.95 9.15 Q61.1 9.15 60.4 9.55 L62.3 9.8 64.85 9.55 67.25 8.95 Q66.95 9.4 67.55 9.75 L60.7 10.75 53.75 11.25 47.0 11.95 48.3 12.3 47.7 12.4 46.6 12.6 Q46.1 12.7 46.35 13.1 45.9 12.65 44.65 12.85 L41.95 13.0 Q41.7 13.3 42.2 13.45 L43.35 13.65 44.35 13.8 Q44.7 13.85 44.2 14.1 L40.3 13.75 35.9 13.15 31.35 13.05 32.2 13.35 32.9 13.55 29.65 12.95 26.45 12.3 Q24.95 12.1 23.9 12.75 L26.2 13.45 28.55 14.15 26.9 14.5 27.95 15.1 25.55 14.85 24.5 13.95 Q24.15 13.45 23.2 13.05 L20.95 13.95 15.2 14.15 Q12.45 13.85 10.45 13.05 L9.2 13.1 7.9 13.35 Q7.4 13.55 7.95 13.9 L9.8 14.8 11.85 15.4 15.05 15.55 Q15.2 15.15 14.5 15.0 L13.25 14.8 Q12.65 14.75 13.15 14.7 L16.3 14.55 19.2 14.8 14.85 14.8 Q14.9 15.35 15.35 15.35 L16.45 15.2 17.45 15.35 Q16.85 15.8 15.9 15.8 L13.95 15.7 12.05 15.9 12.35 15.95 9.85 15.95 8.3 15.9 5.8 15.65 Q5.7 15.0 6.5 14.9 L8.6 14.55 2.45 14.25 -4.15 13.9 Q-7.45 13.85 -10.35 14.65 L-6.95 15.55 -9.4 15.45 -11.65 15.4 Q-12.6 15.45 -12.55 16.05 L-11.1 16.0 Q-10.75 16.1 -10.65 16.35 L-9.95 16.7 -9.8 16.55 -9.15 16.7 Q-8.8 16.8 -9.2 16.95 -10.6 16.45 -12.5 16.15 L-16.0 15.5 Q-15.6 15.65 -15.9 15.8 L-16.65 16.1 -17.3 16.35 Q-18.25 16.2 -18.2 16.05 L-17.7 15.75 -17.15 15.4 -19.05 15.0 -20.8 15.15 Q-21.5 15.4 -21.0 15.55 L-19.65 15.95 Q-18.8 16.1 -18.5 16.35 L-24.45 15.15 -24.3 15.3 -25.25 15.0 -26.3 14.95 Q-26.7 15.25 -26.05 15.4 L-24.65 15.55 -27.55 15.25 -30.15 14.5 -32.8 14.65 -34.5 14.05 -34.8 14.25 -34.7 14.45 -36.35 13.75 -38.05 13.55 Q-38.25 13.8 -38.1 14.15 -38.0 14.55 -38.45 14.65 L-39.5 14.8 Q-39.9 14.95 -39.45 15.15 L-42.75 13.95 Q-43.4 13.4 -44.8 12.8 L-47.3 11.5 Q-48.4 10.8 -48.25 10.05 L-49.4 10.0 Q-49.8 10.05 -49.6 10.3 L-50.65 10.1 -50.85 10.45 Q-50.9 10.65 -51.35 10.65 L-53.2 10.15 -53.0 10.45 -52.3 10.8 -53.4 10.35 -53.8 10.0 -54.3 10.45 Q-54.25 10.05 -55.1 9.7 L-56.7 9.15 -55.7 10.6 Q-56.2 10.0 -56.85 9.7 L-58.65 8.9 -57.85 9.95 -58.95 9.15 -59.05 8.65 -59.35 8.2 -60.85 7.6 -57.8 8.5 Q-59.3 7.6 -59.65 7.05 L-60.0 6.0 Q-60.0 5.55 -60.5 4.95 L-63.6 2.65 -66.7 0.45 Q-68.1 -0.75 -68.5 -2.4 L-69.2 -2.1 -70.2 -2.2 -68.5 0.1 Q-67.85 1.05 -67.6 2.05 -66.45 3.3 -65.9 3.45 L-64.9 3.35 -63.9 3.3 Q-63.3 3.5 -62.1 4.95 L-63.45 4.8 -65.0 3.45 Q-65.3 3.85 -64.75 4.65 L-63.6 6.2 Q-64.75 5.25 -66.2 4.35 L-69.0 2.5 -71.05 0.9 -72.2 -1.1 -73.65 -3.15 -73.75 -4.0 -73.9 -5.85 -73.8 -7.35 Q-73.6 -7.85 -73.05 -7.25 -72.65 -8.8 -72.6 -9.6 -72.55 -10.45 -72.15 -10.9 -71.7 -11.4 -70.1 -11.85 -70.8 -12.0 -70.45 -12.35 L-69.7 -13.05 Q-69.3 -13.4 -70.05 -13.45 -70.35 -13.0 -71.15 -12.6 L-73.0 -11.45 Q-74.15 -10.75 -74.9 -9.3 -75.7 -7.85 -75.7 -6.65 -76.0 -8.15 -75.5 -9.6 -75.05 -11.05 -74.2 -12.15 L-72.45 -13.85 Q-73.0 -13.3 -72.65 -13.35 L-71.7 -13.55 -70.7 -13.85 -70.3 -14.85 -68.4 -14.95 -65.35 -16.05 -62.1 -16.9 Q-60.5 -17.15 -59.5 -16.45 L-61.4 -16.1 Q-62.25 -15.9 -62.9 -16.45 -63.85 -16.1 -63.9 -15.8 -63.95 -15.55 -63.6 -15.35 L-63.1 -14.9 Q-62.85 -14.65 -63.25 -14.35 L-58.65 -14.7 -53.6 -15.1 -48.85 -14.55 -49.9 -14.95 -51.1 -15.2 -51.8 -15.7 -48.4 -15.6 -44.8 -14.75 -41.1 -13.85 -41.75 -14.8 -40.2 -14.45 -39.55 -14.6 -38.9 -14.8 -37.2 -14.75 -37.45 -14.45 Q-37.55 -14.3 -37.0 -14.25 L-35.7 -14.45 -35.7 -14.9 Q-35.75 -15.15 -34.95 -15.25 -33.7 -14.7 -33.2 -14.7 L-32.3 -15.0 -31.3 -15.4 -29.05 -15.25 -29.35 -15.6 -25.75 -15.4 -21.9 -15.9 -18.15 -16.35 -19.05 -16.2 -20.3 -16.0 Q-20.9 -15.85 -20.8 -15.4 L-16.25 -15.2 -15.6 -15.4 -14.9 -15.65 Q-14.7 -15.8 -15.25 -16.0 L-16.15 -16.0 -16.9 -15.85 -16.3 -16.35 -14.55 -15.95 Q-14.35 -15.7 -14.85 -15.4 L-15.9 -14.8 -16.5 -14.15 -13.95 -14.0 -11.95 -13.65 Q-11.7 -14.1 -12.3 -14.3 L-13.4 -14.8 Q-13.8 -15.05 -12.95 -15.5 L-10.85 -15.7 -7.95 -15.35 -5.65 -14.65 Q-4.8 -15.4 -3.4 -15.6 L-0.5 -15.9 2.05 -16.05 Q3.05 -16.2 3.15 -16.65 L3.55 -16.4 4.85 -16.35 4.2 -16.75 Q5.7 -17.05 6.5 -16.75 L7.8 -16.05 Q8.35 -15.65 9.25 -15.8 L8.9 -16.15 Q8.55 -16.25 8.3 -16.5 L12.05 -16.25 15.4 -15.55 19.1 -15.65 M13.9 -15.35 Q13.25 -15.4 12.95 -14.9 L15.85 -14.55 16.7 -14.75 Q17.15 -14.75 16.9 -15.05 L15.4 -15.15 13.9 -15.35" fill="#d70000" fill-rule="evenodd" stroke="none"/>
    </g>
  </defs>
</svg>
