<?xml version="1.0" encoding="UTF-8" standalone="no"?>
<svg xmlns:xlink="http://www.w3.org/1999/xlink" height="344.7950000000001px" width="736.8900000000001px" xmlns="http://www.w3.org/2000/svg">
  <g transform="matrix(1.1, 0.0, 0.0, 1.1, -16.72, -80.85)">
    <path d="M24.2 351.8 L24.2 356.7 19.35 356.7 19.35 351.8 24.2 351.8" fill="#000000" fill-rule="evenodd" stroke="none"/>
    <path d="M24.2 364.55 L24.2 369.45 19.35 369.45 19.35 364.55 24.2 364.55" fill="#000000" fill-rule="evenodd" stroke="none"/>
    <path d="M111.5 370.8 L132.55 370.0 132.55 369.95 144.95 370.55 148.4 370.8 158.95 371.1 Q159.2 371.4 159.6 371.5 160.5 371.75 161.2 372.25 L161.45 372.7 161.2 373.3 161.1 373.4 159.7 373.35 159.05 373.2 158.25 372.85 158.1 372.75 146.3 372.3 139.0 371.9 Q135.8 371.6 132.7 371.8 126.2 372.25 119.7 372.1 110.85 372.65 101.95 372.6 L101.1 372.75 101.05 372.85 Q100.15 373.4 99.05 373.2 L98.8 373.05 98.6 372.9 98.45 372.7 98.4 372.55 98.35 372.4 98.35 372.1 98.45 371.95 98.75 371.65 98.95 371.55 100.0 371.4 Q102.9 370.05 106.45 370.55 L111.5 370.8 M152.1 375.3 L152.4 375.7 154.75 378.65 154.85 378.8 155.65 379.7 155.8 379.75 156.15 379.9 Q157.35 380.55 157.9 381.6 L157.9 381.75 157.8 381.95 157.5 382.35 157.35 382.4 Q156.15 382.35 155.2 381.55 L154.4 380.75 153.1 379.1 152.55 378.6 152.2 378.2 151.95 378.1 151.95 378.25 152.2 379.2 152.15 381.6 152.2 381.9 152.6 384.8 152.6 384.9 154.7 385.15 154.85 385.25 154.9 385.3 156.15 385.2 156.3 385.15 156.4 385.05 157.9 385.15 158.1 385.25 158.15 385.3 187.5 383.75 191.85 383.55 192.3 380.05 192.4 378.75 193.1 369.35 Q193.45 364.35 194.1 359.4 L194.45 354.0 194.6 353.85 194.75 353.7 196.55 352.6 196.65 352.55 197.7 352.4 198.75 352.15 200.6 352.15 205.95 352.25 206.1 352.35 206.2 352.4 207.7 352.6 207.85 352.75 207.9 352.95 207.9 353.1 207.8 353.55 207.7 353.7 207.5 353.9 207.35 354.0 Q202.3 353.15 197.35 354.25 L197.2 354.4 197.05 354.5 196.95 354.55 196.35 354.7 196.0 354.85 195.9 358.35 195.25 363.45 Q194.25 370.0 194.1 376.7 L193.85 381.5 193.6 383.9 Q193.5 384.65 193.05 385.2 L159.55 386.8 159.4 386.9 159.3 386.95 157.6 386.85 157.35 386.75 157.3 386.7 157.0 386.8 156.85 386.9 156.75 386.95 154.2 386.9 154.0 386.75 153.95 386.7 151.85 386.6 Q151.4 386.3 151.25 385.8 L150.6 383.15 150.55 382.3 Q150.7 380.55 150.35 378.95 L150.2 379.05 150.05 379.2 148.1 381.75 147.35 381.75 147.15 381.6 147.05 381.45 146.95 381.3 146.95 381.15 146.95 380.95 146.95 380.5 147.05 380.35 147.75 379.35 149.25 377.0 149.45 376.65 Q150.05 375.7 151.0 375.1 L151.1 375.1 151.95 375.1 152.1 375.3" fill="#cc0000" fill-rule="evenodd" stroke="none"/>
    <path d="M685.1 162.0 L197.0 162.0 197.0 168.55 685.1 168.55 685.1 204.5 197.0 204.5 197.0 211.05 685.1 211.05 685.1 247.0 197.0 247.0 197.0 253.55 685.1 253.55 685.1 289.5 197.0 289.5 197.0 296.05 685.1 296.05 685.1 332.0 197.0 332.0 197.0 333.75 15.2 333.75 15.2 85.3 196.7 85.3 685.1 85.3 685.1 121.25 197.0 121.25 197.0 126.0 685.1 126.0 685.1 162.0" fill="#000000" fill-opacity="0.4" fill-rule="evenodd" stroke="none"/>
    <path d="M665.2 80.55 L665.2 79.25 664.1 79.25 664.1 80.55 665.2 80.55 M649.2 80.55 L649.2 79.25 648.1 79.25 648.1 80.55 649.2 80.55 M656.1 79.25 L656.1 80.55 657.2 80.55 657.2 79.25 656.1 79.25 M683.75 77.65 L683.25 76.85 682.45 76.65 681.6 76.85 681.1 77.65 Q680.95 78.2 680.95 79.15 680.95 80.15 681.1 80.7 L681.6 81.45 682.45 81.7 683.25 81.45 683.75 80.7 683.9 79.15 683.75 77.65 M683.75 74.35 Q684.65 75.25 684.65 76.5 L684.65 85.25 196.15 85.25 196.15 76.5 Q196.15 75.35 197.0 74.35 198.0 73.5 199.15 73.5 L681.65 73.5 Q682.9 73.5 683.75 74.35 M678.95 76.65 Q678.3 76.65 677.95 77.0 677.6 77.35 677.5 77.95 677.35 78.6 677.35 79.3 677.35 80.05 677.5 80.55 L677.9 81.4 Q678.25 81.7 678.85 81.7 679.65 81.7 680.0 81.2 680.4 80.75 680.4 79.9 L680.2 79.05 679.8 78.55 679.15 78.4 678.6 78.55 678.2 78.9 678.15 78.9 678.2 78.35 678.3 77.8 678.5 77.35 678.95 77.2 679.3 77.3 679.45 77.55 679.5 77.85 680.3 77.85 Q680.3 77.25 679.95 76.95 679.6 76.65 678.95 76.65 M679.6 80.1 L679.55 80.6 679.3 81.0 678.95 81.15 678.55 81.0 678.3 80.65 678.25 80.1 678.3 79.55 678.5 79.15 Q678.65 79.0 678.95 79.0 679.25 79.0 679.45 79.3 L679.6 80.1 M683.05 80.3 L682.85 80.95 Q682.7 81.15 682.45 81.15 682.15 81.15 682.0 80.95 L681.8 80.3 681.75 79.15 681.8 78.0 682.0 77.4 Q682.15 77.2 682.45 77.2 L682.85 77.4 683.05 78.0 683.1 79.15 683.05 80.3 M672.1 79.25 L672.1 80.55 673.2 80.55 673.2 79.25 672.1 79.25 M577.2 79.25 L576.1 79.25 576.1 80.55 577.2 80.55 577.2 79.25 M585.2 80.55 L585.2 79.25 584.1 79.25 584.1 80.55 585.2 80.55 M569.2 80.55 L569.2 79.25 568.1 79.25 568.1 80.55 569.2 80.55 M603.3 77.05 L602.5 76.85 601.65 77.05 Q601.35 77.3 601.15 77.85 601.0 78.4 601.0 79.35 601.0 80.35 601.15 80.9 601.35 81.45 601.65 81.65 L602.5 81.9 603.3 81.65 603.8 80.9 603.95 79.35 603.8 77.85 603.3 77.05 M602.9 77.6 L603.1 78.2 603.15 79.35 603.1 80.5 602.9 81.15 602.5 81.35 Q602.2 81.35 602.05 81.15 L601.85 80.5 601.8 79.35 601.85 78.2 602.05 77.6 Q602.2 77.4 602.5 77.4 L602.9 77.6 M598.65 78.6 Q598.4 78.7 598.25 78.9 L598.4 77.6 600.2 77.6 600.2 76.95 597.8 76.95 597.55 79.55 598.25 79.55 598.5 79.25 Q598.65 79.1 598.9 79.1 L599.3 79.25 599.55 79.65 599.6 80.15 599.55 80.7 599.3 81.15 598.9 81.3 598.5 81.2 598.3 80.95 598.25 80.6 598.25 80.45 597.5 80.45 597.5 80.55 Q597.5 81.25 597.85 81.55 598.2 81.9 598.85 81.9 L599.75 81.65 600.25 81.05 600.4 80.15 600.35 79.55 600.1 79.05 599.75 78.65 599.1 78.5 598.65 78.6 M593.2 79.25 L592.1 79.25 592.1 80.55 593.2 80.55 593.2 79.25 M625.2 80.55 L625.2 79.25 624.1 79.25 624.1 80.55 625.2 80.55 M609.2 80.55 L609.2 79.25 608.1 79.25 608.1 80.55 609.2 80.55 M617.2 80.55 L617.2 79.25 616.1 79.25 616.1 80.55 617.2 80.55 M643.8 77.5 L641.4 77.5 641.15 80.1 641.85 80.1 642.1 79.8 Q642.25 79.65 642.5 79.65 642.8 79.65 642.9 79.8 L643.15 80.2 643.2 80.7 643.15 81.25 642.9 81.7 642.5 81.85 642.1 81.75 641.9 81.5 641.85 81.15 641.85 81.0 641.1 81.0 641.1 81.1 Q641.1 81.8 641.45 82.1 641.8 82.45 642.45 82.45 L643.35 82.2 643.85 81.6 644.0 80.7 643.95 80.1 643.7 79.6 643.35 79.2 642.7 79.05 642.25 79.15 641.85 79.45 642.0 78.15 643.8 78.15 643.8 77.5 M640.25 77.5 L637.85 77.5 637.6 80.1 638.3 80.1 638.55 79.8 Q638.7 79.65 638.95 79.65 639.25 79.65 639.35 79.8 L639.6 80.2 639.65 80.7 639.6 81.25 639.35 81.7 638.95 81.85 638.55 81.75 638.35 81.5 638.3 81.15 638.3 81.0 637.55 81.0 637.55 81.1 Q637.55 81.8 637.9 82.1 L638.9 82.45 639.8 82.2 640.3 81.6 640.45 80.7 640.4 80.1 640.15 79.6 639.8 79.2 639.15 79.05 638.7 79.15 638.3 79.45 638.45 78.15 640.25 78.15 640.25 77.5 M633.2 79.25 L632.1 79.25 632.1 80.55 633.2 80.55 633.2 79.25 M505.2 79.25 L504.1 79.25 504.1 80.55 505.2 80.55 505.2 79.25 M497.2 79.25 L496.1 79.25 496.1 80.55 497.2 80.55 497.2 79.25 M489.2 79.25 L488.1 79.25 488.1 80.55 489.2 80.55 489.2 79.25 M522.25 77.05 L521.4 77.25 Q521.1 77.5 520.9 78.05 520.75 78.6 520.75 79.55 520.75 80.55 520.9 81.1 L521.4 81.85 522.25 82.1 523.05 81.85 523.55 81.1 523.7 79.55 523.55 78.05 523.05 77.25 522.25 77.05 M521.6 78.4 L521.8 77.8 Q521.95 77.6 522.25 77.6 L522.65 77.8 522.85 78.4 522.9 79.55 522.85 80.7 522.65 81.35 Q522.5 81.55 522.25 81.55 521.95 81.55 521.8 81.35 L521.6 80.7 521.55 79.55 521.6 78.4 M517.8 80.25 L518.9 78.2 518.9 80.25 517.8 80.25 M519.65 80.25 L519.65 77.05 518.85 77.05 517.15 80.2 517.15 80.9 518.9 80.9 518.9 82.0 519.65 82.0 519.65 80.9 520.2 80.9 520.2 80.25 519.65 80.25 M513.2 80.55 L513.2 79.25 512.1 79.25 512.1 80.55 513.2 80.55 M545.2 79.25 L544.1 79.25 544.1 80.55 545.2 80.55 545.2 79.25 M537.2 79.25 L536.1 79.25 536.1 80.55 537.2 80.55 537.2 79.25 M529.2 79.25 L528.1 79.25 528.1 80.55 529.2 80.55 529.2 79.25 M562.5 78.75 L562.05 78.85 Q561.8 78.95 561.65 79.15 L561.8 77.85 563.6 77.85 563.6 77.2 561.2 77.2 560.95 79.8 561.65 79.8 561.9 79.5 Q562.05 79.35 562.3 79.35 562.6 79.35 562.7 79.5 L562.95 79.9 563.0 80.4 562.95 80.95 562.7 81.4 562.3 81.55 561.9 81.45 561.7 81.2 561.65 80.85 561.65 80.7 560.9 80.7 560.9 80.8 Q560.9 81.5 561.25 81.8 561.6 82.15 562.25 82.15 L563.15 81.9 563.65 81.3 563.8 80.4 563.75 79.8 563.5 79.3 563.15 78.9 562.5 78.75 M557.9 80.3 L559.0 78.25 559.0 80.3 557.9 80.3 M559.75 80.3 L559.75 77.1 558.95 77.1 557.25 80.25 557.25 80.95 559.0 80.95 559.0 82.05 559.75 82.05 559.75 80.95 560.3 80.95 560.3 80.3 559.75 80.3 M553.2 80.55 L553.2 79.25 552.1 79.25 552.1 80.55 553.2 80.55 M425.2 79.25 L424.1 79.25 424.1 80.55 425.2 80.55 425.2 79.25 M417.2 79.25 L416.1 79.25 416.1 80.55 417.2 80.55 417.2 79.25 M409.2 79.25 L408.1 79.25 408.1 80.55 409.2 80.55 409.2 79.25 M441.25 76.9 Q440.95 77.15 440.75 77.7 440.6 78.25 440.6 79.2 440.6 80.2 440.75 80.75 L441.25 81.5 442.1 81.75 442.9 81.5 443.4 80.75 443.55 79.2 443.4 77.7 442.9 76.9 442.1 76.7 441.25 76.9 M441.4 79.2 L441.45 78.05 441.65 77.45 Q441.8 77.25 442.1 77.25 L442.5 77.45 442.7 78.05 442.75 79.2 442.7 80.35 442.5 81.0 442.1 81.2 Q441.8 81.2 441.65 81.0 L441.45 80.35 441.4 79.2 M438.55 76.7 Q437.85 76.7 437.5 77.05 437.1 77.45 437.1 78.1 L437.9 78.1 437.95 77.7 438.15 77.4 Q438.25 77.25 438.5 77.25 L438.85 77.35 439.05 77.6 439.1 77.95 438.95 78.55 438.35 78.8 438.1 78.8 438.1 79.35 438.4 79.35 Q438.85 79.35 439.0 79.6 L439.2 80.3 439.15 80.75 438.9 81.05 438.5 81.2 438.1 81.05 437.9 80.7 437.8 80.25 437.05 80.25 Q437.05 81.05 437.45 81.4 437.8 81.75 438.5 81.75 439.25 81.75 439.6 81.35 440.0 80.95 440.0 80.2 L439.75 79.4 439.1 79.05 439.5 78.85 439.8 78.45 439.9 77.95 439.65 77.2 439.15 76.8 438.55 76.7 M433.2 80.55 L433.2 79.25 432.1 79.25 432.1 80.55 433.2 80.55 M465.2 79.25 L464.1 79.25 464.1 80.55 465.2 80.55 465.2 79.25 M457.2 79.25 L456.1 79.25 456.1 80.55 457.2 80.55 457.2 79.25 M449.2 79.25 L448.1 79.25 448.1 80.55 449.2 80.55 449.2 79.25 M483.4 77.35 L481.0 77.35 480.75 79.95 481.45 79.95 481.7 79.65 Q481.85 79.5 482.1 79.5 482.4 79.5 482.5 79.65 L482.75 80.05 482.8 80.55 482.75 81.1 482.5 81.55 482.1 81.7 481.7 81.6 481.5 81.35 481.45 81.0 481.45 80.85 480.7 80.85 480.7 80.95 Q480.7 81.65 481.05 81.95 L482.05 82.3 482.95 82.05 483.45 81.45 483.6 80.55 483.55 79.95 483.3 79.45 482.95 79.05 482.3 78.9 481.85 79.0 481.45 79.3 481.6 78.0 483.4 78.0 483.4 77.35 M477.15 78.65 L477.95 78.65 478.0 78.25 478.2 77.95 Q478.3 77.8 478.55 77.8 L478.9 77.9 479.1 78.15 479.15 78.5 479.0 79.1 478.4 79.35 478.15 79.35 478.15 79.9 478.45 79.9 Q478.9 79.9 479.05 80.15 L479.25 80.85 479.2 81.3 478.95 81.6 478.55 81.75 478.15 81.6 477.95 81.25 477.85 80.8 477.1 80.8 Q477.1 81.6 477.5 81.95 477.85 82.3 478.55 82.3 479.3 82.3 479.65 81.9 480.05 81.5 480.05 80.75 L479.8 79.95 Q479.55 79.65 479.15 79.6 L479.55 79.4 479.85 79.0 479.95 78.5 479.7 77.75 479.2 77.35 478.6 77.25 Q477.9 77.25 477.55 77.6 477.15 78.0 477.15 78.65 M473.2 80.55 L473.2 79.25 472.1 79.25 472.1 80.55 473.2 80.55 M337.2 79.25 L336.1 79.25 336.1 80.55 337.2 80.55 337.2 79.25 M344.1 80.55 L345.2 80.55 345.2 79.25 344.1 79.25 344.1 80.55 M329.2 79.25 L328.1 79.25 328.1 80.55 329.2 80.55 329.2 79.25 M362.45 76.9 L361.6 77.1 361.1 77.9 Q360.95 78.45 360.95 79.4 360.95 80.4 361.1 80.95 L361.6 81.7 362.45 81.95 363.25 81.7 363.75 80.95 363.9 79.4 363.75 77.9 363.25 77.1 362.45 76.9 M361.8 78.25 L362.0 77.65 Q362.15 77.45 362.45 77.45 L362.85 77.65 363.05 78.25 363.1 79.4 363.05 80.55 362.85 81.2 Q362.7 81.4 362.45 81.4 362.15 81.4 362.0 81.2 L361.8 80.55 361.75 79.4 361.8 78.25 M359.5 78.2 L359.3 78.95 358.8 79.55 358.15 80.1 357.65 80.8 357.45 81.85 360.35 81.85 360.35 81.2 358.3 81.2 358.65 80.55 359.2 80.1 359.7 79.6 360.15 79.05 360.3 78.2 360.15 77.55 359.7 77.1 358.9 76.9 Q358.1 76.9 357.8 77.3 357.45 77.75 357.45 78.5 L358.2 78.5 358.25 78.0 358.45 77.6 Q358.6 77.45 358.9 77.45 L359.25 77.55 359.45 77.85 359.5 78.2 M353.2 80.55 L353.2 79.25 352.1 79.25 352.1 80.55 353.2 80.55 M377.2 79.25 L376.1 79.25 376.1 80.55 377.2 80.55 377.2 79.25 M384.1 80.55 L385.2 80.55 385.2 79.25 384.1 79.25 384.1 80.55 M369.2 79.25 L368.1 79.25 368.1 80.55 369.2 80.55 369.2 79.25 M402.0 77.7 L403.8 77.7 403.8 77.05 401.4 77.05 401.15 79.65 401.85 79.65 402.1 79.35 Q402.25 79.2 402.5 79.2 402.8 79.2 402.9 79.35 L403.15 79.75 403.2 80.25 403.15 80.8 402.9 81.25 402.5 81.4 402.1 81.3 401.9 81.05 401.85 80.7 401.85 80.55 401.1 80.55 401.1 80.65 Q401.1 81.35 401.45 81.65 401.8 82.0 402.45 82.0 L403.35 81.75 403.85 81.15 404.0 80.25 403.95 79.65 403.7 79.15 403.35 78.75 402.7 78.6 402.25 78.7 401.85 79.0 402.0 77.7 M400.25 77.6 L399.8 77.15 399.0 76.95 Q398.2 76.95 397.9 77.35 397.55 77.8 397.55 78.55 L398.3 78.55 398.35 78.05 398.55 77.65 Q398.7 77.5 399.0 77.5 L399.35 77.6 399.55 77.9 399.6 78.25 399.4 79.0 398.9 79.6 398.25 80.15 397.75 80.85 397.55 81.9 400.45 81.9 400.45 81.25 398.4 81.25 398.75 80.6 399.3 80.15 399.8 79.65 400.25 79.1 400.4 78.25 400.25 77.6 M393.2 80.55 L393.2 79.25 392.1 79.25 392.1 80.55 393.2 80.55 M249.2 80.55 L249.2 79.25 248.1 79.25 248.1 80.55 249.2 80.55 M257.2 80.55 L257.2 79.25 256.1 79.25 256.1 80.55 257.2 80.55 M282.15 77.05 L281.3 77.25 Q281.0 77.5 280.8 78.05 280.65 78.6 280.65 79.55 280.65 80.55 280.8 81.1 281.0 81.65 281.3 81.85 L282.15 82.1 282.95 81.85 283.45 81.1 283.6 79.55 283.45 78.05 282.95 77.25 282.15 77.05 M278.75 77.15 L278.5 77.6 278.1 77.85 277.6 77.9 277.5 77.9 277.5 78.4 278.55 78.4 278.55 82.0 279.35 82.0 279.35 77.05 278.75 77.05 278.75 77.15 M281.5 78.4 L281.7 77.8 Q281.85 77.6 282.15 77.6 L282.55 77.8 282.75 78.4 282.8 79.55 282.75 80.7 282.55 81.35 Q282.4 81.55 282.15 81.55 281.85 81.55 281.7 81.35 L281.5 80.7 281.45 79.55 281.5 78.4 M265.2 80.55 L265.2 79.25 264.1 79.25 264.1 80.55 265.2 80.55 M273.2 80.55 L273.2 79.25 272.1 79.25 272.1 80.55 273.2 80.55 M289.2 80.55 L289.2 79.25 288.1 79.25 288.1 80.55 289.2 80.55 M297.2 80.55 L297.2 79.25 296.1 79.25 296.1 80.55 297.2 80.55 M323.8 76.65 L321.4 76.65 321.15 79.3 321.85 79.3 322.1 79.0 Q322.25 78.85 322.55 78.85 322.8 78.85 322.95 79.0 L323.15 79.4 323.2 79.9 323.15 80.45 322.9 80.9 322.5 81.05 322.1 80.95 321.9 80.7 321.85 80.35 321.85 80.2 321.1 80.2 321.1 80.3 Q321.1 80.95 321.45 81.3 L322.45 81.65 323.35 81.4 323.85 80.8 324.0 79.9 323.95 79.3 323.75 78.8 323.35 78.4 322.7 78.25 322.25 78.35 321.85 78.65 321.85 78.6 322.0 77.3 323.8 77.3 323.8 76.65 M318.95 76.55 L318.95 76.65 318.7 77.15 318.3 77.35 317.8 77.4 317.7 77.4 317.7 77.95 318.75 77.95 318.75 81.55 319.55 81.55 319.55 76.55 318.95 76.55 M305.2 80.55 L305.2 79.25 304.1 79.25 304.1 80.55 305.2 80.55 M313.2 80.55 L313.2 79.25 312.1 79.25 312.1 80.55 313.2 80.55 M200.25 76.8 L199.4 77.0 Q199.1 77.25 198.9 77.8 198.75 78.35 198.75 79.3 198.75 80.3 198.9 80.85 199.1 81.4 199.4 81.6 L200.25 81.85 201.05 81.6 201.55 80.85 201.7 79.3 201.55 77.8 201.05 77.0 200.25 76.8 M199.8 77.55 Q199.95 77.35 200.25 77.35 L200.65 77.55 200.85 78.15 200.9 79.3 200.85 80.45 200.65 81.1 Q200.5 81.3 200.25 81.3 199.95 81.3 199.8 81.1 L199.6 80.45 199.55 79.3 199.6 78.15 199.8 77.55 M209.2 80.55 L209.2 79.25 208.1 79.25 208.1 80.55 209.2 80.55 M217.2 80.55 L217.2 79.25 216.1 79.25 216.1 80.55 217.2 80.55 M239.35 78.85 L238.95 79.15 239.1 77.85 240.9 77.85 240.9 77.2 238.5 77.2 238.25 79.8 238.95 79.8 239.2 79.5 239.6 79.35 Q239.9 79.35 240.0 79.5 L240.25 79.9 240.3 80.4 240.25 80.95 240.0 81.4 239.6 81.55 239.2 81.45 239.0 81.2 238.95 80.85 238.95 80.7 238.2 80.7 238.2 80.8 Q238.2 81.5 238.55 81.8 238.9 82.15 239.55 82.15 L240.45 81.9 240.95 81.3 241.1 80.4 241.05 79.8 240.8 79.3 240.45 78.9 239.8 78.75 239.35 78.85 M233.2 79.25 L232.1 79.25 232.1 80.55 233.2 80.55 233.2 79.25 M225.2 80.55 L225.2 79.25 224.1 79.25 224.1 80.55 225.2 80.55" fill="#000000" fill-opacity="0.6" fill-rule="evenodd" stroke="none"/>
    <path d="M656.1 79.25 L657.2 79.25 657.2 80.55 656.1 80.55 656.1 79.25 M649.2 80.55 L648.1 80.55 648.1 79.25 649.2 79.25 649.2 80.55 M665.2 80.55 L664.1 80.55 664.1 79.25 665.2 79.25 665.2 80.55 M569.2 80.55 L568.1 80.55 568.1 79.25 569.2 79.25 569.2 80.55 M585.2 80.55 L584.1 80.55 584.1 79.25 585.2 79.25 585.2 80.55 M577.2 79.25 L577.2 80.55 576.1 80.55 576.1 79.25 577.2 79.25 M672.1 79.25 L673.2 79.25 673.2 80.55 672.1 80.55 672.1 79.25 M617.2 80.55 L616.1 80.55 616.1 79.25 617.2 79.25 617.2 80.55 M609.2 80.55 L608.1 80.55 608.1 79.25 609.2 79.25 609.2 80.55 M625.2 80.55 L624.1 80.55 624.1 79.25 625.2 79.25 625.2 80.55 M593.2 79.25 L593.2 80.55 592.1 80.55 592.1 79.25 593.2 79.25 M489.2 79.25 L489.2 80.55 488.1 80.55 488.1 79.25 489.2 79.25 M497.2 79.25 L497.2 80.55 496.1 80.55 496.1 79.25 497.2 79.25 M505.2 79.25 L505.2 80.55 504.1 80.55 504.1 79.25 505.2 79.25 M633.2 79.25 L633.2 80.55 632.1 80.55 632.1 79.25 633.2 79.25 M529.2 79.25 L529.2 80.55 528.1 80.55 528.1 79.25 529.2 79.25 M537.2 79.25 L537.2 80.55 536.1 80.55 536.1 79.25 537.2 79.25 M545.2 79.25 L545.2 80.55 544.1 80.55 544.1 79.25 545.2 79.25 M513.2 80.55 L512.1 80.55 512.1 79.25 513.2 79.25 513.2 80.55 M409.2 79.25 L409.2 80.55 408.1 80.55 408.1 79.25 409.2 79.25 M417.2 79.25 L417.2 80.55 416.1 80.55 416.1 79.25 417.2 79.25 M425.2 79.25 L425.2 80.55 424.1 80.55 424.1 79.25 425.2 79.25 M553.2 80.55 L552.1 80.55 552.1 79.25 553.2 79.25 553.2 80.55 M449.2 79.25 L449.2 80.55 448.1 80.55 448.1 79.25 449.2 79.25 M457.2 79.25 L457.2 80.55 456.1 80.55 456.1 79.25 457.2 79.25 M465.2 79.25 L465.2 80.55 464.1 80.55 464.1 79.25 465.2 79.25 M433.2 80.55 L432.1 80.55 432.1 79.25 433.2 79.25 433.2 80.55 M329.2 79.25 L329.2 80.55 328.1 80.55 328.1 79.25 329.2 79.25 M344.1 80.55 L344.1 79.25 345.2 79.25 345.2 80.55 344.1 80.55 M337.2 79.25 L337.2 80.55 336.1 80.55 336.1 79.25 337.2 79.25 M473.2 80.55 L472.1 80.55 472.1 79.25 473.2 79.25 473.2 80.55 M369.2 79.25 L369.2 80.55 368.1 80.55 368.1 79.25 369.2 79.25 M384.1 80.55 L384.1 79.25 385.2 79.25 385.2 80.55 384.1 80.55 M377.2 79.25 L377.2 80.55 376.1 80.55 376.1 79.25 377.2 79.25 M353.2 80.55 L352.1 80.55 352.1 79.25 353.2 79.25 353.2 80.55 M257.2 80.55 L256.1 80.55 256.1 79.25 257.2 79.25 257.2 80.55 M249.2 80.55 L248.1 80.55 248.1 79.25 249.2 79.25 249.2 80.55 M393.2 80.55 L392.1 80.55 392.1 79.25 393.2 79.25 393.2 80.55 M297.2 80.55 L296.1 80.55 296.1 79.25 297.2 79.25 297.2 80.55 M289.2 80.55 L288.1 80.55 288.1 79.25 289.2 79.25 289.2 80.55 M273.2 80.55 L272.1 80.55 272.1 79.25 273.2 79.25 273.2 80.55 M265.2 80.55 L264.1 80.55 264.1 79.25 265.2 79.25 265.2 80.55 M313.2 80.55 L312.1 80.55 312.1 79.25 313.2 79.25 313.2 80.55 M305.2 80.55 L304.1 80.55 304.1 79.25 305.2 79.25 305.2 80.55 M217.2 80.55 L216.1 80.55 216.1 79.25 217.2 79.25 217.2 80.55 M209.2 80.55 L208.1 80.55 208.1 79.25 209.2 79.25 209.2 80.55 M225.2 80.55 L224.1 80.55 224.1 79.25 225.2 79.25 225.2 80.55 M233.2 79.25 L233.2 80.55 232.1 80.55 232.1 79.25 233.2 79.25" fill="#cccccc" fill-rule="evenodd" stroke="none"/>
    <path d="M683.75 77.65 L683.9 79.15 683.75 80.7 683.25 81.45 682.45 81.7 681.6 81.45 681.1 80.7 Q680.95 80.15 680.95 79.15 680.95 78.2 681.1 77.65 L681.6 76.85 682.45 76.65 683.25 76.85 683.75 77.65 M683.05 80.3 L683.1 79.15 683.05 78.0 682.85 77.4 682.45 77.2 Q682.15 77.2 682.0 77.4 L681.8 78.0 681.75 79.15 681.8 80.3 682.0 80.95 Q682.15 81.15 682.45 81.15 682.7 81.15 682.85 80.95 L683.05 80.3 M679.6 80.1 L679.45 79.3 Q679.25 79.0 678.95 79.0 678.65 79.0 678.5 79.15 L678.3 79.55 678.25 80.1 678.3 80.65 678.55 81.0 678.95 81.15 679.3 81.0 679.55 80.6 679.6 80.1 M678.95 76.65 Q679.6 76.65 679.95 76.95 680.3 77.25 680.3 77.85 L679.5 77.85 679.45 77.55 679.3 77.3 678.95 77.2 678.5 77.35 678.3 77.8 678.2 78.35 678.15 78.9 678.2 78.9 678.6 78.55 679.15 78.4 679.8 78.55 680.2 79.05 680.4 79.9 Q680.4 80.75 680.0 81.2 679.65 81.7 678.85 81.7 678.25 81.7 677.9 81.4 L677.5 80.55 Q677.35 80.05 677.35 79.3 677.35 78.6 677.5 77.95 677.6 77.35 677.95 77.0 678.3 76.65 678.95 76.65 M598.65 78.6 L599.1 78.5 599.75 78.65 600.1 79.05 600.35 79.55 600.4 80.15 600.25 81.05 599.75 81.65 598.85 81.9 Q598.2 81.9 597.85 81.55 597.5 81.25 597.5 80.55 L597.5 80.45 598.25 80.45 598.25 80.6 598.3 80.95 598.5 81.2 598.9 81.3 599.3 81.15 599.55 80.7 599.6 80.15 599.55 79.65 599.3 79.25 598.9 79.1 Q598.65 79.1 598.5 79.25 L598.25 79.55 597.55 79.55 597.8 76.95 600.2 76.95 600.2 77.6 598.4 77.6 598.25 78.9 Q598.4 78.7 598.65 78.6 M602.9 77.6 L602.5 77.4 Q602.2 77.4 602.05 77.6 L601.85 78.2 601.8 79.35 601.85 80.5 602.05 81.15 Q602.2 81.35 602.5 81.35 L602.9 81.15 603.1 80.5 603.15 79.35 603.1 78.2 602.9 77.6 M603.3 77.05 L603.8 77.85 603.95 79.35 603.8 80.9 603.3 81.65 602.5 81.9 601.65 81.65 Q601.35 81.45 601.15 80.9 601.0 80.35 601.0 79.35 601.0 78.4 601.15 77.85 601.35 77.3 601.65 77.05 L602.5 76.85 603.3 77.05 M640.25 77.5 L640.25 78.15 638.45 78.15 638.3 79.45 638.7 79.15 639.15 79.05 639.8 79.2 640.15 79.6 640.4 80.1 640.45 80.7 640.3 81.6 639.8 82.2 638.9 82.45 637.9 82.1 Q637.55 81.8 637.55 81.1 L637.55 81.0 638.3 81.0 638.3 81.15 638.35 81.5 638.55 81.75 638.95 81.85 639.35 81.7 639.6 81.25 639.65 80.7 639.6 80.2 639.35 79.8 Q639.25 79.65 638.95 79.65 638.7 79.65 638.55 79.8 L638.3 80.1 637.6 80.1 637.85 77.5 640.25 77.5 M643.8 77.5 L643.8 78.15 642.0 78.15 641.85 79.45 642.25 79.15 642.7 79.05 643.35 79.2 643.7 79.6 643.95 80.1 644.0 80.7 643.85 81.6 643.35 82.2 642.45 82.45 Q641.8 82.45 641.45 82.1 641.1 81.8 641.1 81.1 L641.1 81.0 641.85 81.0 641.85 81.15 641.9 81.5 642.1 81.75 642.5 81.85 642.9 81.7 643.15 81.25 643.2 80.7 643.15 80.2 642.9 79.8 Q642.8 79.65 642.5 79.65 642.25 79.65 642.1 79.8 L641.85 80.1 641.15 80.1 641.4 77.5 643.8 77.5 M519.65 80.25 L520.2 80.25 520.2 80.9 519.65 80.9 519.65 82.0 518.9 82.0 518.9 80.9 517.15 80.9 517.15 80.2 518.85 77.05 519.65 77.05 519.65 80.25 M517.8 80.25 L518.9 80.25 518.9 78.2 517.8 80.25 M521.6 78.4 L521.55 79.55 521.6 80.7 521.8 81.35 Q521.95 81.55 522.25 81.55 522.5 81.55 522.65 81.35 L522.85 80.7 522.9 79.55 522.85 78.4 522.65 77.8 522.25 77.6 Q521.95 77.6 521.8 77.8 L521.6 78.4 M522.25 77.05 L523.05 77.25 523.55 78.05 523.7 79.55 523.55 81.1 523.05 81.85 522.25 82.1 521.4 81.85 520.9 81.1 Q520.75 80.55 520.75 79.55 520.75 78.6 520.9 78.05 521.1 77.5 521.4 77.25 L522.25 77.05 M559.75 80.3 L560.3 80.3 560.3 80.95 559.75 80.95 559.75 82.05 559.0 82.05 559.0 80.95 557.25 80.95 557.25 80.25 558.95 77.1 559.75 77.1 559.75 80.3 M557.9 80.3 L559.0 80.3 559.0 78.25 557.9 80.3 M562.5 78.75 L563.15 78.9 563.5 79.3 563.75 79.8 563.8 80.4 563.65 81.3 563.15 81.9 562.25 82.15 Q561.6 82.15 561.25 81.8 560.9 81.5 560.9 80.8 L560.9 80.7 561.65 80.7 561.65 80.85 561.7 81.2 561.9 81.45 562.3 81.55 562.7 81.4 562.95 80.95 563.0 80.4 562.95 79.9 562.7 79.5 Q562.6 79.35 562.3 79.35 562.05 79.35 561.9 79.5 L561.65 79.8 560.95 79.8 561.2 77.2 563.6 77.2 563.6 77.85 561.8 77.85 561.65 79.15 Q561.8 78.95 562.05 78.85 L562.5 78.75 M438.55 76.7 L439.15 76.8 439.65 77.2 439.9 77.95 439.8 78.45 439.5 78.85 439.1 79.05 439.75 79.4 440.0 80.2 Q440.0 80.95 439.6 81.35 439.25 81.75 438.5 81.75 437.8 81.75 437.45 81.4 437.05 81.05 437.05 80.25 L437.8 80.25 437.9 80.7 438.1 81.05 438.5 81.2 438.9 81.05 439.15 80.75 439.2 80.3 439.0 79.6 Q438.85 79.35 438.4 79.35 L438.1 79.35 438.1 78.8 438.35 78.8 438.95 78.55 439.1 77.95 439.05 77.6 438.85 77.35 438.5 77.25 Q438.25 77.25 438.15 77.4 L437.95 77.7 437.9 78.1 437.1 78.1 Q437.1 77.45 437.5 77.05 437.85 76.7 438.55 76.7 M441.4 79.2 L441.45 80.35 441.65 81.0 Q441.8 81.2 442.1 81.2 L442.5 81.0 442.7 80.35 442.75 79.2 442.7 78.05 442.5 77.45 442.1 77.25 Q441.8 77.25 441.65 77.45 L441.45 78.05 441.4 79.2 M441.25 76.9 L442.1 76.7 442.9 76.9 443.4 77.7 443.55 79.2 443.4 80.75 442.9 81.5 442.1 81.75 441.25 81.5 440.75 80.75 Q440.6 80.2 440.6 79.2 440.6 78.25 440.75 77.7 440.95 77.15 441.25 76.9 M477.15 78.65 Q477.15 78.0 477.55 77.6 477.9 77.25 478.6 77.25 L479.2 77.35 479.7 77.75 479.95 78.5 479.85 79.0 479.55 79.4 479.15 79.6 Q479.55 79.65 479.8 79.95 L480.05 80.75 Q480.05 81.5 479.65 81.9 479.3 82.3 478.55 82.3 477.85 82.3 477.5 81.95 477.1 81.6 477.1 80.8 L477.85 80.8 477.95 81.25 478.15 81.6 478.55 81.75 478.95 81.6 479.2 81.3 479.25 80.85 479.05 80.15 Q478.9 79.9 478.45 79.9 L478.15 79.9 478.15 79.35 478.4 79.35 479.0 79.1 479.15 78.5 479.1 78.15 478.9 77.9 478.55 77.8 Q478.3 77.8 478.2 77.95 L478.0 78.25 477.95 78.65 477.15 78.65 M483.4 77.35 L483.4 78.0 481.6 78.0 481.45 79.3 481.85 79.0 482.3 78.9 482.95 79.05 483.3 79.45 483.55 79.95 483.6 80.55 483.45 81.45 482.95 82.05 482.05 82.3 481.05 81.95 Q480.7 81.65 480.7 80.95 L480.7 80.85 481.45 80.85 481.45 81.0 481.5 81.35 481.7 81.6 482.1 81.7 482.5 81.55 482.75 81.1 482.8 80.55 482.75 80.05 482.5 79.65 Q482.4 79.5 482.1 79.5 481.85 79.5 481.7 79.65 L481.45 79.95 480.75 79.95 481.0 77.35 483.4 77.35 M359.5 78.2 L359.45 77.85 359.25 77.55 358.9 77.45 Q358.6 77.45 358.45 77.6 L358.25 78.0 358.2 78.5 357.45 78.5 Q357.45 77.75 357.8 77.3 358.1 76.9 358.9 76.9 L359.7 77.1 360.15 77.55 360.3 78.2 360.15 79.05 359.7 79.6 359.2 80.1 358.65 80.55 358.3 81.2 360.35 81.2 360.35 81.85 357.45 81.85 357.65 80.8 358.15 80.1 358.8 79.55 359.3 78.95 359.5 78.2 M361.8 78.25 L361.75 79.4 361.8 80.55 362.0 81.2 Q362.15 81.4 362.45 81.4 362.7 81.4 362.85 81.2 L363.05 80.55 363.1 79.4 363.05 78.25 362.85 77.65 362.45 77.45 Q362.15 77.45 362.0 77.65 L361.8 78.25 M362.45 76.9 L363.25 77.1 363.75 77.9 363.9 79.4 363.75 80.95 363.25 81.7 362.45 81.95 361.6 81.7 361.1 80.95 Q360.95 80.4 360.95 79.4 360.95 78.45 361.1 77.9 L361.6 77.1 362.45 76.9 M400.25 77.6 L400.4 78.25 400.25 79.1 399.8 79.65 399.3 80.15 398.75 80.6 398.4 81.25 400.45 81.25 400.45 81.9 397.55 81.9 397.75 80.85 398.25 80.15 398.9 79.6 399.4 79.0 399.6 78.25 399.55 77.9 399.35 77.6 399.0 77.5 Q398.7 77.5 398.55 77.65 L398.35 78.05 398.3 78.55 397.55 78.55 Q397.55 77.8 397.9 77.35 398.2 76.95 399.0 76.95 L399.8 77.15 400.25 77.6 M402.0 77.7 L401.85 79.0 402.25 78.7 402.7 78.6 403.35 78.75 403.7 79.15 403.95 79.65 404.0 80.25 403.85 81.15 403.35 81.75 402.45 82.0 Q401.8 82.0 401.45 81.65 401.1 81.35 401.1 80.65 L401.1 80.55 401.85 80.55 401.85 80.7 401.9 81.05 402.1 81.3 402.5 81.4 402.9 81.25 403.15 80.8 403.2 80.25 403.15 79.75 402.9 79.35 Q402.8 79.2 402.5 79.2 402.25 79.2 402.1 79.35 L401.85 79.65 401.15 79.65 401.4 77.05 403.8 77.05 403.8 77.7 402.0 77.7 M281.5 78.4 L281.45 79.55 281.5 80.7 281.7 81.35 Q281.85 81.55 282.15 81.55 282.4 81.55 282.55 81.35 L282.75 80.7 282.8 79.55 282.75 78.4 282.55 77.8 282.15 77.6 Q281.85 77.6 281.7 77.8 L281.5 78.4 M278.75 77.15 L278.75 77.05 279.35 77.05 279.35 82.0 278.55 82.0 278.55 78.4 277.5 78.4 277.5 77.9 277.6 77.9 278.1 77.85 278.5 77.6 278.75 77.15 M282.15 77.05 L282.95 77.25 283.45 78.05 283.6 79.55 283.45 81.1 282.95 81.85 282.15 82.1 281.3 81.85 Q281.0 81.65 280.8 81.1 280.65 80.55 280.65 79.55 280.65 78.6 280.8 78.05 281.0 77.5 281.3 77.25 L282.15 77.05 M318.95 76.55 L319.55 76.55 319.55 81.55 318.75 81.55 318.75 77.95 317.7 77.95 317.7 77.4 317.8 77.4 318.3 77.35 318.7 77.15 318.95 76.65 318.95 76.55 M323.8 76.65 L323.8 77.3 322.0 77.3 321.85 78.6 321.85 78.65 322.25 78.35 322.7 78.25 323.35 78.4 323.75 78.8 323.95 79.3 324.0 79.9 323.85 80.8 323.35 81.4 322.45 81.65 321.45 81.3 Q321.1 80.95 321.1 80.3 L321.1 80.2 321.85 80.2 321.85 80.35 321.9 80.7 322.1 80.95 322.5 81.05 322.9 80.9 323.15 80.45 323.2 79.9 323.15 79.4 322.95 79.0 Q322.8 78.85 322.55 78.85 322.25 78.85 322.1 79.0 L321.85 79.3 321.15 79.3 321.4 76.65 323.8 76.65 M199.8 77.55 L199.6 78.15 199.55 79.3 199.6 80.45 199.8 81.1 Q199.95 81.3 200.25 81.3 200.5 81.3 200.65 81.1 L200.85 80.45 200.9 79.3 200.85 78.15 200.65 77.55 200.25 77.35 Q199.95 77.35 199.8 77.55 M200.25 76.8 L201.05 77.0 201.55 77.8 201.7 79.3 201.55 80.85 201.05 81.6 200.25 81.85 199.4 81.6 Q199.1 81.4 198.9 80.85 198.75 80.3 198.75 79.3 198.75 78.35 198.9 77.8 199.1 77.25 199.4 77.0 L200.25 76.8 M239.35 78.85 L239.8 78.75 240.45 78.9 240.8 79.3 241.05 79.8 241.1 80.4 240.95 81.3 240.45 81.9 239.55 82.15 Q238.9 82.15 238.55 81.8 238.2 81.5 238.2 80.8 L238.2 80.7 238.95 80.7 238.95 80.85 239.0 81.2 239.2 81.45 239.6 81.55 240.0 81.4 240.25 80.95 240.3 80.4 240.25 79.9 240.0 79.5 Q239.9 79.35 239.6 79.35 L239.2 79.5 238.95 79.8 238.25 79.8 238.5 77.2 240.9 77.2 240.9 77.85 239.1 77.85 238.95 79.15 239.35 78.85" fill="#ffffff" fill-rule="evenodd" stroke="none"/>
  </g>
</svg>
