<?xml version="1.0" encoding="UTF-8" standalone="no"?>
<svg xmlns:xlink="http://www.w3.org/1999/xlink" height="24.805px" width="383.13px" xmlns="http://www.w3.org/2000/svg">
  <g transform="matrix(1.1, 0.0, 0.0, 1.1, 278.905, 14.19)">
    <path d="M8.8 -11.8 Q-2.7 -11.8 8.8 -11.65 L8.8 -11.8 M58.35 -12.15 L56.05 -12.05 Q53.45 -11.75 55.7 -11.7 L66.4 -11.65 66.5 -11.55 73.05 -11.4 73.05 -11.65 74.45 -11.65 74.45 -11.55 86.45 -11.2 86.8 -10.95 87.85 -10.65 87.85 -10.45 Q85.55 -10.35 86.3 -9.7 L86.45 -9.45 86.3 -9.2 Q84.7 -7.75 87.85 -6.3 85.65 -6.35 86.3 -5.8 L86.45 -5.55 86.8 -5.35 87.85 -5.05 87.55 -4.85 Q86.25 -4.5 87.85 -3.85 L87.05 -3.8 Q85.65 -3.35 87.85 -3.35 L87.85 -3.1 87.85 -2.85 87.15 -2.85 Q88.15 -2.55 87.85 -1.9 L87.7 -1.65 Q87.0 -1.15 89.15 -1.15 L89.15 -1.65 89.15 -1.9 89.15 -2.6 89.15 -2.85 89.1 -3.1 Q88.15 -4.25 90.5 -4.8 88.3 -6.0 88.95 -7.75 L89.15 -9.2 89.15 -9.7 89.15 -9.95 89.15 -10.2 89.15 -10.45 89.15 -10.65 89.15 -10.95 89.15 -11.2 90.4 -11.2 91.85 -11.4 Q93.85 -11.15 93.9 -10.65 L93.9 -10.45 93.9 -9.95 93.95 -9.75 Q95.15 -9.2 94.5 -8.25 92.2 -7.95 93.05 -7.0 L93.2 -6.75 93.2 -6.55 93.2 -6.3 93.2 -6.05 93.2 -5.8 93.2 -5.55 93.2 -4.6 93.2 -4.35 93.2 -4.1 93.2 -3.85 93.2 -3.6 93.0 -3.35 Q92.35 -2.85 94.5 -2.85 L94.3 -2.65 93.95 -2.45 Q95.15 -1.9 94.5 -0.9 92.25 -0.85 93.05 -0.15 L93.2 0.05 93.2 0.3 93.2 0.55 92.15 0.85 Q91.85 0.9 91.85 1.05 L92.15 1.25 93.2 1.55 93.0 1.75 Q91.9 2.6 93.2 3.0 L93.05 3.25 Q92.2 4.0 94.5 4.2 L94.5 4.45 94.5 4.7 Q90.9 4.4 90.05 4.65 L89.15 4.7 89.15 4.45 89.15 4.2 89.15 3.75 89.15 3.5 89.15 2.05 89.15 1.8 Q86.85 2.2 87.75 3.25 L87.85 3.5 87.85 3.75 87.85 4.2 Q86.45 4.8 87.05 5.65 L87.05 5.85 Q84.95 6.45 89.15 6.4 L89.15 5.95 89.15 5.7 90.5 5.7 94.5 5.7 94.5 5.95 94.5 6.4 Q92.2 6.6 92.5 7.3 L91.75 7.2 90.5 7.15 Q87.4 6.25 87.1 7.4 87.0 7.7 87.85 8.6 85.65 8.55 86.3 9.1 L86.45 9.35 Q75.9 9.75 62.35 9.65 L44.95 9.45 43.45 9.4 38.25 9.1 Q33.8 9.1 36.65 9.45 36.9 9.45 36.9 9.6 L15.5 9.45 14.15 9.45 12.85 9.6 9.0 9.45 Q8.75 9.45 8.8 9.6 L6.1 9.6 4.75 9.6 -0.6 9.35 -1.9 9.35 Q-4.6 8.75 -7.6 9.3 L-8.6 9.35 -9.95 9.35 Q-10.6 9.1 -15.35 9.35 L-16.7 9.35 -18.05 9.35 -19.35 9.35 -20.7 9.35 -22.05 9.35 Q-28.85 9.15 -32.75 9.25 L-32.75 9.1 -32.5 8.95 -30.05 8.85 -34.75 8.75 -34.35 8.9 -34.1 9.1 -38.15 9.1 -39.45 9.1 -40.8 9.1 -42.15 9.1 -48.85 9.0 -48.85 9.1 -50.3 9.3 -51.5 9.35 -58.25 9.1 -59.6 9.1 -60.9 9.1 -62.2 9.1 -64.65 8.95 Q-64.95 8.95 -64.9 9.1 L-66.3 9.1 Q-68.0 8.65 -72.8 8.95 L-72.95 9.1 -74.25 9.1 -76.7 8.95 Q-77.0 8.95 -77.0 9.1 L-79.65 9.1 -81.0 9.1 -89.2 8.8 -91.55 8.95 -93.1 9.1 -94.4 9.1 -95.75 9.1 Q-96.1 8.2 -98.1 8.9 -98.4 8.95 -98.4 9.1 L-99.7 9.1 -101.1 9.1 -102.6 8.9 -103.75 8.85 -106.2 8.7 Q-106.5 8.7 -106.45 8.85 L-110.5 8.85 -111.85 8.85 -113.15 8.85 Q-114.2 8.45 -118.25 8.75 L-118.45 8.85 -122.5 8.85 -123.85 8.85 -131.9 8.45 -139.95 8.85 -143.95 8.85 -145.3 8.85 -150.7 8.6 -152.0 8.6 -157.4 8.6 -158.7 8.6 -161.4 8.6 -162.7 8.6 -180.15 8.6 -181.5 8.6 -182.85 8.6 -184.2 8.6 -190.85 8.6 -192.2 8.6 -194.55 8.7 -194.9 8.85 -197.6 8.85 -198.6 8.85 -198.6 -12.65 -197.6 -12.65 -197.6 -12.9 -196.25 -12.9 -117.15 -12.9 -117.3 -12.65 Q-118.05 -12.1 -115.85 -12.15 -116.7 -11.65 -114.55 -11.65 L-60.9 -11.65 -59.6 -11.65 -58.2 -11.65 -59.75 -11.85 -60.9 -11.9 -62.35 -12.1 -63.55 -12.15 -63.55 -12.65 -63.55 -12.9 -62.2 -12.9 -56.75 -12.55 -48.75 -12.2 -46.8 -12.25 -42.15 -12.65 -42.15 -12.9 -9.95 -12.9 69.05 -12.9 69.05 -12.65 69.05 -12.4 66.65 -12.3 66.4 -12.15 65.05 -12.15 Q63.35 -12.6 58.55 -12.3 L58.35 -12.15 M87.85 -0.15 L87.85 0.05 87.7 0.3 Q86.85 1.2 89.15 1.55 L89.15 0.3 89.15 0.05 89.15 -0.15 89.15 -0.4 Q89.1 -1.25 88.05 -0.65 L87.85 -0.4 87.85 -0.15 M-8.6 -11.65 L-8.6 -11.8 Q-13.8 -11.8 -8.6 -11.65 M-5.9 -11.85 Q-9.05 -11.7 -4.6 -11.65 L-3.25 -11.65 -0.6 -11.65 -3.35 -11.95 -4.6 -11.9 -5.9 -11.85 M-12.65 -11.8 Q-17.85 -11.8 -12.65 -11.65 L-12.65 -11.8 M-24.75 -11.2 L-24.75 -11.3 Q-32.0 -11.3 -24.75 -11.2 M-34.1 -11.2 L-34.1 -11.3 Q-39.25 -11.3 -34.1 -11.2 M-42.15 -11.3 Q-53.65 -11.3 -42.15 -11.2 L-42.15 -11.3 M7.5 9.35 L7.5 9.25 Q2.3 9.2 7.5 9.35 M91.85 -6.55 L91.5 -6.7 Q89.25 -7.15 91.85 -6.55" fill="#333333" fill-rule="evenodd" stroke="none"/>
    <path d="M-247.1 -12.9 L-206.95 -12.9 -206.7 -12.65 -206.3 -12.5 Q-208.5 -12.1 -202.95 -12.15 L-202.95 -12.65 -202.95 -12.9 -201.6 -12.9 -200.25 -12.9 Q-200.25 -12.75 -199.95 -12.75 L-198.6 -12.65 -198.6 8.85 -198.9 8.85 Q-200.0 8.45 -204.0 8.75 L-204.25 8.85 -205.65 8.85 -206.95 8.85 -209.35 8.7 -209.6 8.85 -212.3 8.85 -213.65 8.85 -221.75 8.5 -248.45 8.75 -249.85 8.85 Q-254.2 8.65 -253.45 7.4 -252.5 5.55 -252.5 3.75 L-252.6 -5.3 Q-252.65 -5.7 -250.0 -5.8 -249.85 -5.8 -249.85 -6.05 -249.85 -6.3 -250.35 -6.5 L-251.15 -6.55 -251.15 -6.75 -249.85 -6.75 -249.85 -7.25 -249.85 -7.5 -248.45 -7.5 Q-248.5 -7.9 -249.1 -8.2 L-249.85 -8.25 Q-253.8 -9.1 -252.55 -10.95 L-252.5 -11.2 -251.15 -11.2 -210.95 -11.2 -220.35 -11.55 Q-237.2 -11.4 -252.5 -11.65 L-252.5 -11.9 -252.5 -12.15 -251.15 -12.15 -239.1 -12.15 -246.05 -12.55 Q-248.05 -12.5 -248.45 -12.9 L-247.1 -12.9 M-232.4 -12.15 L-231.0 -12.15 -214.95 -12.15 -224.4 -12.55 -232.4 -12.15" fill="#333333" fill-rule="evenodd" stroke="none"/>
  </g>
</svg>
