<?xml version="1.0" encoding="UTF-8" standalone="no"?>
<svg xmlns:xlink="http://www.w3.org/1999/xlink" height="358.6550000000001px" width="178.09px" xmlns="http://www.w3.org/2000/svg">
  <g transform="matrix(1.1, 0.0, 0.0, 1.1, 8.855, 16.83)">
    <use height="322.25" transform="matrix(1.0, 0.0, 0.0, 1.0, -7.95, -15.3)" width="161.8" xlink:href="#shape0"/>
    <use height="22.2" transform="matrix(1.0, 0.0, 0.0, 1.0, -1.05, -8.15)" width="94.1" xlink:href="#text0"/>
    <use height="19.45" transform="matrix(32.0645, 0.0, 0.0, 0.3445, -1.6016, 14.819)" width="4.65" xlink:href="#shape1"/>
    <use height="7.15" transform="matrix(1.0, 0.0, 0.0, 1.0, 140.45, 234.05)" width="11.2" xlink:href="#text1"/>
    <use height="7.35" transform="matrix(1.0, 0.0, 0.0, 1.0, 140.0, 264.05)" width="11.65" xlink:href="#text2"/>
    <use height="7.15" transform="matrix(1.0, 0.0, 0.0, 1.0, 140.0, 249.05)" width="11.65" xlink:href="#text3"/>
    <use height="7.15" transform="matrix(1.0, 0.0, 0.0, 1.0, 140.0, 279.05)" width="11.65" xlink:href="#text4"/>
    <use height="7.25" transform="matrix(1.0, 0.0, 0.0, 1.0, 140.0, 294.15)" width="11.65" xlink:href="#text5"/>
    <use height="19.45" transform="matrix(32.4731, 0.0, 0.0, 0.3599, -2.6118, 222.872)" width="4.65" xlink:href="#shape1"/>
    <use height="10.05" transform="matrix(1.0, 0.0, 0.0, 1.0, 3.8, 209.1)" width="90.6" xlink:href="#text6"/>
    <use height="1.0" transform="matrix(1.0, 0.0, 0.0, 1.0, -0.15, 36.05)" width="148.25" xlink:href="#shape2"/>
    <use height="1.0" transform="matrix(1.0, 0.0, 0.0, 1.0, -0.15, 51.05)" width="148.25" xlink:href="#shape2"/>
    <use height="1.0" transform="matrix(1.0, 0.0, 0.0, 1.0, -0.15, 66.05)" width="148.25" xlink:href="#shape2"/>
    <use height="1.0" transform="matrix(1.0, 0.0, 0.0, 1.0, -0.15, 81.05)" width="148.25" xlink:href="#shape2"/>
    <use height="1.0" transform="matrix(1.0, 0.0, 0.0, 1.0, -0.15, 96.05)" width="148.25" xlink:href="#shape2"/>
    <use height="1.0" transform="matrix(1.0, 0.0, 0.0, 1.0, -0.15, 111.05)" width="148.25" xlink:href="#shape2"/>
    <use height="1.0" transform="matrix(1.0, 0.0, 0.0, 1.0, -0.15, 126.05)" width="148.25" xlink:href="#shape2"/>
    <use height="1.0" transform="matrix(1.0, 0.0, 0.0, 1.0, -0.15, 141.05)" width="148.25" xlink:href="#shape2"/>
    <use height="1.0" transform="matrix(1.0, 0.0, 0.0, 1.0, -0.15, 156.05)" width="148.25" xlink:href="#shape2"/>
    <use height="1.0" transform="matrix(1.0, 0.0, 0.0, 1.0, -0.15, 171.05)" width="148.25" xlink:href="#shape2"/>
    <use height="1.0" transform="matrix(1.0, 0.0, 0.0, 1.0, -0.15, 186.05)" width="148.25" xlink:href="#shape2"/>
    <use height="1.0" transform="matrix(1.0, 0.0, 0.0, 1.0, -0.15, 244.05)" width="148.25" xlink:href="#shape2"/>
    <use height="1.0" transform="matrix(1.0, 0.0, 0.0, 1.0, -0.15, 259.05)" width="148.25" xlink:href="#shape2"/>
    <use height="1.0" transform="matrix(1.0, 0.0, 0.0, 1.0, -0.15, 274.05)" width="148.25" xlink:href="#shape2"/>
    <use height="1.0" transform="matrix(1.0, 0.0, 0.0, 1.0, -0.15, 289.05)" width="148.25" xlink:href="#shape2"/>
    <use height="1.0" transform="matrix(1.0, 0.0, 0.0, 1.0, -0.15, 305.05)" width="148.25" xlink:href="#shape2"/>
    <use height="7.15" transform="matrix(1.0, 0.0, 0.0, 1.0, 140.45, 26.05)" width="11.2" xlink:href="#text1"/>
    <use height="7.35" transform="matrix(1.0, 0.0, 0.0, 1.0, 140.0, 56.05)" width="11.65" xlink:href="#text2"/>
    <use height="7.15" transform="matrix(1.0, 0.0, 0.0, 1.0, 140.0, 41.05)" width="11.65" xlink:href="#text3"/>
    <use height="7.15" transform="matrix(1.0, 0.0, 0.0, 1.0, 140.0, 71.05)" width="11.65" xlink:href="#text4"/>
    <use height="7.25" transform="matrix(1.0, 0.0, 0.0, 1.0, 140.0, 86.15)" width="11.65" xlink:href="#text5"/>
    <use height="7.35" transform="matrix(1.0, 0.0, 0.0, 1.0, 140.05, 101.05)" width="11.6" xlink:href="#text7"/>
    <use height="7.35" transform="matrix(1.0, 0.0, 0.0, 1.0, 140.05, 131.05)" width="11.6" xlink:href="#text8"/>
    <use height="7.05" transform="matrix(1.0, 0.0, 0.0, 1.0, 140.0, 116.15)" width="11.65" xlink:href="#text9"/>
    <use height="7.35" transform="matrix(1.0, 0.0, 0.0, 1.0, 140.05, 146.05)" width="11.6" xlink:href="#text10"/>
    <use height="7.35" transform="matrix(1.0, 0.0, 0.0, 1.0, 135.45, 161.05)" width="16.8" xlink:href="#text11"/>
    <use height="7.15" transform="matrix(1.0, 0.0, 0.0, 1.0, 136.45, 176.05)" width="16.8" xlink:href="#text12"/>
    <use height="7.15" transform="matrix(1.0, 0.0, 0.0, 1.0, 135.45, 191.05)" width="16.8" xlink:href="#text13"/>
    <use height="1.0" transform="matrix(1.0, 0.0, 0.0, 1.0, -0.15, 201.05)" width="148.25" xlink:href="#shape2"/>
    <use height="23.9" id="item1" transform="matrix(1.0003, 0.0, 0.0, 1.0003, -8.0259, 18.6964)" width="159.35" xlink:href="#sprite0"/>
    <use height="23.9" id="item2" transform="matrix(1.001, 0.0, 0.0, 1.0003, -7.9827, 33.9964)" width="159.35" xlink:href="#sprite0"/>
    <use height="23.9" id="item3" transform="matrix(1.0, 0.0, 0.0, 1.0003, -7.9975, 48.5964)" width="159.35" xlink:href="#sprite0"/>
    <use height="23.9" id="item4" transform="matrix(1.0003, 0.0, 0.0, 1.0003, -8.0259, 63.8464)" width="159.35" xlink:href="#sprite0"/>
    <use height="23.9" id="item5" transform="matrix(1.001, 0.0, 0.0, 1.0003, -7.9827, 78.4464)" width="159.35" xlink:href="#sprite0"/>
    <use height="23.9" id="item6" transform="matrix(1.0, 0.0, 0.0, 1.0003, -7.9975, 93.4464)" width="159.35" xlink:href="#sprite0"/>
    <use height="23.9" id="item7" transform="matrix(1.0003, 0.0, 0.0, 1.0003, -8.0259, 108.2464)" width="159.35" xlink:href="#sprite0"/>
    <use height="23.9" id="item8" transform="matrix(1.0003, 0.0, 0.0, 1.0003, -8.0259, 123.3464)" width="159.35" xlink:href="#sprite0"/>
    <use height="23.9" id="item9" transform="matrix(1.0003, 0.0, 0.0, 1.0003, -8.0259, 138.7464)" width="159.35" xlink:href="#sprite0"/>
    <use height="23.9" id="item10" transform="matrix(1.0003, 0.0, 0.0, 1.0003, -8.0259, 153.2464)" width="159.35" xlink:href="#sprite0"/>
    <use height="23.9" id="item11" transform="matrix(1.0003, 0.0, 0.0, 1.0003, -8.0259, 168.5464)" width="159.35" xlink:href="#sprite0"/>
    <use height="23.9" id="item12" transform="matrix(1.0003, 0.0, 0.0, 1.0003, -8.0259, 183.3464)" width="159.35" xlink:href="#sprite0"/>
    <use height="23.9" id="item13" transform="matrix(1.0003, 0.0, 0.0, 1.0003, -8.0259, 226.8464)" width="159.35" xlink:href="#sprite0"/>
    <use height="23.9" id="item15" transform="matrix(1.0003, 0.0, 0.0, 1.0003, -8.0259, 257.8464)" width="159.35" xlink:href="#sprite0"/>
    <use height="23.9" id="item16" transform="matrix(1.0003, 0.0, 0.0, 1.0003, -8.0259, 272.8464)" width="159.35" xlink:href="#sprite0"/>
    <use height="23.9" id="item17" transform="matrix(1.0003, 0.0, 0.0, 1.0003, -8.0259, 286.8464)" width="159.35" xlink:href="#sprite0"/>
    <use height="23.9" id="item14" transform="matrix(1.0003, 0.0, 0.0, 1.0003, -8.0259, 241.8464)" width="159.35" xlink:href="#sprite0"/>
  </g>
  <defs>
    <g id="shape0" transform="matrix(1.0, 0.0, 0.0, 1.0, 80.9, 127.2)">
      <path d="M79.9 -126.2 L79.9 194.05 -79.9 194.05 -79.9 -126.2 79.9 -126.2" fill="#ffffff" fill-rule="evenodd" stroke="none"/>
      <path d="M79.9 -126.2 L79.9 194.05 -79.9 194.05 -79.9 -126.2 79.9 -126.2 Z" fill="none" stroke="#000000" stroke-linecap="round" stroke-linejoin="round" stroke-width="2.0"/>
    </g>
    <g id="text0" transform="matrix(1.0, 0.0, 0.0, 1.0, -0.45, -2.45)">
      <g transform="matrix(1.0, 0.0, 0.0, 1.0, 0.0, 0.0)">
        <use fill="#000000" height="22.2" transform="matrix(0.2734, 0.0, 0.0, 0.2734, 0.0, 12.65)" width="94.1" xlink:href="#font_Arial_G0"/>
        <use fill="#000000" height="22.2" transform="matrix(0.2734, 0.0, 0.0, 0.2734, 10.9, 12.65)" width="94.1" xlink:href="#font_Arial_E0"/>
        <use fill="#000000" height="22.2" transform="matrix(0.2734, 0.0, 0.0, 0.2734, 20.25, 12.65)" width="94.1" xlink:href="#font_Arial_N0"/>
        <use fill="#000000" height="22.2" transform="matrix(0.2734, 0.0, 0.0, 0.2734, 30.35, 12.65)" width="94.1" xlink:href="#font_Arial_R0"/>
        <use fill="#000000" height="22.2" transform="matrix(0.2734, 0.0, 0.0, 0.2734, 40.45, 12.65)" width="94.1" xlink:href="#font_Arial_E0"/>
      </g>
      <g transform="matrix(1.0, 0.0, 0.0, 1.0, 0.0, 0.0)">
        <use fill="#000000" height="22.2" transform="matrix(0.1953, 0.0, 0.0, 0.1953, 0.0, 22.55)" width="94.1" xlink:href="#font_Arial_S0"/>
        <use fill="#000000" height="22.2" transform="matrix(0.1953, 0.0, 0.0, 0.1953, 6.65, 22.55)" width="94.1" xlink:href="#font_Arial_e0"/>
        <use fill="#000000" height="22.2" transform="matrix(0.1953, 0.0, 0.0, 0.1953, 12.2, 22.55)" width="94.1" xlink:href="#font_Arial_r0"/>
        <use fill="#000000" height="22.2" transform="matrix(0.1953, 0.0, 0.0, 0.1953, 15.55, 22.55)" width="94.1" xlink:href="#font_Arial_v0"/>
        <use fill="#000000" height="22.2" transform="matrix(0.1953, 0.0, 0.0, 0.1953, 20.55, 22.55)" width="94.1" xlink:href="#font_Arial_i0"/>
        <use fill="#000000" height="22.2" transform="matrix(0.1953, 0.0, 0.0, 0.1953, 22.75, 22.55)" width="94.1" xlink:href="#font_Arial_n0"/>
        <use fill="#000000" height="22.2" transform="matrix(0.1953, 0.0, 0.0, 0.1953, 28.3, 22.55)" width="94.1" xlink:href="#font_Arial_g0"/>
        <use fill="#000000" height="22.2" transform="matrix(0.1953, 0.0, 0.0, 0.1953, 36.65, 22.55)" width="94.1" xlink:href="#font_Arial_S0"/>
        <use fill="#000000" height="22.2" transform="matrix(0.1953, 0.0, 0.0, 0.1953, 43.3, 22.55)" width="94.1" xlink:href="#font_Arial_i0"/>
        <use fill="#000000" height="22.2" transform="matrix(0.1953, 0.0, 0.0, 0.1953, 45.5, 22.55)" width="94.1" xlink:href="#font_Arial_z0"/>
        <use fill="#000000" height="22.2" transform="matrix(0.1953, 0.0, 0.0, 0.1953, 50.5, 22.55)" width="94.1" xlink:href="#font_Arial_e0"/>
        <use fill="#000000" height="22.2" transform="matrix(0.1953, 0.0, 0.0, 0.1953, 58.85, 22.55)" width="94.1" xlink:href="#font_Arial_10"/>
        <use fill="#000000" height="22.2" transform="matrix(0.1953, 0.0, 0.0, 0.1953, 70.0, 22.55)" width="94.1" xlink:href="#font_Arial_C0"/>
        <use fill="#000000" height="22.2" transform="matrix(0.1953, 0.0, 0.0, 0.1953, 77.2, 22.55)" width="94.1" xlink:href="#font_Arial_a0"/>
        <use fill="#000000" height="22.2" transform="matrix(0.1953, 0.0, 0.0, 0.1953, 82.75, 22.55)" width="94.1" xlink:href="#font_Arial_n0"/>
      </g>
    </g>
    <g id="font_Arial_G0">
      <path d="M20.65 -30.95 Q15.8 -30.95 12.95 -27.85 10.1 -24.8 10.1 -18.75 10.1 -12.2 13.0 -8.95 15.9 -5.7 20.6 -5.7 22.9 -5.7 25.25 -6.6 27.6 -7.5 29.25 -8.8 L29.25 -13.45 20.8 -13.45 20.8 -19.65 36.75 -19.65 36.75 -5.05 Q34.4 -2.8 30.0 -1.05 25.6 0.65 21.05 0.65 15.3 0.65 11.05 -1.75 6.75 -4.2 4.6 -8.65 2.45 -13.15 2.45 -18.45 2.45 -24.15 4.85 -28.6 7.25 -33.05 11.9 -35.45 15.4 -37.25 20.65 -37.25 27.5 -37.25 31.35 -34.4 35.15 -31.55 36.25 -26.5 L28.9 -25.1 Q28.15 -27.8 26.0 -29.35 23.85 -30.95 20.65 -30.95" fill-rule="evenodd" stroke="none"/>
    </g>
    <g id="font_Arial_E0">
      <path d="M30.9 -30.45 L11.15 -30.45 11.15 -22.3 29.55 -22.3 29.55 -16.15 11.15 -16.15 11.15 -6.15 31.6 -6.15 31.6 0.0 3.75 0.0 3.75 -36.65 30.9 -36.65 30.9 -30.45" fill-rule="evenodd" stroke="none"/>
    </g>
    <g id="font_Arial_N0">
      <path d="M32.9 -36.65 L32.9 0.0 25.45 0.0 10.7 -23.9 10.7 0.0 3.8 0.0 3.8 -36.65 11.0 -36.65 26.0 -12.15 26.0 -36.65 32.9 -36.65" fill-rule="evenodd" stroke="none"/>
    </g>
    <g id="font_Arial_R0">
      <path d="M22.35 -30.3 L16.95 -30.45 11.15 -30.45 11.15 -21.15 16.65 -21.15 23.3 -21.6 Q24.6 -22.05 25.35 -23.15 26.1 -24.25 26.1 -25.9 26.1 -27.75 25.15 -28.85 24.15 -30.0 22.35 -30.3 M32.15 -32.15 Q33.75 -29.6 33.75 -26.35 33.75 -22.25 31.3 -19.55 28.9 -16.85 24.05 -16.15 26.45 -14.75 28.05 -13.1 29.6 -11.4 32.25 -7.15 L36.7 0.0 27.85 0.0 22.5 -7.95 Q19.65 -12.25 18.6 -13.35 L16.4 -14.85 12.65 -15.3 11.15 -15.3 11.15 0.0 3.75 0.0 3.75 -36.65 19.35 -36.65 Q25.2 -36.65 27.9 -35.65 30.55 -34.65 32.15 -32.15" fill-rule="evenodd" stroke="none"/>
    </g>
    <g id="font_Arial_S0">
      <path d="M23.2 -31.2 Q21.05 -33.0 16.8 -33.0 12.4 -33.0 10.4 -31.35 8.4 -29.75 8.4 -27.5 8.4 -25.5 9.8 -24.25 11.2 -22.95 17.15 -21.6 23.05 -20.3 25.25 -19.3 28.45 -17.8 29.95 -15.55 31.5 -13.3 31.5 -10.35 31.5 -7.4 29.8 -4.8 28.15 -2.25 25.0 -0.8 21.85 0.65 17.95 0.65 12.95 0.65 9.6 -0.8 6.25 -2.25 4.35 -5.15 2.4 -8.1 2.3 -11.75 L6.9 -12.15 Q7.2 -9.4 8.4 -7.65 9.6 -5.9 12.1 -4.8 14.6 -3.7 17.7 -3.7 20.5 -3.7 22.6 -4.55 24.75 -5.35 25.8 -6.8 26.8 -8.25 26.8 -9.95 26.8 -11.65 25.8 -12.95 24.8 -14.25 22.5 -15.1 L16.0 -16.9 Q10.95 -18.1 8.9 -19.2 6.3 -20.55 5.0 -22.6 3.7 -24.65 3.7 -27.15 3.7 -29.95 5.3 -32.35 6.85 -34.75 9.9 -36.0 12.9 -37.25 16.6 -37.25 20.7 -37.25 23.8 -35.95 26.9 -34.65 28.6 -32.1 30.25 -29.55 30.4 -26.3 L25.75 -25.95 Q25.35 -29.45 23.2 -31.2" fill-rule="evenodd" stroke="none"/>
    </g>
    <g id="font_Arial_e0">
      <path d="M6.8 -15.8 L21.6 -15.8 Q21.3 -19.15 19.9 -20.85 17.75 -23.45 14.35 -23.45 11.25 -23.45 9.15 -21.35 7.0 -19.3 6.8 -15.8 M18.8 -4.4 Q20.55 -5.7 21.55 -8.55 L26.2 -7.95 Q25.1 -3.9 22.15 -1.65 19.15 0.6 14.55 0.6 8.7 0.6 5.3 -2.95 1.9 -6.55 1.9 -13.05 1.9 -19.75 5.35 -23.45 8.8 -27.15 14.3 -27.15 19.6 -27.15 23.0 -23.5 26.35 -19.9 26.35 -13.3 L26.35 -12.1 6.55 -12.1 Q6.8 -7.75 9.0 -5.4 11.25 -3.1 14.55 -3.1 17.05 -3.1 18.8 -4.4" fill-rule="evenodd" stroke="none"/>
    </g>
    <g id="font_Arial_r0">
      <path d="M7.4 -26.55 L7.4 -22.5 Q8.95 -25.35 10.25 -26.25 11.55 -27.15 13.15 -27.15 15.4 -27.15 17.75 -25.7 L16.2 -21.5 Q14.55 -22.5 12.9 -22.5 11.45 -22.5 10.25 -21.6 9.1 -20.7 8.6 -19.15 7.85 -16.75 7.85 -13.9 L7.85 0.0 3.35 0.0 3.35 -26.55 7.4 -26.55" fill-rule="evenodd" stroke="none"/>
    </g>
    <g id="font_Arial_v0">
      <path d="M25.0 -26.55 L14.95 0.0 10.75 0.0 0.65 -26.55 5.4 -26.55 11.1 -10.65 12.8 -5.3 14.5 -10.35 20.4 -26.55 25.0 -26.55" fill-rule="evenodd" stroke="none"/>
    </g>
    <g id="font_Arial_i0">
      <path d="M7.9 -26.55 L7.9 0.0 3.4 0.0 3.4 -26.55 7.9 -26.55 M3.4 -31.45 L3.4 -36.65 7.9 -36.65 7.9 -31.45 3.4 -31.45" fill-rule="evenodd" stroke="none"/>
    </g>
    <g id="font_Arial_n0">
      <path d="M7.45 -26.55 L7.45 -22.75 Q10.35 -27.15 15.9 -27.15 18.3 -27.15 20.3 -26.25 22.3 -25.4 23.3 -24.0 24.3 -22.6 24.7 -20.7 L24.95 -16.3 24.95 0.0 20.45 0.0 20.45 -16.15 Q20.45 -18.9 19.95 -20.25 19.4 -21.6 18.1 -22.4 16.75 -23.25 14.95 -23.25 12.05 -23.25 10.0 -21.4 7.9 -19.6 7.9 -14.5 L7.9 0.0 3.4 0.0 3.4 -26.55 7.45 -26.55" fill-rule="evenodd" stroke="none"/>
    </g>
    <g id="font_Arial_g0">
      <path d="M25.05 -26.55 L25.05 -3.6 Q25.05 2.6 23.8 5.2 22.55 7.8 19.8 9.3 17.05 10.8 13.05 10.8 8.3 10.8 5.4 8.65 2.45 6.5 2.55 2.2 L6.95 2.85 Q7.2 4.9 8.45 5.8 10.15 7.05 13.05 7.05 16.15 7.05 17.85 5.8 19.55 4.55 20.15 2.3 20.5 0.95 20.5 -3.45 17.55 0.0 13.15 0.0 7.65 0.0 4.65 -3.95 1.65 -7.9 1.65 -13.4 1.65 -17.2 3.05 -20.4 4.4 -23.65 7.05 -25.4 9.65 -27.15 13.15 -27.15 17.85 -27.15 20.9 -23.35 L20.9 -26.55 25.05 -26.55 M6.3 -13.75 Q6.3 -8.5 8.35 -6.1 10.45 -3.7 13.55 -3.7 16.65 -3.7 18.75 -6.1 20.85 -8.5 20.85 -13.6 20.85 -18.45 18.7 -20.95 16.55 -23.4 13.5 -23.4 10.5 -23.4 8.4 -20.95 6.3 -18.55 6.3 -13.75" fill-rule="evenodd" stroke="none"/>
    </g>
    <g id="font_Arial_z0">
      <path d="M17.9 -23.05 L12.85 -22.9 2.0 -22.9 2.0 -26.55 23.7 -26.55 23.7 -23.55 6.55 -3.65 12.25 -3.85 24.5 -3.85 24.5 0.0 1.0 0.0 1.0 -3.65 17.9 -23.05" fill-rule="evenodd" stroke="none"/>
    </g>
    <g id="font_Arial_10">
      <path d="M19.1 -36.8 L19.1 0.0 14.6 0.0 14.6 -28.65 Q12.95 -27.1 10.35 -25.55 7.7 -24.0 5.6 -23.25 L5.6 -27.6 Q9.35 -29.35 12.2 -31.9 15.0 -34.4 16.2 -36.8 L19.1 -36.8" fill-rule="evenodd" stroke="none"/>
    </g>
    <g id="font_Arial_C0">
      <path d="M25.85 -31.3 Q23.45 -33.1 19.75 -33.1 15.55 -33.1 12.7 -31.1 9.85 -29.05 8.7 -25.65 7.55 -22.25 7.55 -18.6 7.55 -13.95 8.95 -10.45 10.3 -6.95 13.15 -5.25 16.05 -3.5 19.4 -3.5 23.45 -3.5 26.3 -5.85 29.1 -8.2 30.1 -12.85 L34.95 -11.6 Q33.45 -5.65 29.5 -2.5 25.5 0.65 19.8 0.65 13.85 0.65 10.15 -1.75 6.45 -4.2 4.5 -8.75 2.55 -13.35 2.55 -18.6 2.55 -24.3 4.75 -28.55 6.95 -32.85 11.0 -35.05 15.0 -37.25 19.85 -37.25 25.35 -37.25 29.1 -34.45 32.85 -31.65 34.35 -26.6 L29.55 -25.45 Q28.3 -29.45 25.85 -31.3" fill-rule="evenodd" stroke="none"/>
    </g>
    <g id="font_Arial_a0">
      <path d="M20.15 -26.35 Q22.25 -25.55 23.25 -24.3 24.25 -23.1 24.65 -21.25 L24.9 -17.1 24.9 -11.1 Q24.9 -4.85 25.2 -3.15 25.45 -1.5 26.3 0.0 L21.6 0.0 Q20.9 -1.4 20.7 -3.25 18.2 -1.15 15.9 -0.25 13.6 0.6 10.95 0.6 6.55 0.6 4.2 -1.5 1.85 -3.65 1.85 -7.0 1.85 -8.95 2.75 -10.55 3.65 -12.15 5.1 -13.15 6.5 -14.1 8.3 -14.6 L12.3 -15.3 Q17.75 -15.95 20.35 -16.85 L20.35 -18.0 Q20.35 -20.75 19.1 -21.9 17.35 -23.4 13.95 -23.4 10.8 -23.4 9.3 -22.3 7.75 -21.2 7.05 -18.35 L2.65 -18.95 Q3.25 -21.8 4.6 -23.5 6.0 -25.25 8.6 -26.2 11.2 -27.15 14.6 -27.15 18.0 -27.15 20.15 -26.35 M8.05 -4.1 Q9.4 -2.9 12.0 -2.9 14.6 -2.9 16.65 -4.05 18.65 -5.2 19.6 -7.15 20.35 -8.7 20.35 -11.65 L20.35 -13.3 Q17.9 -12.3 13.0 -11.6 L9.05 -10.7 Q7.9 -10.2 7.3 -9.25 6.65 -8.3 6.65 -7.1 6.65 -5.3 8.05 -4.1" fill-rule="evenodd" stroke="none"/>
    </g>
    <g id="shape1" transform="matrix(1.0, 0.0, 0.0, 1.0, 2.35, 19.25)">
      <path d="M2.3 -19.25 L2.3 0.2 -2.35 0.2 -2.35 -19.25 2.3 -19.25" fill="#000000" fill-rule="evenodd" stroke="none"/>
    </g>
    <g id="text1" transform="matrix(1.0, 0.0, 0.0, 1.0, -0.7, -2.55)">
      <g transform="matrix(1.0, 0.0, 0.0, 1.0, 0.0, 0.0)">
        <use fill="#000000" height="7.15" transform="matrix(0.1973, 0.0, 0.0, 0.1973, 0.0, 9.7)" width="11.2" xlink:href="#font_Helvetica_10"/>
      </g>
    </g>
    <g id="font_Helvetica_10">
      <path d="M3.55 -25.0 L3.55 -30.05 4.55 -30.05 Q9.25 -30.05 11.3 -31.9 13.35 -33.8 13.5 -36.35 L19.35 -36.35 19.35 0.0 12.2 0.0 12.2 -25.0 3.55 -25.0" fill-rule="evenodd" stroke="none"/>
    </g>
    <g id="text2" transform="matrix(1.0, 0.0, 0.0, 1.0, -0.25, -2.55)">
      <g transform="matrix(1.0, 0.0, 0.0, 1.0, 0.0, 0.0)">
        <use fill="#000000" height="7.35" transform="matrix(0.1973, 0.0, 0.0, 0.1973, 0.0, 9.7)" width="11.65" xlink:href="#font_Helvetica_30"/>
      </g>
    </g>
    <g id="font_Helvetica_30">
      <path d="M25.3 -26.2 Q25.3 -23.65 24.05 -21.9 22.8 -20.15 20.95 -19.3 L20.95 -19.2 Q22.0 -18.9 23.2 -18.05 24.4 -17.2 25.45 -15.35 26.45 -13.5 26.45 -10.75 26.45 -7.35 24.85 -4.7 23.3 -2.0 20.5 -0.5 17.7 1.0 14.05 1.0 L10.25 0.6 Q8.25 0.25 6.2 -0.95 4.15 -2.2 2.75 -4.7 1.4 -7.2 1.4 -11.15 L8.4 -11.15 8.35 -11.1 Q8.35 -8.75 9.45 -6.75 10.55 -4.75 13.7 -4.75 15.95 -4.75 17.5 -6.3 19.05 -7.85 19.05 -10.75 19.05 -13.05 17.8 -14.2 16.55 -15.35 14.85 -15.6 L10.9 -15.9 10.9 -21.05 12.05 -21.05 14.85 -21.3 Q16.15 -21.6 17.15 -22.7 18.15 -23.75 18.15 -25.95 18.15 -27.55 17.15 -29.1 16.15 -30.6 13.6 -30.6 10.4 -30.6 9.55 -28.7 8.65 -26.8 8.65 -24.65 L2.0 -24.65 Q2.0 -27.25 2.75 -29.35 3.45 -31.5 4.95 -33.05 6.45 -34.65 8.75 -35.5 11.05 -36.35 14.05 -36.35 16.7 -36.35 19.3 -35.35 21.9 -34.35 23.6 -32.1 25.3 -29.8 25.3 -26.2" fill-rule="evenodd" stroke="none"/>
    </g>
    <g id="text3" transform="matrix(1.0, 0.0, 0.0, 1.0, -0.25, -2.55)">
      <g transform="matrix(1.0, 0.0, 0.0, 1.0, 0.0, 0.0)">
        <use fill="#000000" height="7.15" transform="matrix(0.1973, 0.0, 0.0, 0.1973, 0.0, 9.7)" width="11.65" xlink:href="#font_Helvetica_20"/>
      </g>
    </g>
    <g id="font_Helvetica_20">
      <path d="M26.1 -24.85 Q26.1 -20.7 24.1 -18.05 22.05 -15.4 18.55 -13.05 L13.8 -9.65 11.8 -8.05 10.4 -6.35 26.2 -6.35 26.2 0.0 1.35 0.0 1.75 -3.75 Q2.0 -5.15 2.8 -6.8 3.55 -8.5 5.3 -10.45 7.1 -12.45 9.8 -14.45 L15.5 -18.75 Q17.15 -20.15 18.05 -21.65 18.95 -23.15 18.95 -25.15 18.95 -27.2 17.65 -28.75 16.35 -30.3 13.9 -30.3 10.6 -30.3 9.7 -28.4 8.75 -26.5 8.7 -23.5 L1.75 -23.5 Q1.75 -28.85 3.85 -31.7 5.95 -34.6 8.6 -35.45 11.25 -36.35 13.65 -36.35 17.15 -36.35 20.0 -35.0 22.85 -33.65 24.5 -31.05 26.1 -28.45 26.1 -24.85" fill-rule="evenodd" stroke="none"/>
    </g>
    <g id="text4" transform="matrix(1.0, 0.0, 0.0, 1.0, -0.25, -2.55)">
      <g transform="matrix(1.0, 0.0, 0.0, 1.0, 0.0, 0.0)">
        <use fill="#000000" height="7.15" transform="matrix(0.1973, 0.0, 0.0, 0.1973, 0.0, 9.7)" width="11.65" xlink:href="#font_Helvetica_40"/>
      </g>
    </g>
    <g id="font_Helvetica_40">
      <path d="M15.85 -29.2 L15.75 -29.2 6.65 -13.6 15.7 -13.6 15.75 -19.1 15.8 -25.3 15.85 -29.2 M1.4 -14.2 L14.75 -36.35 22.9 -36.35 22.9 -13.6 26.95 -13.6 26.95 -8.05 22.9 -8.05 22.9 0.0 15.7 0.0 15.7 -8.05 1.4 -8.05 1.4 -14.2" fill-rule="evenodd" stroke="none"/>
    </g>
    <g id="text5" transform="matrix(1.0, 0.0, 0.0, 1.0, -0.25, -2.65)">
      <g transform="matrix(1.0, 0.0, 0.0, 1.0, 0.0, 0.0)">
        <use fill="#000000" height="7.25" transform="matrix(0.1973, 0.0, 0.0, 0.1973, 0.0, 9.7)" width="11.65" xlink:href="#font_Helvetica_50"/>
      </g>
    </g>
    <g id="font_Helvetica_50">
      <path d="M25.0 -29.7 L10.2 -29.7 8.9 -21.8 Q10.25 -22.75 11.7 -23.25 L15.4 -23.8 Q18.05 -23.8 20.6 -22.5 23.15 -21.25 24.8 -18.6 26.45 -16.0 26.45 -12.05 26.45 -9.95 25.85 -7.7 25.2 -5.5 23.75 -3.5 22.25 -1.5 19.65 -0.25 17.05 1.0 13.2 1.0 10.3 1.0 7.65 -0.2 5.0 -1.4 3.3 -3.8 1.55 -6.25 1.4 -9.7 L8.55 -9.7 Q8.8 -7.4 10.05 -6.05 11.35 -4.75 13.65 -4.75 15.3 -4.75 16.55 -5.6 17.8 -6.5 18.45 -8.05 19.05 -9.65 19.05 -11.55 19.05 -13.25 18.5 -14.7 17.95 -16.2 16.75 -17.15 15.5 -18.05 13.75 -18.05 10.35 -18.05 8.9 -15.45 L2.5 -15.75 5.05 -35.75 25.0 -35.75 25.0 -29.7" fill-rule="evenodd" stroke="none"/>
    </g>
    <g id="text6" transform="matrix(1.0, 0.0, 0.0, 1.0, -0.2, -3.0)">
      <g transform="matrix(1.0, 0.0, 0.0, 1.0, 0.0, 0.0)">
        <use fill="#000000" height="10.05" transform="matrix(0.2598, 0.0, 0.0, 0.2598, 0.0, 12.8)" width="90.6" xlink:href="#font_Helvetica_Y0"/>
        <use fill="#000000" height="10.05" transform="matrix(0.2598, 0.0, 0.0, 0.2598, 7.9, 12.8)" width="90.6" xlink:href="#font_Helvetica_O0"/>
        <use fill="#000000" height="10.05" transform="matrix(0.2598, 0.0, 0.0, 0.2598, 18.25, 12.8)" width="90.6" xlink:href="#font_Helvetica_U0"/>
        <use fill="#000000" height="10.05" transform="matrix(0.2598, 0.0, 0.0, 0.2598, 27.85, 12.8)" width="90.6" xlink:href="#font_Helvetica_R0"/>
        <use fill="#000000" height="10.05" transform="matrix(0.2598, 0.0, 0.0, 0.2598, 41.15, 12.8)" width="90.6" xlink:href="#font_Helvetica_M0"/>
        <use fill="#000000" height="10.05" transform="matrix(0.2598, 0.0, 0.0, 0.2598, 52.25, 12.8)" width="90.6" xlink:href="#font_Helvetica_I0"/>
        <use fill="#000000" height="10.05" transform="matrix(0.2598, 0.0, 0.0, 0.2598, 55.95, 12.8)" width="90.6" xlink:href="#font_Helvetica_X0"/>
        <use fill="#000000" height="10.05" transform="matrix(0.2598, 0.0, 0.0, 0.2598, 64.8, 12.8)" width="90.6" xlink:href="#font_Helvetica_E0"/>
        <use fill="#000000" height="10.05" transform="matrix(0.2598, 0.0, 0.0, 0.2598, 73.65, 12.8)" width="90.6" xlink:href="#font_Helvetica_S0"/>
      </g>
    </g>
    <g id="font_Helvetica_Y0">
      <path d="M21.15 -13.75 L21.15 0.0 13.5 0.0 13.5 -13.85 0.8 -36.75 9.85 -36.75 17.45 -20.75 24.75 -36.75 33.45 -36.75 21.15 -13.75" fill-rule="evenodd" stroke="none"/>
    </g>
    <g id="font_Helvetica_O0">
      <path d="M23.45 -30.6 Q21.7 -31.2 19.95 -31.2 L16.5 -30.6 Q14.75 -30.0 13.3 -28.55 11.8 -27.1 10.85 -24.55 9.95 -22.0 9.95 -18.35 9.95 -11.45 13.0 -8.5 16.05 -5.5 19.95 -5.5 22.35 -5.5 24.6 -6.65 26.85 -7.85 28.4 -10.7 29.9 -13.6 29.9 -18.35 29.9 -22.1 29.0 -24.6 28.1 -27.15 26.65 -28.55 25.15 -30.0 23.45 -30.6 M30.9 -34.3 Q33.75 -32.3 35.65 -28.35 37.6 -24.4 37.6 -18.35 37.6 -12.35 35.7 -8.4 33.75 -4.45 30.9 -2.45 28.05 -0.45 25.2 0.3 L19.95 1.0 Q16.45 1.0 12.5 -0.45 8.5 -1.9 5.4 -6.2 2.25 -10.55 2.25 -18.35 2.25 -26.2 5.4 -30.5 8.5 -34.8 12.5 -36.25 16.45 -37.7 19.95 -37.7 L25.2 -37.0 Q28.0 -36.35 30.9 -34.3" fill-rule="evenodd" stroke="none"/>
    </g>
    <g id="font_Helvetica_U0">
      <path d="M33.35 -36.75 L33.35 -12.85 Q33.35 -5.8 29.4 -2.4 25.45 1.0 18.2 1.0 15.05 1.0 11.95 0.0 8.8 -1.0 6.55 -3.45 5.55 -4.55 4.95 -5.95 4.3 -7.3 4.05 -8.85 L3.65 -12.4 3.65 -36.75 11.55 -36.75 11.55 -12.9 Q11.55 -9.25 13.4 -7.4 15.25 -5.5 18.1 -5.5 25.5 -5.5 25.5 -12.55 L25.5 -36.75 33.35 -36.75" fill-rule="evenodd" stroke="none"/>
    </g>
    <g id="font_Helvetica_R0">
      <path d="M21.0 -30.4 L11.45 -30.4 11.45 -20.55 20.45 -20.55 Q22.5 -20.55 23.8 -21.05 25.1 -21.6 25.75 -22.7 26.4 -23.85 26.4 -25.55 26.4 -27.45 25.2 -28.95 24.0 -30.4 21.0 -30.4 M28.25 -35.65 Q30.6 -34.55 31.85 -32.9 33.05 -31.25 33.55 -29.55 34.05 -27.85 34.05 -26.35 34.05 -24.35 33.4 -22.55 32.75 -20.8 31.45 -19.5 30.15 -18.2 28.4 -17.6 L30.55 -16.45 31.9 -14.95 32.75 -12.4 33.05 -8.3 33.1 -4.7 Q33.1 -3.6 33.25 -2.8 33.4 -2.05 33.75 -1.6 34.05 -1.2 34.65 -0.95 L34.65 0.0 26.2 0.0 Q25.35 -2.75 25.35 -7.4 L25.05 -11.65 Q24.7 -13.0 23.45 -13.7 22.15 -14.35 19.35 -14.35 L11.45 -14.35 11.45 0.0 3.9 0.0 3.9 -36.75 22.5 -36.75 Q25.95 -36.75 28.25 -35.65" fill-rule="evenodd" stroke="none"/>
    </g>
    <g id="font_Helvetica_M0">
      <path d="M39.2 -36.75 L39.2 0.0 32.0 0.0 32.0 -30.7 31.9 -30.7 25.05 0.0 17.5 0.0 10.8 -30.7 10.7 -30.7 10.7 0.0 3.55 0.0 3.55 -36.75 14.75 -36.75 21.4 -7.75 21.5 -7.75 28.05 -36.75 39.2 -36.75" fill-rule="evenodd" stroke="none"/>
    </g>
    <g id="font_Helvetica_I0">
      <path d="M10.95 -36.75 L10.95 0.0 3.3 0.0 3.3 -36.75 10.95 -36.75" fill-rule="evenodd" stroke="none"/>
    </g>
    <g id="font_Helvetica_X0">
      <path d="M21.45 -19.1 L33.45 0.0 24.1 0.0 17.1 -12.55 9.65 0.0 0.7 0.0 12.6 -18.8 1.35 -36.75 10.55 -36.75 17.1 -24.85 23.8 -36.75 32.7 -36.75 21.45 -19.1" fill-rule="evenodd" stroke="none"/>
    </g>
    <g id="font_Helvetica_E0">
      <path d="M30.95 -30.25 L11.45 -30.25 11.45 -22.5 29.35 -22.5 29.35 -16.0 11.45 -16.0 11.45 -6.5 31.8 -6.5 31.8 0.0 3.9 0.0 3.9 -36.75 30.95 -36.75 30.95 -30.25" fill-rule="evenodd" stroke="none"/>
    </g>
    <g id="font_Helvetica_S0">
      <path d="M21.95 -29.65 Q20.45 -31.35 16.15 -31.35 L13.1 -30.95 Q11.65 -30.5 10.7 -29.5 9.75 -28.5 9.75 -26.95 9.75 -25.1 10.85 -24.3 11.95 -23.5 13.65 -23.15 L22.6 -20.95 Q27.1 -19.8 29.65 -17.65 32.2 -15.55 32.2 -11.05 32.2 -6.05 29.55 -3.35 26.85 -0.7 23.65 0.15 L17.75 1.0 Q13.0 1.0 9.85 -0.2 6.65 -1.4 5.0 -3.3 3.3 -5.15 2.65 -7.25 2.0 -9.3 2.0 -11.3 L9.4 -11.3 Q9.45 -9.95 10.05 -8.65 10.65 -7.3 12.35 -6.35 14.1 -5.35 17.15 -5.35 20.4 -5.35 22.65 -6.4 24.85 -7.45 24.85 -10.15 24.85 -12.05 23.3 -12.95 21.7 -13.9 18.2 -14.7 L14.25 -15.6 Q10.35 -16.5 8.05 -17.45 5.7 -18.4 4.15 -20.5 2.55 -22.65 2.55 -26.4 2.55 -28.95 3.75 -31.5 4.9 -34.05 8.1 -35.85 11.25 -37.7 16.7 -37.7 20.75 -37.7 23.55 -36.55 26.3 -35.45 27.95 -33.65 29.55 -31.85 30.3 -29.75 31.05 -27.7 31.05 -25.85 L23.65 -25.85 Q23.4 -28.0 21.95 -29.65" fill-rule="evenodd" stroke="none"/>
    </g>
    <g id="shape2" transform="matrix(1.0, 0.0, 0.0, 1.0, 74.1, 0.5)">
      <path d="M-73.6 0.0 L73.65 0.0" fill="none" stroke="#000000" stroke-linecap="round" stroke-linejoin="round" stroke-width="1.0"/>
    </g>
    <g id="text7" transform="matrix(1.0, 0.0, 0.0, 1.0, -0.3, -2.55)">
      <g transform="matrix(1.0, 0.0, 0.0, 1.0, 0.0, 0.0)">
        <use fill="#000000" height="7.35" transform="matrix(0.1973, 0.0, 0.0, 0.1973, 0.0, 9.7)" width="11.6" xlink:href="#font_Helvetica_60"/>
      </g>
    </g>
    <g id="font_Helvetica_60">
      <path d="M25.9 -27.1 L18.8 -27.1 Q18.65 -28.7 17.6 -29.65 16.55 -30.6 14.6 -30.6 11.45 -30.6 10.15 -27.8 8.85 -24.95 8.6 -20.55 L8.7 -20.45 Q10.95 -23.5 15.55 -23.5 19.1 -23.5 21.65 -21.85 24.15 -20.25 25.4 -17.7 26.65 -15.1 26.65 -12.3 26.65 -8.35 25.15 -5.3 23.65 -2.3 20.95 -0.65 18.25 1.0 14.75 1.0 7.25 1.0 4.4 -4.1 1.6 -9.2 1.6 -17.3 1.6 -22.0 2.45 -26.1 3.35 -30.2 6.35 -33.25 9.35 -36.35 15.1 -36.35 L19.05 -35.75 Q21.3 -35.2 22.55 -34.0 L24.8 -31.15 Q25.45 -29.85 25.9 -27.1 M14.25 -17.75 Q12.75 -17.75 11.55 -17.1 10.3 -16.45 9.55 -15.05 8.75 -13.7 8.75 -11.5 8.75 -8.55 10.35 -6.65 11.9 -4.75 14.45 -4.75 15.8 -4.75 16.95 -5.45 18.1 -6.2 18.8 -7.75 19.45 -9.35 19.45 -11.65 19.45 -14.8 17.85 -16.25 16.25 -17.75 14.25 -17.75" fill-rule="evenodd" stroke="none"/>
    </g>
    <g id="text8" transform="matrix(1.0, 0.0, 0.0, 1.0, -0.3, -2.55)">
      <g transform="matrix(1.0, 0.0, 0.0, 1.0, 0.0, 0.0)">
        <use fill="#000000" height="7.35" transform="matrix(0.1973, 0.0, 0.0, 0.1973, 0.0, 9.7)" width="11.6" xlink:href="#font_Helvetica_80"/>
      </g>
    </g>
    <g id="font_Helvetica_80">
      <path d="M25.6 -26.85 Q25.6 -21.75 21.4 -19.55 24.15 -18.2 25.5 -16.2 26.85 -14.2 26.85 -10.8 26.85 -8.85 26.2 -6.85 25.55 -4.85 24.05 -3.05 22.6 -1.3 20.15 -0.15 17.65 1.0 14.25 1.0 9.85 1.0 7.05 -0.65 4.2 -2.3 2.9 -4.8 1.65 -7.35 1.65 -10.05 1.65 -12.65 2.6 -15.15 3.6 -17.6 7.2 -19.3 2.8 -21.45 2.8 -26.4 2.8 -29.4 4.25 -31.65 5.75 -33.95 8.35 -35.15 10.9 -36.35 14.1 -36.35 16.85 -36.35 19.0 -35.6 21.15 -34.9 22.65 -33.5 24.15 -32.15 24.9 -30.45 25.6 -28.8 25.6 -26.85 M10.9 -29.4 Q9.65 -28.15 9.65 -26.1 9.65 -24.35 10.9 -22.95 12.2 -21.6 14.3 -21.6 16.35 -21.6 17.55 -22.85 18.75 -24.1 18.75 -26.1 18.75 -27.45 18.2 -28.45 17.65 -29.5 16.65 -30.05 15.7 -30.6 14.55 -30.6 12.2 -30.6 10.9 -29.4 M14.15 -16.15 Q12.0 -16.15 10.5 -14.75 9.0 -13.3 9.0 -10.55 9.0 -7.95 10.45 -6.35 11.85 -4.75 14.3 -4.75 16.05 -4.75 17.2 -5.6 18.4 -6.45 18.95 -7.8 19.45 -9.1 19.45 -10.5 19.45 -12.75 18.2 -14.45 16.9 -16.15 14.15 -16.15" fill-rule="evenodd" stroke="none"/>
    </g>
    <g id="text9" transform="matrix(1.0, 0.0, 0.0, 1.0, -0.25, -2.65)">
      <g transform="matrix(1.0, 0.0, 0.0, 1.0, 0.0, 0.0)">
        <use fill="#000000" height="7.05" transform="matrix(0.1973, 0.0, 0.0, 0.1973, 0.0, 9.7)" width="11.65" xlink:href="#font_Helvetica_70"/>
      </g>
    </g>
    <g id="font_Helvetica_70">
      <path d="M27.05 -30.2 L23.3 -25.6 Q21.3 -23.0 19.25 -19.15 17.15 -15.3 15.65 -10.35 14.1 -5.45 13.8 0.0 L6.4 0.0 Q6.7 -5.05 8.2 -9.85 9.75 -14.65 11.8 -18.5 13.9 -22.35 15.8 -24.95 L19.35 -29.4 1.3 -29.4 1.45 -35.75 27.05 -35.75 27.05 -30.2" fill-rule="evenodd" stroke="none"/>
    </g>
    <g id="text10" transform="matrix(1.0, 0.0, 0.0, 1.0, -0.3, -2.55)">
      <g transform="matrix(1.0, 0.0, 0.0, 1.0, 0.0, 0.0)">
        <use fill="#000000" height="7.35" transform="matrix(0.1973, 0.0, 0.0, 0.1973, 0.0, 9.7)" width="11.6" xlink:href="#font_Helvetica_90"/>
      </g>
    </g>
    <g id="font_Helvetica_90">
      <path d="M24.95 -29.3 Q26.1 -26.4 26.45 -23.55 L26.75 -17.65 Q26.75 -12.55 25.65 -8.95 24.55 -5.35 22.7 -3.2 20.85 -1.0 18.45 0.0 16.1 1.0 13.55 1.0 10.5 1.0 8.05 -0.15 5.55 -1.3 4.05 -3.4 2.55 -5.55 2.25 -8.4 L9.4 -8.4 9.4 -8.35 Q9.95 -4.75 13.6 -4.75 14.8 -4.75 15.85 -5.3 16.9 -5.85 17.7 -7.0 18.55 -8.2 19.05 -10.2 19.55 -12.15 19.55 -14.9 L19.45 -15.0 Q17.4 -11.95 12.55 -11.95 10.0 -11.95 7.95 -12.85 5.95 -13.75 4.5 -15.3 3.05 -16.9 2.3 -18.95 1.55 -21.0 1.55 -23.3 1.55 -27.6 3.1 -30.55 4.7 -33.45 7.5 -34.9 10.3 -36.35 13.95 -36.35 18.35 -36.35 21.05 -34.3 23.75 -32.25 24.95 -29.3 M13.9 -30.45 L11.55 -29.95 Q10.4 -29.45 9.55 -28.05 8.7 -26.65 8.7 -24.3 8.7 -17.65 14.1 -17.65 15.4 -17.65 16.65 -18.3 17.85 -18.95 18.6 -20.35 19.35 -21.7 19.35 -23.75 19.35 -26.85 17.95 -28.65 16.55 -30.45 13.9 -30.45" fill-rule="evenodd" stroke="none"/>
    </g>
    <g id="text11" transform="matrix(1.0, 0.0, 0.0, 1.0, -0.7, -2.55)">
      <g transform="matrix(1.0, 0.0, 0.0, 1.0, 0.0, 0.0)">
        <use fill="#000000" height="7.35" transform="matrix(0.1973, 0.0, 0.0, 0.1973, 0.0, 9.7)" width="16.8" xlink:href="#font_Helvetica_10"/>
        <use fill="#000000" height="7.35" transform="matrix(0.1973, 0.0, 0.0, 0.1973, 5.6, 9.7)" width="16.8" xlink:href="#font_Helvetica_00"/>
      </g>
    </g>
    <g id="font_Helvetica_00">
      <path d="M25.45 -28.2 Q26.85 -24.05 26.85 -17.7 26.85 -11.35 25.45 -7.2 24.1 -3.05 21.3 -1.0 18.5 1.0 14.25 1.0 9.95 1.0 7.15 -1.0 4.35 -3.05 3.0 -7.2 1.65 -11.35 1.65 -17.7 1.65 -27.25 4.7 -31.8 7.8 -36.35 14.25 -36.35 18.5 -36.35 21.3 -34.35 24.1 -32.35 25.45 -28.2 M9.5 -25.3 Q9.0 -22.55 9.0 -17.7 9.0 -14.1 9.25 -11.7 9.5 -9.3 10.1 -7.7 10.7 -6.15 11.7 -5.45 12.7 -4.75 14.25 -4.75 16.3 -4.75 17.4 -6.0 18.55 -7.3 19.0 -10.05 19.45 -12.85 19.45 -17.7 19.45 -22.55 19.0 -25.3 18.55 -28.1 17.4 -29.35 16.25 -30.6 14.25 -30.6 12.25 -30.6 11.1 -29.35 9.95 -28.05 9.5 -25.3" fill-rule="evenodd" stroke="none"/>
    </g>
    <g id="text12" transform="matrix(1.0, 0.0, 0.0, 1.0, -0.7, -2.55)">
      <g transform="matrix(1.0, 0.0, 0.0, 1.0, 0.0, 0.0)">
        <use fill="#000000" height="7.15" transform="matrix(0.1973, 0.0, 0.0, 0.1973, 0.0, 9.7)" width="16.8" xlink:href="#font_Helvetica_10"/>
        <use fill="#000000" height="7.15" transform="matrix(0.1973, 0.0, 0.0, 0.1973, 5.6, 9.7)" width="16.8" xlink:href="#font_Helvetica_10"/>
      </g>
    </g>
    <g id="text13" transform="matrix(1.0, 0.0, 0.0, 1.0, -0.7, -2.55)">
      <g transform="matrix(1.0, 0.0, 0.0, 1.0, 0.0, 0.0)">
        <use fill="#000000" height="7.15" transform="matrix(0.1973, 0.0, 0.0, 0.1973, 0.0, 9.7)" width="16.8" xlink:href="#font_Helvetica_10"/>
        <use fill="#000000" height="7.15" transform="matrix(0.1973, 0.0, 0.0, 0.1973, 5.6, 9.7)" width="16.8" xlink:href="#font_Helvetica_20"/>
      </g>
    </g>
    <g id="sprite0" transform="matrix(1.0, 0.0, 0.0, 1.0, 80.9, 12.4)">
      <use height="16.0" transform="matrix(1.2196, 0.0, 0.0, 0.825, -77.2542, -8.0)" width="126.85" xlink:href="#button0"/>
      <use height="18.0" transform="matrix(1.0, 0.0, 0.0, 1.0, -62.8, -9.15)" width="127.2" xlink:href="#text14"/>
    </g>
  </defs>
</svg>
