<?xml version="1.0" encoding="UTF-8" standalone="no"?>
<svg xmlns:xlink="http://www.w3.org/1999/xlink" height="14.794999999999998px" width="50.765px" xmlns="http://www.w3.org/2000/svg">
  <g transform="matrix(1.1, 0.0, 0.0, 1.1, 22.715, 6.82)">
    <use height="8.9" transform="matrix(0.7807, 0.0, 0.0, 0.7807, -7.0877, -2.7811)" width="31.3" xlink:href="#text0"/>
    <use height="13.45" transform="matrix(1.0, 0.0, 0.0, 1.0, -20.65, -6.2)" width="46.15" xlink:href="#shape0"/>
  </g>
  <defs>
    <g id="text0" transform="matrix(1.0, 0.0, 0.0, 1.0, -0.4, -2.65)">
      <g transform="matrix(1.0, 0.0, 0.0, 1.0, 0.0, 0.0)">
        <use fill="#cccccc" height="8.9" transform="matrix(0.2344, 0.0, 0.0, 0.2344, 0.0, 11.4)" width="31.3" xlink:href="#font_HelveticaNeue_MediumCond_S0"/>
        <use fill="#cccccc" height="8.9" transform="matrix(0.2344, 0.0, 0.0, 0.2344, 6.25, 11.4)" width="31.3" xlink:href="#font_HelveticaNeue_MediumCond_A0"/>
        <use fill="#cccccc" height="8.9" transform="matrix(0.2344, 0.0, 0.0, 0.2344, 12.15, 11.4)" width="31.3" xlink:href="#font_HelveticaNeue_MediumCond_V0"/>
        <use fill="#cccccc" height="8.9" transform="matrix(0.2344, 0.0, 0.0, 0.2344, 17.9, 11.4)" width="31.3" xlink:href="#font_HelveticaNeue_MediumCond_E0"/>
      </g>
    </g>
    <g id="font_HelveticaNeue_MediumCond_S0">
      <path d="M22.25 -33.85 Q23.3 -32.4 23.6 -30.75 23.95 -29.1 23.9 -27.65 L23.9 -26.8 18.1 -26.8 18.1 -27.6 Q18.1 -30.1 16.9 -31.45 15.65 -32.85 12.95 -32.85 L10.55 -32.35 Q9.45 -31.85 8.75 -30.7 8.05 -29.5 8.05 -27.6 8.0 -25.3 9.3 -23.85 10.6 -22.45 13.55 -21.4 L17.5 -19.95 Q21.35 -18.6 23.1 -16.3 24.9 -14.0 24.9 -10.25 24.85 -6.4 23.4 -3.95 21.9 -1.5 19.2 -0.4 16.5 0.75 12.8 0.75 9.45 0.7 7.25 -0.3 5.1 -1.3 3.85 -2.9 2.65 -4.55 2.15 -6.5 1.7 -8.5 1.7 -10.4 L1.7 -11.3 7.55 -11.3 7.55 -10.35 Q7.55 -7.05 9.0 -5.35 10.5 -3.65 13.55 -3.65 15.4 -3.7 16.6 -4.45 17.85 -5.2 18.45 -6.4 19.05 -7.6 19.05 -9.0 19.05 -11.85 17.7 -13.3 16.3 -14.8 13.85 -15.5 L9.85 -16.9 Q5.85 -18.35 4.05 -20.7 2.2 -23.05 2.2 -26.9 2.25 -30.25 3.65 -32.55 5.05 -34.85 7.6 -36.05 10.1 -37.25 13.6 -37.25 17.05 -37.25 19.15 -36.3 21.2 -35.35 22.25 -33.85" fill-rule="evenodd" stroke="none"/>
    </g>
    <g id="font_HelveticaNeue_MediumCond_A0">
      <path d="M9.05 -13.6 L17.7 -13.6 13.5 -31.6 13.4 -31.6 9.05 -13.6 M9.95 -36.55 L17.4 -36.55 27.05 0.0 20.95 0.0 18.7 -8.95 8.0 -8.95 5.65 0.0 -0.45 0.0 9.95 -36.55" fill-rule="evenodd" stroke="none"/>
    </g>
    <g id="font_HelveticaNeue_MediumCond_V0">
      <path d="M5.9 -36.55 L12.1 -7.35 12.2 -7.35 18.75 -36.55 24.95 -36.55 15.75 0.0 8.3 0.0 -0.3 -36.55 5.9 -36.55" fill-rule="evenodd" stroke="none"/>
    </g>
    <g id="font_HelveticaNeue_MediumCond_E0">
      <path d="M22.8 -36.55 L22.8 -31.6 8.85 -31.6 8.85 -21.5 21.95 -21.5 21.95 -16.55 8.85 -16.55 8.85 -4.9 23.2 -4.9 23.2 0.0 3.05 0.0 3.05 -36.55 22.8 -36.55" fill-rule="evenodd" stroke="none"/>
    </g>
    <g id="shape0" transform="matrix(1.0, 0.0, 0.0, 1.0, 20.65, 6.2)">
      <path d="M25.0 6.75 L-20.15 6.75 -20.15 -5.7 25.0 -5.7 25.0 6.75 Z" fill="none" stroke="#cccccc" stroke-linecap="round" stroke-linejoin="round" stroke-width="1.0"/>
    </g>
  </defs>
</svg>
