<?xml version="1.0" encoding="UTF-8" standalone="no"?>
<svg xmlns:xlink="http://www.w3.org/1999/xlink" height="10.725px" width="27.720000000000006px" xmlns="http://www.w3.org/2000/svg">
  <g transform="matrix(1.1, 0.0, 0.0, 1.1, 13.585, 5.17)">
    <path d="M12.85 -4.7 L12.8 5.05 -12.35 5.05 -5.75 -1.7 Q-4.55 -2.95 -2.8 -3.85 -1.05 -4.7 0.2 -4.7 L12.85 -4.7" fill="#ffffff" fill-rule="evenodd" stroke="none"/>
    <path d="M12.85 -4.7 L12.8 5.05 -12.35 5.05 -5.75 -1.7 Q-4.55 -2.95 -2.8 -3.85 -1.05 -4.7 0.2 -4.7 L12.85 -4.7 Z" fill="none" stroke="#000000" stroke-linecap="round" stroke-linejoin="round" stroke-width="0.05"/>
    <path d="M4.45 -3.2 L6.15 -3.2 6.15 -1.5 4.45 -1.5 4.45 -3.2 M8.55 -0.8 L8.55 0.9 6.85 0.9 6.85 -0.8 8.55 -0.8 M9.25 -3.2 L10.95 -3.2 10.95 -1.5 9.25 -1.5 9.25 -3.2 M8.55 -1.5 L6.85 -1.5 6.85 -3.2 8.55 -3.2 8.55 -1.5 M6.15 -0.8 L6.15 0.9 4.45 0.9 4.45 -0.8 6.15 -0.8 M10.95 -0.8 L10.95 0.9 9.25 0.9 9.25 -0.8 10.95 -0.8 M10.9 3.4 L9.2 3.4 9.2 1.7 10.9 1.7 10.9 3.4 M6.1 3.4 L4.4 3.4 4.4 1.7 6.1 1.7 6.1 3.4 M8.5 3.4 L6.8 3.4 6.8 1.7 8.5 1.7 8.5 3.4" fill="#666666" fill-rule="evenodd" stroke="none"/>
  </g>
</svg>
