<?xml version="1.0" encoding="UTF-8" standalone="no"?>
<svg xmlns:xlink="http://www.w3.org/1999/xlink" height="37.125px" width="178.97000000000003px" xmlns="http://www.w3.org/2000/svg">

  <g transform="matrix(1.1, 0.0, 0.0, 1.1, 91.63, -0.33)">
    <path d="M79.4 3.3 L79.4 22.2 -44.3 22.2 Q-45.55 22.2 -47.3 23.05 -49.05 23.95 -50.25 25.2 L-58.9 34.05 -80.3 34.05 Q-81.55 34.05 -82.45 33.15 -83.3 32.3 -83.3 31.05 L-83.3 3.3 Q-83.3 2.1 -82.45 1.15 -81.5 0.3 -80.3 0.3 L76.4 0.3 Q77.65 0.3 78.5 1.15 79.4 2.05 79.4 3.3" fill="#999999" fill-rule="evenodd" stroke="none"/>
    <path d="M73.4 7.95 Q73.35 7.35 73.75 7.0 74.15 6.6 74.7 6.6 75.2 6.6 75.6 7.0 76.0 7.35 76.0 7.95 L76.0 13.75 Q76.0 14.3 75.6 14.7 L74.7 15.05 74.6 15.05 68.8 15.05 Q68.25 15.05 67.85 14.7 67.45 14.3 67.5 13.75 67.45 13.2 67.85 12.8 68.25 12.4 68.8 12.45 L71.5 12.45 67.4 8.3 Q67.0 7.9 67.05 7.35 67.05 6.8 67.45 6.45 67.8 6.05 68.35 6.05 68.85 6.05 69.25 6.45 L73.4 10.65 73.4 7.95" fill="#cccccc" fill-rule="evenodd" stroke="none"/>
  </g>  <svg x="7" y="18">
  <g transform="matrix(1.1, 0.0, 0.0, 1.1, 4.565, 8.635)">
    <path d="M-0.95 -3.15 L4.15 -7.85 4.15 7.9 -0.95 3.2 -4.15 3.2 -4.15 -3.15 -0.95 -3.15" fill="#ffffff" fill-rule="evenodd" stroke="none"/>
  </g>
</svg>
</svg>
