<?xml version="1.0" encoding="UTF-8" standalone="no"?>
<svg xmlns:xlink="http://www.w3.org/1999/xlink" height="14.794999999999998px" width="79.69500000000001px" xmlns="http://www.w3.org/2000/svg">
  <g transform="matrix(1.1, 0.0, 0.0, 1.1, 74.58, 7.095)">
    <use height="8.9" transform="matrix(0.7807, 0.0, 0.0, 0.7807, -59.6877, -3.0811)" width="78.6" xlink:href="#text0"/>
    <use height="13.45" transform="matrix(1.0, 0.0, 0.0, 1.0, -67.8, -6.45)" width="72.45" xlink:href="#shape0"/>
  </g>
  <defs>
    <g id="text0" transform="matrix(1.0, 0.0, 0.0, 1.0, -0.4, -2.65)">
      <g transform="matrix(1.0, 0.0, 0.0, 1.0, 0.0, 0.0)">
        <use fill="#cccccc" height="8.9" transform="matrix(0.2344, 0.0, 0.0, 0.2344, 0.0, 11.4)" width="78.6" xlink:href="#font_HelveticaNeue_MediumCond_S0"/>
        <use fill="#cccccc" height="8.9" transform="matrix(0.2344, 0.0, 0.0, 0.2344, 6.25, 11.4)" width="78.6" xlink:href="#font_HelveticaNeue_MediumCond_T0"/>
        <use fill="#cccccc" height="8.9" transform="matrix(0.2344, 0.0, 0.0, 0.2344, 11.15, 11.4)" width="78.6" xlink:href="#font_HelveticaNeue_MediumCond_A0"/>
        <use fill="#cccccc" height="8.9" transform="matrix(0.2344, 0.0, 0.0, 0.2344, 17.4, 11.4)" width="78.6" xlink:href="#font_HelveticaNeue_MediumCond_R0"/>
        <use fill="#cccccc" height="8.9" transform="matrix(0.2344, 0.0, 0.0, 0.2344, 23.65, 11.4)" width="78.6" xlink:href="#font_HelveticaNeue_MediumCond_T0"/>
        <use fill="#cccccc" height="8.9" transform="matrix(0.2344, 0.0, 0.0, 0.2344, 32.1, 11.4)" width="78.6" xlink:href="#font_HelveticaNeue_MediumCond_N0"/>
        <use fill="#cccccc" height="8.9" transform="matrix(0.2344, 0.0, 0.0, 0.2344, 39.0, 11.4)" width="78.6" xlink:href="#font_HelveticaNeue_MediumCond_E0"/>
        <use fill="#cccccc" height="8.9" transform="matrix(0.2344, 0.0, 0.0, 0.2344, 44.75, 11.4)" width="78.6" xlink:href="#font_HelveticaNeue_MediumCond_W0"/>
        <use fill="#cccccc" height="8.9" transform="matrix(0.2344, 0.0, 0.0, 0.2344, 56.55, 11.4)" width="78.6" xlink:href="#font_HelveticaNeue_MediumCond_M0"/>
        <use fill="#cccccc" height="8.9" transform="matrix(0.2344, 0.0, 0.0, 0.2344, 65.2, 11.4)" width="78.6" xlink:href="#font_HelveticaNeue_MediumCond_I0"/>
        <use fill="#cccccc" height="8.9" transform="matrix(0.2344, 0.0, 0.0, 0.2344, 67.85, 11.4)" width="78.6" xlink:href="#font_HelveticaNeue_MediumCond_X0"/>
      </g>
    </g>
    <g id="font_HelveticaNeue_MediumCond_S0">
      <path d="M22.25 -33.85 Q23.3 -32.4 23.6 -30.75 23.95 -29.1 23.9 -27.65 L23.9 -26.8 18.1 -26.8 18.1 -27.6 Q18.1 -30.1 16.9 -31.45 15.65 -32.85 12.95 -32.85 L10.55 -32.35 Q9.45 -31.85 8.75 -30.7 8.05 -29.5 8.05 -27.6 8.0 -25.3 9.3 -23.85 10.6 -22.45 13.55 -21.4 L17.5 -19.95 Q21.35 -18.6 23.1 -16.3 24.9 -14.0 24.9 -10.25 24.85 -6.4 23.4 -3.95 21.9 -1.5 19.2 -0.4 16.5 0.75 12.8 0.75 9.45 0.7 7.25 -0.3 5.1 -1.3 3.85 -2.9 2.65 -4.55 2.15 -6.5 1.7 -8.5 1.7 -10.4 L1.7 -11.3 7.55 -11.3 7.55 -10.35 Q7.55 -7.05 9.0 -5.35 10.5 -3.65 13.55 -3.65 15.4 -3.7 16.6 -4.45 17.85 -5.2 18.45 -6.4 19.05 -7.6 19.05 -9.0 19.05 -11.85 17.7 -13.3 16.3 -14.8 13.85 -15.5 L9.85 -16.9 Q5.85 -18.35 4.05 -20.7 2.2 -23.05 2.2 -26.9 2.25 -30.25 3.65 -32.55 5.05 -34.85 7.6 -36.05 10.1 -37.25 13.6 -37.25 17.05 -37.25 19.15 -36.3 21.2 -35.35 22.25 -33.85" fill-rule="evenodd" stroke="none"/>
    </g>
    <g id="font_HelveticaNeue_MediumCond_T0">
      <path d="M9.05 -31.6 L0.35 -31.6 0.35 -36.55 23.4 -36.55 23.4 -31.6 14.85 -31.6 14.85 0.0 9.05 0.0 9.05 -31.6" fill-rule="evenodd" stroke="none"/>
    </g>
    <g id="font_HelveticaNeue_MediumCond_A0">
      <path d="M9.05 -13.6 L17.7 -13.6 13.5 -31.6 13.4 -31.6 9.05 -13.6 M9.95 -36.55 L17.4 -36.55 27.05 0.0 20.95 0.0 18.7 -8.95 8.0 -8.95 5.65 0.0 -0.45 0.0 9.95 -36.55" fill-rule="evenodd" stroke="none"/>
    </g>
    <g id="font_HelveticaNeue_MediumCond_R0">
      <path d="M19.35 -26.2 Q19.4 -29.1 18.05 -30.65 16.7 -32.15 13.85 -32.15 L8.85 -32.15 8.85 -20.25 13.5 -20.25 Q16.35 -20.3 17.85 -21.85 19.35 -23.4 19.35 -26.2 M20.6 -35.6 Q22.7 -34.7 23.9 -32.6 25.15 -30.55 25.2 -27.1 25.2 -23.55 23.65 -21.1 22.1 -18.7 19.1 -18.15 L19.1 -18.05 Q21.85 -17.85 23.25 -16.1 24.7 -14.4 24.85 -10.6 L24.9 -6.8 25.05 -3.15 Q25.15 -1.85 25.65 -1.1 26.15 -0.35 26.75 0.0 L20.2 0.0 Q19.75 -0.5 19.55 -1.3 19.3 -2.15 19.2 -3.2 L19.05 -6.5 18.95 -10.15 Q18.95 -13.1 17.75 -14.5 16.55 -15.9 13.65 -15.85 L8.85 -15.85 8.85 0.0 3.05 0.0 3.05 -36.55 15.95 -36.55 Q18.5 -36.55 20.6 -35.6" fill-rule="evenodd" stroke="none"/>
    </g>
    <g id="font_HelveticaNeue_MediumCond_N0">
      <path d="M3.05 -36.55 L10.15 -36.55 20.75 -9.3 20.85 -9.3 20.85 -36.55 26.4 -36.55 26.4 0.0 19.3 0.0 8.65 -27.95 8.55 -27.95 8.55 0.0 3.05 0.0 3.05 -36.55" fill-rule="evenodd" stroke="none"/>
    </g>
    <g id="font_HelveticaNeue_MediumCond_E0">
      <path d="M22.8 -36.55 L22.8 -31.6 8.85 -31.6 8.85 -21.5 21.95 -21.5 21.95 -16.55 8.85 -16.55 8.85 -4.9 23.2 -4.9 23.2 0.0 3.05 0.0 3.05 -36.55 22.8 -36.55" fill-rule="evenodd" stroke="none"/>
    </g>
    <g id="font_HelveticaNeue_MediumCond_W0">
      <path d="M31.85 -36.55 L37.65 -36.55 30.35 0.0 23.6 0.0 18.9 -27.55 18.8 -27.55 14.15 0.0 7.4 0.0 0.3 -36.55 6.2 -36.55 11.0 -8.15 11.1 -8.15 15.95 -36.55 22.05 -36.55 27.0 -7.95 27.1 -7.95 31.85 -36.55" fill-rule="evenodd" stroke="none"/>
    </g>
    <g id="font_HelveticaNeue_MediumCond_M0">
      <path d="M3.05 -36.55 L12.15 -36.55 18.6 -9.45 18.7 -9.45 25.05 -36.55 33.95 -36.55 33.95 0.0 28.45 0.0 28.45 -30.4 28.35 -30.4 20.95 0.0 16.05 0.0 8.65 -30.4 8.55 -30.4 8.55 0.0 3.05 0.0 3.05 -36.55" fill-rule="evenodd" stroke="none"/>
    </g>
    <g id="font_HelveticaNeue_MediumCond_I0">
      <path d="M2.8 -36.55 L8.6 -36.55 8.6 0.0 2.8 0.0 2.8 -36.55" fill-rule="evenodd" stroke="none"/>
    </g>
    <g id="font_HelveticaNeue_MediumCond_X0">
      <path d="M9.65 -18.55 L0.85 -36.55 7.3 -36.55 13.1 -24.4 18.85 -36.55 25.15 -36.55 16.3 -18.55 25.6 0.0 19.15 0.0 12.8 -13.2 6.3 0.0 0.0 0.0 9.65 -18.55" fill-rule="evenodd" stroke="none"/>
    </g>
    <g id="shape0" transform="matrix(1.0, 0.0, 0.0, 1.0, 67.8, 6.45)">
      <path d="M4.15 6.5 L-67.3 6.5 -67.3 -5.95 4.15 -5.95 4.15 6.5 Z" fill="none" stroke="#cccccc" stroke-linecap="round" stroke-linejoin="round" stroke-width="1.0"/>
    </g>
  </defs>
</svg>
