<?xml version="1.0" encoding="UTF-8" standalone="no"?>
<svg xmlns:xlink="http://www.w3.org/1999/xlink" height="14.85px" width="50.82000000000001px" xmlns="http://www.w3.org/2000/svg">
  <g transform="matrix(1.1, 0.0, 0.0, 1.1, 29.315, 8.085)">
    <use height="13.5" transform="matrix(1.0, 0.0, 0.0, 1.0, -26.65, -7.35)" width="46.2" xlink:href="#shape0"/>
  </g>
  <defs>
    <g id="shape0" transform="matrix(1.0, 0.0, 0.0, 1.0, 26.65, 7.35)">
      <path d="M-0.65 -4.0 L-7.55 -4.0 -7.55 2.85 -0.65 2.85 -0.65 -4.0 M19.05 -6.85 L19.05 5.65 -26.15 5.65 -26.15 -6.85 19.05 -6.85" fill="#ff0000" fill-rule="evenodd" stroke="none"/>
      <path d="M-0.65 -4.0 L-0.65 2.85 -7.55 2.85 -7.55 -4.0 -0.65 -4.0" fill="#ffffff" fill-rule="evenodd" stroke="none"/>
      <path d="M19.05 -6.85 L19.05 5.65 -26.15 5.65 -26.15 -6.85 19.05 -6.85 Z" fill="none" stroke="#cccccc" stroke-linecap="round" stroke-linejoin="round" stroke-width="1.0"/>
    </g>
  </defs>
</svg>
